<?xml version="1.0" encoding="UTF-8" standalone="no"?>
<!-- Created with Inkscape (http://www.inkscape.org/) -->

<svg
   width="97.615913mm"
   height="69.470718mm"
   viewBox="0 0 97.615915 69.470718"
   version="1.1"
   id="svg5"
   xml:space="preserve"
   inkscape:version="1.2 (1:1.2.1+202207142221+cd75a1ee6d)"
   sodipodi:docname="curvesOnCircle.svg"
   xmlns:inkscape="http://www.inkscape.org/namespaces/inkscape"
   xmlns:sodipodi="http://sodipodi.sourceforge.net/DTD/sodipodi-0.dtd"
   xmlns="http://www.w3.org/2000/svg"
   xmlns:svg="http://www.w3.org/2000/svg"><sodipodi:namedview
     id="namedview7"
     pagecolor="#ffffff"
     bordercolor="#999999"
     borderopacity="1"
     inkscape:showpageshadow="0"
     inkscape:pageopacity="0"
     inkscape:pagecheckerboard="0"
     inkscape:deskcolor="#d1d1d1"
     inkscape:document-units="mm"
     showgrid="true"
     inkscape:zoom="4.0000001"
     inkscape:cx="134.375"
     inkscape:cy="78.624998"
     inkscape:window-width="1600"
     inkscape:window-height="832"
     inkscape:window-x="0"
     inkscape:window-y="32"
     inkscape:window-maximized="1"
     inkscape:current-layer="layer1" /><defs
     id="defs2"><marker
       style="overflow:visible"
       id="marker4933"
       refX="0"
       refY="0"
       orient="auto-start-reverse"
       inkscape:stockid="Arrow5"
       markerWidth="5.8874264"
       markerHeight="6.6094756"
       viewBox="0 0 5.8874262 6.6094758"
       inkscape:isstock="true"
       inkscape:collect="always"
       preserveAspectRatio="xMidYMid"><path
         transform="scale(0.5)"
         style="fill:context-stroke;fill-rule:evenodd;stroke:context-stroke;stroke-width:1pt"
         d="m 6,0 c -3,1 -7,3 -9,5 0,0 0,-4 2,-5 -2,-1 -2,-5 -2,-5 2,2 6,4 9,5 z"
         id="path4931" /></marker><marker
       style="overflow:visible"
       id="marker2517"
       refX="0"
       refY="0"
       orient="auto-start-reverse"
       inkscape:stockid="Arrow5"
       markerWidth="4.1054921"
       markerHeight="4.6090002"
       viewBox="0 0 5.8874262 6.6094758"
       inkscape:isstock="true"
       inkscape:collect="always"
       preserveAspectRatio="xMidYMid"><path
         transform="scale(0.5)"
         style="fill:context-stroke;fill-rule:evenodd;stroke:context-stroke;stroke-width:1pt"
         d="m 6,0 c -3,1 -7,3 -9,5 0,0 0,-4 2,-5 -2,-1 -2,-5 -2,-5 2,2 6,4 9,5 z"
         id="path2515" /></marker></defs><g
     inkscape:label="Layer 1"
     inkscape:groupmode="layer"
     id="layer1"
     transform="translate(-58.620071,-126.33357)"><ellipse
       style="font-variation-settings:normal;opacity:1;fill:none;fill-opacity:1;fill-rule:evenodd;stroke:#806600;stroke-width:0.625547;stroke-linecap:butt;stroke-linejoin:miter;stroke-miterlimit:4;stroke-dasharray:none;stroke-dashoffset:0;stroke-opacity:1;paint-order:fill stroke markers;stop-color:#000000;stop-opacity:1"
       id="path600"
       cx="88.353592"
       cy="166.6376"
       rx="29.420748"
       ry="13.964774" /><path
       style="opacity:1;fill:none;fill-rule:evenodd;stroke:#0088aa;stroke-width:0.625547;paint-order:fill stroke markers;stop-color:#000000;stop-opacity:1"
       d="m 68.862451,174.81018 c 0.128307,-3.92378 0.740698,-8.19298 1.882275,-12.57066 4.100075,-15.72283 13.473768,-26.89105 20.936725,-24.94492 5.423739,1.41436 8.345629,9.36613 7.963635,19.64132"
       id="path2238" /><path
       style="font-variation-settings:normal;opacity:1;vector-effect:none;fill:none;fill-opacity:1;stroke:#666666;stroke-width:0.419676;stroke-linecap:butt;stroke-linejoin:miter;stroke-miterlimit:4;stroke-dasharray:none;stroke-dashoffset:0;stroke-opacity:1;-inkscape-stroke:none;marker-end:url(#marker4933);paint-order:fill stroke markers;stop-color:#000000;stop-opacity:1"
       d="M 118.04634,156.81824 83.561183,150.32023"
       id="path2264"
       sodipodi:nodetypes="cc" /><g
       id="g71919"
       transform="rotate(2.270694,101.53728,61.286528)"><path
         style="font-variation-settings:normal;opacity:1;fill:none;fill-opacity:1;fill-rule:evenodd;stroke:#0088aa;stroke-width:0.625547;stroke-linecap:butt;stroke-linejoin:miter;stroke-miterlimit:4;stroke-dasharray:1.87664, 1.87664;stroke-dashoffset:0;stroke-opacity:1;paint-order:fill stroke markers;stop-color:#000000;stop-opacity:1"
         d="m 103.43507,156.59048 c 0.0269,3.86584 -0.39836,8.0804 -1.32815,12.42181"
         id="ellipse883" /><path
         style="fill:none;fill-rule:evenodd;stroke:#0088aa;stroke-width:0.625547;stroke-dasharray:1.87664, 1.87664;stroke-dashoffset:0;paint-order:fill stroke markers;stop-color:#000000"
         d="m 82.290508,194.85614 c -5.441739,-1.16545 -8.703758,-8.87786 -8.819961,-19.05143"
         id="path2236" /><path
         style="fill:none;fill-rule:evenodd;stroke:#0088aa;stroke-width:0.625547;stroke-dasharray:1.87664, 1.87664;stroke-dashoffset:0;paint-order:fill stroke markers;stop-color:#000000"
         d="M 102.10692,169.01229 C 98.704128,184.90061 89.832018,196.4713 82.290508,194.85614"
         id="path2234" /></g><path
       style="font-variation-settings:normal;fill:none;fill-opacity:1;stroke:#666666;stroke-width:0.419676;stroke-linecap:butt;stroke-linejoin:miter;stroke-miterlimit:4;stroke-dasharray:none;stroke-dashoffset:0;stroke-opacity:1;marker-start:url(#marker2517);paint-order:fill stroke markers;stop-color:#000000"
       d="m 99.995279,135.56566 -0.452113,38.23476"
       id="path2266"
       sodipodi:nodetypes="cc" /><g
       id="g2861"
       transform="rotate(-130.81373,98.115549,160.56184)"><g
         id="path2863"><path
           style="color:#000000;fill:#0088aa;fill-rule:evenodd;stroke-width:0.312774pt;-inkscape-stroke:none"
           d="m 122.7665,155.52181 c 0.51204,0.84622 1.39814,1.92852 2.14626,2.40068 0,0 -1.22028,0.27596 -1.66333,-0.26519 -0.16709,0.67913 -1.38737,0.95509 -1.38737,0.95509 0.47216,-0.74812 0.80634,-2.10638 0.90444,-3.09058 z"
           id="path2867" /><path
           style="color:#000000;fill:#0088aa;fill-rule:evenodd;-inkscape-stroke:none"
           d="m 122.62109,154.87891 -0.0625,0.62304 c -0.0953,0.95654 -0.43798,2.31066 -0.87304,3 l -0.26758,0.42578 0.49023,-0.11132 c 0,0 0.32421,-0.0732 0.67383,-0.23829 0.28684,-0.13541 0.5437,-0.40087 0.71289,-0.71484 0.28794,0.21126 0.63557,0.33908 0.95313,0.33789 0.38661,-10e-4 0.71093,-0.0762 0.71093,-0.0762 l 0.49024,-0.10938 -0.42578,-0.26953 c -0.68934,-0.43506 -1.58048,-1.50959 -2.07813,-2.33203 z m 0.23829,1.05468 c 0.4485,0.67388 1.03157,1.34076 1.63671,1.82422 -0.10342,0.0126 -0.11541,0.0268 -0.25,0.0273 -0.33428,0.001 -0.68486,-0.0752 -0.83593,-0.25977 l -0.26368,-0.32227 -0.0996,0.4043 c -0.057,0.23158 -0.34029,0.45104 -0.64258,0.59375 -0.12165,0.0574 -0.1376,0.0508 -0.23633,0.084 0.3383,-0.69701 0.57654,-1.55016 0.69141,-2.35157 z"
           id="path2869" /></g></g><g
       id="g3246"
       transform="translate(-50.638621)"><g
         id="path3248"
         transform="rotate(152.88286,154.46537,207.21403)"><path
           style="color:#000000;fill:#806600;fill-rule:evenodd;stroke-width:0.312774pt;-inkscape-stroke:none"
           d="m 132.85688,232.10973 c 0.93832,-0.31277 2.18941,-0.93832 2.81496,-1.56386 0,0 0,1.25109 -0.62555,1.56386 0.62555,0.31278 0.62555,1.56387 0.62555,1.56387 -0.62555,-0.62555 -1.87664,-1.25109 -2.81496,-1.56387 z"
           id="path3252" /><path
           style="color:#000000;fill:#806600;fill-rule:evenodd;-inkscape-stroke:none"
           d="m 135.88086,230.04297 -0.35742,0.35547 c -0.57641,0.57639 -1.82048,1.20969 -2.73242,1.51367 l -0.59375,0.19726 0.59375,0.19727 c 0.91194,0.30399 2.15602,0.93727 2.73242,1.51367 l 0.35742,0.35742 v -0.5039 c 0,0 -1.1e-4,-0.33353 -0.084,-0.71094 -0.0689,-0.31007 -0.27129,-0.61927 -0.54101,-0.85352 0.26896,-0.23427 0.4722,-0.54385 0.54101,-0.85351 0.0839,-0.37741 0.084,-0.71094 0.084,-0.71094 z m -0.46094,0.87305 c -0.0106,0.10363 -1e-4,0.11863 -0.0293,0.25 -0.0725,0.32632 -0.22419,0.65116 -0.4375,0.75781 l -0.37304,0.18554 0.37304,0.1875 c 0.21331,0.10666 0.36499,0.43149 0.4375,0.75782 0.0291,0.13075 0.0187,0.14468 0.0293,0.24804 -0.60585,-0.4845 -1.38724,-0.90438 -2.14453,-1.19336 0.7573,-0.28896 1.53868,-0.70885 2.14453,-1.19335 z"
           id="path3254" /></g></g><circle
       style="font-variation-settings:normal;opacity:1;vector-effect:none;fill:#ff0000;fill-opacity:1;fill-rule:evenodd;stroke:none;stroke-width:0.932408;stroke-linecap:butt;stroke-linejoin:miter;stroke-miterlimit:4;stroke-dasharray:none;stroke-dashoffset:0;stroke-opacity:1;-inkscape-stroke:none;paint-order:fill stroke markers;stop-color:#000000;stop-opacity:1"
       id="path3313"
       cx="99.680664"
       cy="153.3576"
       r="1.5337961" /><text
       xml:space="preserve"
       style="font-size:8.46667px;line-height:1.25;font-family:'Century Schoolbook';-inkscape-font-specification:'Century Schoolbook';font-variant-ligatures:none;fill:#806600;fill-opacity:1;stroke-width:0.264583"
       x="113.09235"
       y="178.97424"
       id="text3369"><tspan
         sodipodi:role="line"
         id="tspan3367"
         style="fill:#806600;fill-opacity:1;stroke-width:0.264583"
         x="113.09235"
         y="178.97424">$\gamma$</tspan></text><text
       xml:space="preserve"
       style="font-size:8.46667px;line-height:1.25;font-family:'Century Schoolbook';-inkscape-font-specification:'Century Schoolbook';font-variant-ligatures:none;fill:#0088aa;fill-opacity:1;stroke-width:0.264583"
       x="111.30458"
       y="113.87412"
       id="text3423"
       transform="rotate(14.615651)"><tspan
         sodipodi:role="line"
         id="tspan3421"
         style="fill:#0088aa;fill-opacity:1;stroke-width:0.264583"
         x="111.30458"
         y="113.87412">$\eta$</tspan></text><text
       xml:space="preserve"
       style="font-size:8.46667px;line-height:1.25;font-family:'Century Schoolbook';-inkscape-font-specification:'Century Schoolbook';font-variant-ligatures:none;stroke-width:0.264583"
       x="94.348"
       y="157.63008"
       id="text3427"><tspan
         sodipodi:role="line"
         id="tspan3425"
         style="stroke-width:0.264583"
         x="94.348"
         y="157.63008">$\bf{p}$</tspan></text><text
       xml:space="preserve"
       style="font-size:8.46667px;line-height:1.25;font-family:'Century Schoolbook';-inkscape-font-specification:'Century Schoolbook';font-variant-ligatures:none;stroke-width:0.264583"
       x="76.777504"
       y="149.9015"
       id="text25388"><tspan
         sodipodi:role="line"
         id="tspan25386"
         style="stroke-width:0.264583"
         x="76.777504"
         y="149.9015">$\bf{v}_1$</tspan></text><text
       xml:space="preserve"
       style="font-size:8.46667px;line-height:1.25;font-family:'Century Schoolbook';-inkscape-font-specification:'Century Schoolbook';font-variant-ligatures:none;stroke-width:0.264583"
       x="96.841805"
       y="133.06839"
       id="text25392"><tspan
         sodipodi:role="line"
         id="tspan25390"
         style="stroke-width:0.264583"
         x="96.841805"
         y="133.06839">$\bf{v}_2$</tspan></text><path
       style="font-variation-settings:normal;opacity:1;vector-effect:none;fill:none;fill-opacity:1;stroke:#666666;stroke-width:0.419676;stroke-linecap:butt;stroke-linejoin:miter;stroke-miterlimit:4;stroke-dasharray:none;stroke-dashoffset:0;stroke-opacity:1;-inkscape-stroke:none;paint-order:fill stroke markers;stop-color:#000000;stop-opacity:1"
       d="m 99.866448,150.88679 3.081192,0.0581 -0.035,2.98083"
       id="path72221"
       sodipodi:nodetypes="ccc" /></g></svg>
