<?xml version="1.0" encoding="UTF-8" standalone="no"?>
<!-- Created with Inkscape (http://www.inkscape.org/) -->

<svg
   width="177.67949mm"
   height="255.91881mm"
   viewBox="0 0 177.67949 255.9188"
   version="1.1"
   id="svg5"
   xml:space="preserve"
   inkscape:version="1.2 (1:1.2.1+202207142221+cd75a1ee6d)"
   sodipodi:docname="cylinder-cut-locus-3.svg"
   xmlns:inkscape="http://www.inkscape.org/namespaces/inkscape"
   xmlns:sodipodi="http://sodipodi.sourceforge.net/DTD/sodipodi-0.dtd"
   xmlns:xlink="http://www.w3.org/1999/xlink"
   xmlns="http://www.w3.org/2000/svg"
   xmlns:svg="http://www.w3.org/2000/svg"><sodipodi:namedview
     id="namedview7"
     pagecolor="#ffffff"
     bordercolor="#999999"
     borderopacity="1"
     inkscape:showpageshadow="0"
     inkscape:pageopacity="0"
     inkscape:pagecheckerboard="0"
     inkscape:deskcolor="#d1d1d1"
     inkscape:document-units="mm"
     showgrid="false"
     showguides="true"
     inkscape:zoom="0.5"
     inkscape:cx="367"
     inkscape:cy="399"
     inkscape:window-width="1600"
     inkscape:window-height="832"
     inkscape:window-x="0"
     inkscape:window-y="32"
     inkscape:window-maximized="1"
     inkscape:current-layer="layer1-3"><sodipodi:guide
       position="251.83309,47.065683"
       orientation="1,0"
       id="guide7275"
       inkscape:locked="false" /><sodipodi:guide
       position="429.06752,12.950902"
       orientation="1,0"
       id="guide7277"
       inkscape:locked="false" /><sodipodi:guide
       position="88.617223,0.42819498"
       orientation="0,-1"
       id="guide15988"
       inkscape:locked="false" /><sodipodi:guide
       position="-201.42008,218.978"
       orientation="1,0"
       id="guide18449"
       inkscape:locked="false" /><sodipodi:guide
       position="-24.613854,218.978"
       orientation="1,0"
       id="guide18451"
       inkscape:locked="false" /><sodipodi:guide
       position="-112.80286,255.49061"
       orientation="1,0"
       id="guide18648"
       inkscape:locked="false" /></sodipodi:namedview><defs
     id="defs2"><linearGradient
       inkscape:collect="always"
       id="linearGradient2064"><stop
         style="stop-color:#2daff4;stop-opacity:1;"
         offset="0"
         id="stop2060" /><stop
         style="stop-color:#2dbaff;stop-opacity:0.54921484;"
         offset="1"
         id="stop2062" /></linearGradient><inkscape:perspective
       sodipodi:type="inkscape:persp3d"
       inkscape:vp_x="0 : 485.09986 : 1"
       inkscape:vp_y="0 : 999.99993 : 0"
       inkscape:vp_z="744.09447 : 485.09986 : 1"
       inkscape:persp3d-origin="372.04723 : 309.70617 : 1"
       id="perspective10" /><radialGradient
       inkscape:collect="always"
       xlink:href="#linearGradient2064"
       id="radialGradient18916"
       cx="1610.7386"
       cy="905.30627"
       fx="1610.7386"
       fy="905.30627"
       r="333.31284"
       gradientTransform="matrix(1.7873299,1.8915415,-1.4170455,1.3389838,14.677509,-3353.6632)"
       gradientUnits="userSpaceOnUse" /><linearGradient
       inkscape:collect="always"
       xlink:href="#linearGradient2064"
       id="linearGradient19052"
       x1="1276.1788"
       y1="488.86389"
       x2="1947.3521"
       y2="488.86389"
       gradientUnits="userSpaceOnUse" /></defs><g
     inkscape:label="Layer 1"
     inkscape:groupmode="layer"
     id="layer1"
     transform="translate(-344.23577,-23.574763)"><g
       inkscape:label="Ebene 1"
       id="layer1-3"
       transform="matrix(0.26458333,0,0,0.26458333,6.6783861,3.0239205)"
       style="stroke-width:2.1786"><path
         style="font-variation-settings:normal;opacity:1;vector-effect:none;fill:url(#linearGradient19052);fill-opacity:1;stroke:none;stroke-width:3.23671;stroke-linecap:butt;stroke-linejoin:miter;stroke-miterlimit:4;stroke-dasharray:none;stroke-dashoffset:0;stroke-opacity:1;-inkscape-stroke:none;paint-order:fill stroke markers;stop-color:#000000;stop-opacity:1"
         d="m 1945.4381,895.27973 c -8.6568,-14.72846 -46.0686,-56.89149 -69.3026,-68.99691 -126.5027,-65.91092 -353.9859,-72.68016 -501.3292,-14.9181 -43.094,16.89382 -77.8152,53.90744 -95.762,80.09131 -4.5882,6.69396 -2.1695,-26.2009 -1.6185,-347.87595 0.3379,-197.28488 -3.0381,-287.98913 0.099,-329.65033 1.2608,-16.7444 5.3771,-21.98177 8.9118,-27.99297 4.955,-8.42653 10.2907,-14.55684 18.3939,-22.52092 37.5958,-36.95038 118.3661,-66.448348 216.5002,-79.067585 36.4614,-4.688647 142.9253,-4.755284 178.1031,-0.111477 122.2548,16.138812 212.9218,56.600032 237.042,105.782922 l 6.6031,13.46422 0.7739,273.32157 c 0.4255,150.32686 1.7254,303.69644 1.2999,340.38913 -0.7518,64.80973 5.0868,86.25371 0.2855,78.08509 z"
         id="path18721"
         sodipodi:nodetypes="scssssssssscccs" /><path
         style="fill:none;fill-rule:evenodd;stroke:#0000aa;stroke-width:3.23528;stroke-dasharray:12.9411, 12.9411;stroke-dashoffset:0;stroke-opacity:1"
         d="m 1743.1162,449.26201 c -40.578,-7.27808 -85.3399,-11.31215 -132.3775,-11.31216 -102.379,0.62904 -327.5302,35.71851 -333.3129,138.00041"
         id="path9206" /><path
         style="font-variation-settings:normal;opacity:1;fill:none;fill-opacity:1;stroke:#5500d4;stroke-width:3.23671;stroke-linecap:butt;stroke-linejoin:miter;stroke-miterlimit:4;stroke-dasharray:6.47342, 3.23671;stroke-dashoffset:0;stroke-opacity:1;stop-color:#000000;stop-opacity:1"
         d="M 1742.5097,89.832857 V 322.92797"
         id="path9082" /><path
         style="font-variation-settings:normal;opacity:1;vector-effect:none;fill:none;fill-opacity:1;fill-rule:evenodd;stroke:#0000aa;stroke-width:3.23528;stroke-linecap:butt;stroke-linejoin:miter;stroke-miterlimit:4;stroke-dasharray:12.9411, 12.9411;stroke-dashoffset:0;stroke-opacity:1;-inkscape-stroke:none;stop-color:#000000;stop-opacity:1"
         d="m 1277.8762,472.62485 c -0.8081,-149.9861 233.5553,-260.04105 464.6335,-272.21466"
         id="path13704" /><path
         style="font-variation-settings:normal;opacity:1;vector-effect:none;fill:none;fill-opacity:1;stroke:#5500d4;stroke-width:3.23671;stroke-linecap:butt;stroke-linejoin:miter;stroke-miterlimit:4;stroke-dasharray:6.47342, 3.23671;stroke-dashoffset:0;stroke-opacity:1;-inkscape-stroke:none;stop-color:#000000;stop-opacity:1"
         d="M 1742.5097,322.92797 V 778.50913"
         id="path9086"
         sodipodi:nodetypes="cc" /><path
         style="font-variation-settings:normal;opacity:1;vector-effect:none;fill:none;fill-opacity:1;fill-rule:evenodd;stroke:#0000aa;stroke-width:3.23671;stroke-linecap:butt;stroke-linejoin:miter;stroke-miterlimit:4;stroke-dasharray:none;stroke-dashoffset:0;stroke-opacity:1;-inkscape-stroke:none;stop-color:#000000;stop-opacity:1"
         d="M 1489.5763,704.29674 C 1365.6744,664.6504 1277.2201,575.68674 1277.8762,472.62485"
         id="path9242" /><path
         style="font-variation-settings:normal;opacity:1;vector-effect:none;fill:none;fill-opacity:1;fill-rule:evenodd;stroke:#905400;stroke-width:3.23671;stroke-linecap:butt;stroke-linejoin:miter;stroke-miterlimit:4;stroke-dasharray:none;stroke-dashoffset:0;stroke-opacity:1;-inkscape-stroke:none;stop-color:#000000;stop-opacity:1"
         d="m 1944.5814,446.4238 c 0,147.51628 -157.3409,248.34231 -340.8159,261.53676 -43.3715,3.11902 -70.0109,2.84584 -114.1892,-3.66382"
         id="path13700" /><path
         style="font-variation-settings:normal;opacity:1;vector-effect:none;fill:none;fill-opacity:1;fill-rule:evenodd;stroke:#905400;stroke-width:3.23528;stroke-linecap:butt;stroke-linejoin:miter;stroke-miterlimit:4;stroke-dasharray:12.9411, 12.9411;stroke-dashoffset:0;stroke-opacity:1;-inkscape-stroke:none;stop-color:#000000;stop-opacity:1"
         d="m 1742.5097,200.41019 c 119.4805,40.63599 202.0717,135.45586 202.0717,246.01359 v 2e-5"
         id="path9204" /><path
         style="fill:none;fill-rule:evenodd;stroke:#905400;stroke-width:3.23528;stroke-dasharray:12.9411, 12.9411;stroke-dashoffset:0"
         d="m 1944.0515,575.95026 c 0,-56.7407 -82.7096,-105.48325 -200.9353,-126.68825"
         id="path11514" /><path
         style="fill:none;fill-rule:evenodd;stroke:#905400;stroke-width:3.23671"
         d="m 1488.8877,704.07578 c 37.3466,5.99262 79.3927,9.8749 121.851,9.87489 184.0836,-3e-5 333.3128,-61.78488 333.3128,-138.00041"
         id="path11510" /><path
         style="fill:none;fill-rule:evenodd;stroke:#0000aa;stroke-width:3.23671;stroke-opacity:1"
         d="m 1277.4258,575.95026 c 0,58.63668 86.8874,108.13634 211.4619,128.12552"
         id="path11518" /><g
         id="g13882"
         transform="matrix(-0.8660254,-0.5,-0.5,0.8660254,3768.1498,1210.1251)"
         style="fill:#0000aa"><g
           id="path13884"
           transform="matrix(1.1531167,-0.54005155,0.54005155,1.1531167,-745.35475,1195.8512)"
           style="stroke-width:1.71097;fill:#0000aa"><g
             id="g14473"
             style="fill:#0000aa"><path
               style="color:#000000;fill:#0000aa;fill-rule:evenodd;stroke-width:1.27098pt"
               d="m 2420.947,696.74164 c -5.0502,0.82871 -11.9546,2.99893 -15.6632,5.68196 0,0 1.0256,-6.39166 4.4778,-7.47677 -2.9394,-2.11072 -1.9138,-8.50238 -1.9138,-8.50238 2.683,3.70863 8.5618,7.93007 13.0992,10.29719 z"
               id="path13888" /><path
               style="color:#000000;fill:#0000aa;fill-rule:evenodd;stroke-width:1.71097"
               d="m 2406.8642,683.78031 -0.3345,2.5835 c 0,0 -0.2261,1.70599 -0.047,3.6984 0.1368,1.52009 0.4866,3.298 1.5176,4.65176 -1.3422,1.04587 -2.1349,2.67615 -2.6549,4.11103 -0.6816,1.88075 -0.8983,3.58723 -0.8983,3.58723 l -0.3346,2.58351 2.0625,-1.59011 c 3.3413,-2.5739 10.1513,-4.99244 15.033,-5.94514 l 3.1781,-0.62128 -2.9148,-1.40904 c -4.477,-2.16689 -10.443,-6.2441 -13.0169,-9.58543 z m 1.7762,5.38846 c 2.6758,2.65296 6.2562,5.00665 9.6822,6.88569 -3.7916,0.94253 -7.8556,2.30204 -11.1193,4.18404 0.093,-0.32661 0.043,-0.32518 0.1711,-0.67733 0.5893,-1.62617 1.5829,-3.19273 2.7484,-3.59798 l 2.0381,-0.71007 -1.7909,-1.20448 c -1.0235,-0.68926 -1.5829,-2.45736 -1.7378,-4.18009 -0.033,-0.37357 0.015,-0.35988 0.01,-0.69977 z"
               id="path13890" /></g><g
             id="g14479"
             transform="rotate(13.804232,2308.6719,599.31084)"
             style="fill:#0000aa"><path
               style="color:#000000;fill:#0000aa;fill-rule:evenodd;stroke-width:1.27098pt"
               d="m 2420.947,696.74164 c -5.0502,0.82871 -11.9546,2.99893 -15.6632,5.68196 0,0 1.0256,-6.39166 4.4778,-7.47677 -2.9394,-2.11072 -1.9138,-8.50238 -1.9138,-8.50238 2.683,3.70863 8.5618,7.93007 13.0992,10.29719 z"
               id="path14475" /><path
               style="color:#000000;fill:#0000aa;fill-rule:evenodd;stroke-width:1.71097"
               d="m 2406.8642,683.78031 -0.3345,2.5835 c 0,0 -0.2261,1.70599 -0.047,3.6984 0.1368,1.52009 0.4866,3.298 1.5176,4.65176 -1.3422,1.04587 -2.1349,2.67615 -2.6549,4.11103 -0.6816,1.88075 -0.8983,3.58723 -0.8983,3.58723 l -0.3346,2.58351 2.0625,-1.59011 c 3.3413,-2.5739 10.1513,-4.99244 15.033,-5.94514 l 3.1781,-0.62128 -2.9148,-1.40904 c -4.477,-2.16689 -10.443,-6.2441 -13.0169,-9.58543 z m 1.7762,5.38846 c 2.6758,2.65296 6.2562,5.00665 9.6822,6.88569 -3.7916,0.94253 -7.8556,2.30204 -11.1193,4.18404 0.093,-0.32661 0.043,-0.32518 0.1711,-0.67733 0.5893,-1.62617 1.5829,-3.19273 2.7484,-3.59798 l 2.0381,-0.71007 -1.7909,-1.20448 c -1.0235,-0.68926 -1.5829,-2.45736 -1.7378,-4.18009 -0.033,-0.37357 0.015,-0.35988 0.01,-0.69977 z"
               id="path14477" /></g></g></g><g
         id="g14556"
         transform="matrix(-0.93755705,0.85839449,-0.84558605,-0.95175861,4511.629,-498.76221)"
         style="stroke-width:1.71263"><g
           id="g14554"
           style="stroke-width:1.71263"><path
             style="color:#000000;fill:#905400;fill-rule:evenodd;stroke-width:1.27222pt;-inkscape-stroke:none"
             d="m 2112.4693,762.84084 c 4.7265,-1.96244 10.951,-5.65514 13.9472,-9.11568 0,0 0.4644,6.45675 -2.6479,8.3031 3.3444,1.38202 3.8088,7.83876 3.8088,7.83876 -3.4606,-2.9962 -10.1495,-5.76025 -15.1081,-7.02618 z"
             id="path14550" /><path
             style="color:#000000;fill:#905400;fill-rule:evenodd;stroke-width:1.71263;-inkscape-stroke:none"
             d="m 2127.3066,751.04883 -1.705,1.9707 c -2.7608,3.18866 -8.9533,6.91695 -13.5469,8.82422 l -2.9883,1.24219 3.1367,0.80078 c 4.8192,1.23034 11.4793,4.03607 14.668,6.79687 l 1.9687,1.70313 -0.1855,-2.59766 c 0,0 -0.1204,-1.71616 -0.6934,-3.63281 -0.437,-1.46212 -1.1341,-3.13494 -2.414,-4.25586 1.1061,-1.2925 1.556,-3.04912 1.7793,-4.55859 0.2927,-1.97892 0.166,-3.69336 0.166,-3.69336 z m -2.0839,5.27929 c -0.026,0.33896 0.024,0.32823 -0.031,0.69922 -0.2531,1.71105 -0.9114,3.44268 -1.9726,4.07227 l -1.8555,1.10156 1.9941,0.82422 c 1.1404,0.47125 2.0398,2.09278 2.5352,3.75 0.1071,0.3585 0.059,0.35445 0.1328,0.68555 -3.1503,-2.06518 -7.1284,-3.65662 -10.8594,-4.81446 3.5262,-1.67948 7.2345,-3.82422 10.0567,-6.31836 z"
             id="path14552" /></g></g><g
         id="g14596"
         transform="matrix(-1.0354381,0.73737525,-0.72292718,-1.0479678,4652.4564,-124.97856)"
         style="stroke-width:1.71263"><g
           id="g14594"
           style="stroke-width:1.71263"><path
             style="color:#000000;fill:#905400;fill-rule:evenodd;stroke-width:1.27222pt;-inkscape-stroke:none"
             d="m 2112.4693,762.84084 c 4.7265,-1.96244 10.951,-5.65514 13.9472,-9.11568 0,0 0.4644,6.45675 -2.6479,8.3031 3.3444,1.38202 3.8088,7.83876 3.8088,7.83876 -3.4606,-2.9962 -10.1495,-5.76025 -15.1081,-7.02618 z"
             id="path14590" /><path
             style="color:#000000;fill:#905400;fill-rule:evenodd;stroke-width:1.71263;-inkscape-stroke:none"
             d="m 2127.3066,751.04883 -1.705,1.9707 c -2.7608,3.18866 -8.9533,6.91695 -13.5469,8.82422 l -2.9883,1.24219 3.1367,0.80078 c 4.8192,1.23034 11.4793,4.03607 14.668,6.79687 l 1.9687,1.70313 -0.1855,-2.59766 c 0,0 -0.1204,-1.71616 -0.6934,-3.63281 -0.437,-1.46212 -1.1341,-3.13494 -2.414,-4.25586 1.1061,-1.2925 1.556,-3.04912 1.7793,-4.55859 0.2927,-1.97892 0.166,-3.69336 0.166,-3.69336 z m -2.0839,5.27929 c -0.026,0.33896 0.024,0.32823 -0.031,0.69922 -0.2531,1.71105 -0.9114,3.44268 -1.9726,4.07227 l -1.8555,1.10156 1.9941,0.82422 c 1.1404,0.47125 2.0398,2.09278 2.5352,3.75 0.1071,0.3585 0.059,0.35445 0.1328,0.68555 -3.1503,-2.06518 -7.1284,-3.65662 -10.8594,-4.81446 3.5262,-1.67948 7.2345,-3.82422 10.0567,-6.31836 z"
             id="path14592" /></g></g><g
         id="g14632"
         transform="matrix(1.279485,-0.42494929,0.40022095,1.2050302,-79.016158,920.91633)"
         style="stroke-width:1.66509;fill:#0000aa;fill-opacity:1"><g
           id="path14634"
           style="stroke-width:1.66509;fill:#0000aa;fill-opacity:1"><path
             style="color:#000000;fill:#0000aa;fill-rule:evenodd;stroke-width:1.23636pt;-inkscape-stroke:none;fill-opacity:1"
             d="m 1267.2636,-109.35674 c -4.7611,1.8707 -11.0525,5.44191 -14.1131,8.84292 0,0 -0.3404,-6.4616 2.8053,-8.24721 -3.3159,-1.44519 -3.6563,-7.90679 -3.6563,-7.90679 3.401,3.06059 10.0328,5.95098 14.9641,7.31108 z"
             id="path14638" /><path
             style="color:#000000;fill:#0000aa;fill-rule:evenodd;stroke-width:1.66509;-inkscape-stroke:none;fill-opacity:1"
             d="m 1251.0859,-119.21094 0.1368,2.59961 c 0,0 0.087,1.7181 0.623,3.64453 0.4087,1.46944 1.0726,3.15606 2.3301,4.30078 -1.1297,1.27045 -1.6132,3.01563 -1.8653,4.51954 -0.3304,1.97207 -0.2363,3.68945 -0.2363,3.68945 l 0.1367,2.599608 1.7403,-1.935547 c 2.8201,-3.133801 9.0797,-6.742431 13.707,-8.560551 l 3.0117,-1.18359 -3.1191,-0.85937 c -4.7927,-1.32187 -11.3955,-4.25215 -14.5293,-7.07227 z m 2.7188,4.97852 c 3.1086,2.12395 7.0536,3.78912 10.7598,5.01758 -3.5566,1.6111 -7.3037,3.68419 -10.1719,6.12304 0.032,-0.33796 -0.017,-0.32791 0.045,-0.69726 0.2857,-1.70513 0.9781,-3.42433 2.0508,-4.03321 l 1.875,-1.0664 -1.9766,-0.86133 c -1.1307,-0.4928 -1.9996,-2.12926 -2.4629,-3.79492 -0.1002,-0.36022 -0.052,-0.35528 -0.1191,-0.6875 z"
             id="path14640" /></g></g><g
         id="g14669"
         transform="matrix(0.92269583,0.87434931,-0.8894231,0.91092632,576.89419,-2284.5622)"
         style="stroke-width:1.71263"><g
           id="g14667"
           style="stroke-width:1.71263"><path
             style="color:#000000;fill:#905400;fill-rule:evenodd;stroke-width:1.27222pt;-inkscape-stroke:none"
             d="m 2112.4693,762.84084 c 4.7265,-1.96244 10.951,-5.65514 13.9472,-9.11568 0,0 0.4644,6.45675 -2.6479,8.3031 3.3444,1.38202 3.8088,7.83876 3.8088,7.83876 -3.4606,-2.9962 -10.1495,-5.76025 -15.1081,-7.02618 z"
             id="path14663" /><path
             style="color:#000000;fill:#905400;fill-rule:evenodd;stroke-width:1.71263;-inkscape-stroke:none"
             d="m 2127.3066,751.04883 -1.705,1.9707 c -2.7608,3.18866 -8.9533,6.91695 -13.5469,8.82422 l -2.9883,1.24219 3.1367,0.80078 c 4.8192,1.23034 11.4793,4.03607 14.668,6.79687 l 1.9687,1.70313 -0.1855,-2.59766 c 0,0 -0.1204,-1.71616 -0.6934,-3.63281 -0.437,-1.46212 -1.1341,-3.13494 -2.414,-4.25586 1.1061,-1.2925 1.556,-3.04912 1.7793,-4.55859 0.2927,-1.97892 0.166,-3.69336 0.166,-3.69336 z m -2.0839,5.27929 c -0.026,0.33896 0.024,0.32823 -0.031,0.69922 -0.2531,1.71105 -0.9114,3.44268 -1.9726,4.07227 l -1.8555,1.10156 1.9941,0.82422 c 1.1404,0.47125 2.0398,2.09278 2.5352,3.75 0.1071,0.3585 0.059,0.35445 0.1328,0.68555 -3.1503,-2.06518 -7.1284,-3.65662 -10.8594,-4.81446 3.5262,-1.67948 7.2345,-3.82422 10.0567,-6.31836 z"
             id="path14665" /></g></g><path
         style="font-variation-settings:normal;opacity:1;fill:none;fill-opacity:1;stroke:#000000;stroke-width:3.23671;stroke-linecap:butt;stroke-linejoin:miter;stroke-miterlimit:4;stroke-dasharray:none;stroke-dashoffset:0;stroke-opacity:1;stop-color:#000000;stop-opacity:1"
         d="M 1944.0515,217.29124 V 905.30587"
         id="path8903" /><path
         id="path18792"
         style="fill:url(#radialGradient18916);fill-opacity:1.0;fill-rule:evenodd;stroke:none;stroke-width:3.23671"
         d="M 1944.0515,905.30623 A 333.31277,138.00041 0 0 1 1610.7387,1043.3067 333.31277,138.00041 0 0 1 1277.4258,905.30623 333.31277,138.00041 0 0 1 1610.7387,767.30582 333.31277,138.00041 0 0 1 1944.0515,905.30623 Z" /><path
         style="fill:none;fill-rule:evenodd;stroke:#000000;stroke-width:3.23671;stroke-dasharray:4.3572, 4.3572;stroke-dashoffset:0"
         d="m 1277.4258,905.30588 c 0,-76.21553 149.2293,-138.00042 333.3129,-138.00041 184.0836,-10e-6 333.3128,61.78488 333.3128,138.00041"
         id="path8942" /><path
         style="font-variation-settings:normal;opacity:1;fill:none;fill-opacity:1;stroke:#000000;stroke-width:3.23671;stroke-linecap:butt;stroke-linejoin:miter;stroke-miterlimit:4;stroke-dasharray:none;stroke-dashoffset:0;stroke-opacity:1;stop-color:#000000;stop-opacity:1"
         d="m 1277.4258,217.29124 10e-5,688.01463"
         id="path8901" /><path
         style="font-variation-settings:normal;opacity:1;fill:#783948;fill-opacity:1;stroke:#474747;stroke-width:2.15735;stroke-linecap:butt;stroke-linejoin:miter;stroke-miterlimit:4;stroke-dasharray:none;stroke-dashoffset:0;stroke-opacity:1;stop-color:#000000;stop-opacity:1"
         d="M 1488.8877,345.75879 V 1033.7939"
         id="path9154" /><circle
         style="font-variation-settings:normal;opacity:1;vector-effect:none;fill:#ff0000;fill-opacity:1;fill-rule:evenodd;stroke:none;stroke-width:3.52406;stroke-linecap:butt;stroke-linejoin:miter;stroke-miterlimit:4;stroke-dasharray:none;stroke-dashoffset:0;stroke-opacity:1;-inkscape-stroke:none;paint-order:fill stroke markers;stop-color:#000000;stop-opacity:1"
         id="path9324"
         cx="1488.8877"
         cy="704.07581"
         r="7.018198" /><text
         xml:space="preserve"
         style="font-size:32px;line-height:1.25;font-family:'Century Schoolbook';-inkscape-font-specification:'Century Schoolbook';font-variant-ligatures:none"
         x="1491.799"
         y="698.5498"
         id="text409"><tspan
           sodipodi:role="line"
           id="tspan407"
           x="1491.799"
           y="698.5498">$p$</tspan></text><g
         id="g11508"
         transform="matrix(1.3455844,-0.08406086,0.07916924,1.2672832,-142.30122,686.18434)"
         style="fill:#0000aa;fill-opacity:1;stroke-width:1.66509"><g
           id="g11506"
           style="fill:#0000aa;fill-opacity:1;stroke-width:1.66509"><path
             style="color:#000000;fill:#0000aa;fill-opacity:1;fill-rule:evenodd;stroke-width:1.23636pt;-inkscape-stroke:none"
             d="m 1267.2636,-109.35674 c -4.7611,1.8707 -11.0525,5.44191 -14.1131,8.84292 0,0 -0.3404,-6.4616 2.8053,-8.24721 -3.3159,-1.44519 -3.6563,-7.90679 -3.6563,-7.90679 3.401,3.06059 10.0328,5.95098 14.9641,7.31108 z"
             id="path11502" /><path
             style="color:#000000;fill:#0000aa;fill-opacity:1;fill-rule:evenodd;stroke-width:1.66509;-inkscape-stroke:none"
             d="m 1251.0859,-119.21094 0.1368,2.59961 c 0,0 0.087,1.7181 0.623,3.64453 0.4087,1.46944 1.0726,3.15606 2.3301,4.30078 -1.1297,1.27045 -1.6132,3.01563 -1.8653,4.51954 -0.3304,1.97207 -0.2363,3.68945 -0.2363,3.68945 l 0.1367,2.599608 1.7403,-1.935547 c 2.8201,-3.133801 9.0797,-6.742431 13.707,-8.560551 l 3.0117,-1.18359 -3.1191,-0.85937 c -4.7927,-1.32187 -11.3955,-4.25215 -14.5293,-7.07227 z m 2.7188,4.97852 c 3.1086,2.12395 7.0536,3.78912 10.7598,5.01758 -3.5566,1.6111 -7.3037,3.68419 -10.1719,6.12304 0.032,-0.33796 -0.017,-0.32791 0.045,-0.69726 0.2857,-1.70513 0.9781,-3.42433 2.0508,-4.03321 l 1.875,-1.0664 -1.9766,-0.86133 c -1.1307,-0.4928 -1.9996,-2.12926 -2.4629,-3.79492 -0.1002,-0.36022 -0.052,-0.35528 -0.1191,-0.6875 z"
             id="path11504" /></g></g><path
         style="fill:none;fill-rule:evenodd;stroke:#000000;stroke-width:3.23671"
         d="m 1944.0515,905.30588 c 0,76.21553 -149.2292,138.00042 -333.3128,138.00042 -184.0836,0 -333.3129,-61.78489 -333.3129,-138.00042"
         id="ellipse8835" /><path
         id="ellipse8833"
         style="fill:none;fill-rule:evenodd;stroke:#000000;stroke-width:3.23671"
         d="M 1944.0515,217.29124 A 333.31277,138.00041 0 0 1 1610.7387,355.29165 333.31277,138.00041 0 0 1 1277.4258,217.29124 333.31277,138.00041 0 0 1 1610.7387,79.29083 333.31277,138.00041 0 0 1 1944.0515,217.29124 Z" /><g
         id="g11654"
         transform="matrix(1.0624961,0.69782258,-0.71473657,1.053571,165.46438,-1791.0528)"
         style="stroke-width:1.71263"><g
           id="g11652"
           style="stroke-width:1.71263"><path
             style="color:#000000;fill:#905400;fill-rule:evenodd;stroke-width:1.27222pt;-inkscape-stroke:none"
             d="m 2112.4693,762.84084 c 4.7265,-1.96244 10.951,-5.65514 13.9472,-9.11568 0,0 0.4644,6.45675 -2.6479,8.3031 3.3444,1.38202 3.8088,7.83876 3.8088,7.83876 -3.4606,-2.9962 -10.1495,-5.76025 -15.1081,-7.02618 z"
             id="path11648" /><path
             style="color:#000000;fill:#905400;fill-rule:evenodd;stroke-width:1.71263;-inkscape-stroke:none"
             d="m 2127.3066,751.04883 -1.705,1.9707 c -2.7608,3.18866 -8.9533,6.91695 -13.5469,8.82422 l -2.9883,1.24219 3.1367,0.80078 c 4.8192,1.23034 11.4793,4.03607 14.668,6.79687 l 1.9687,1.70313 -0.1855,-2.59766 c 0,0 -0.1204,-1.71616 -0.6934,-3.63281 -0.437,-1.46212 -1.1341,-3.13494 -2.414,-4.25586 1.1061,-1.2925 1.556,-3.04912 1.7793,-4.55859 0.2927,-1.97892 0.166,-3.69336 0.166,-3.69336 z m -2.0839,5.27929 c -0.026,0.33896 0.024,0.32823 -0.031,0.69922 -0.2531,1.71105 -0.9114,3.44268 -1.9726,4.07227 l -1.8555,1.10156 1.9941,0.82422 c 1.1404,0.47125 2.0398,2.09278 2.5352,3.75 0.1071,0.3585 0.059,0.35445 0.1328,0.68555 -3.1503,-2.06518 -7.1284,-3.65662 -10.8594,-4.81446 3.5262,-1.67948 7.2345,-3.82422 10.0567,-6.31836 z"
             id="path11650" /></g></g></g></g></svg>
