<?xml version="1.0" encoding="UTF-8" standalone="no"?>
<!-- Created with Inkscape (http://www.inkscape.org/) -->

<svg
   width="65.254219mm"
   height="110.12438mm"
   viewBox="0 0 65.254219 110.12438"
   version="1.1"
   id="svg5"
   inkscape:version="1.2 (1:1.2.1+202207142221+cd75a1ee6d)"
   sodipodi:docname="DistanceFromLink.svg"
   xmlns:inkscape="http://www.inkscape.org/namespaces/inkscape"
   xmlns:sodipodi="http://sodipodi.sourceforge.net/DTD/sodipodi-0.dtd"
   xmlns="http://www.w3.org/2000/svg"
   xmlns:svg="http://www.w3.org/2000/svg">
  <sodipodi:namedview
     id="namedview7"
     pagecolor="#ffffff"
     bordercolor="#999999"
     borderopacity="1"
     inkscape:showpageshadow="0"
     inkscape:pageopacity="0"
     inkscape:pagecheckerboard="0"
     inkscape:deskcolor="#d1d1d1"
     inkscape:document-units="mm"
     showgrid="false"
     inkscape:zoom="1"
     inkscape:cx="65.5"
     inkscape:cy="205.5"
     inkscape:window-width="1600"
     inkscape:window-height="832"
     inkscape:window-x="0"
     inkscape:window-y="32"
     inkscape:window-maximized="1"
     inkscape:current-layer="layer1" />
  <defs
     id="defs2" />
  <g
     inkscape:label="Layer 1"
     inkscape:groupmode="layer"
     id="layer1"
     transform="translate(-74.574674,-137.00326)">
    <path
       style="opacity:1;vector-effect:none;fill:none;fill-rule:evenodd;stroke:#800000;stroke-width:0.932408;stroke-opacity:1;paint-order:fill stroke markers;stop-color:#000000;stop-opacity:1"
       d="m 80.552414,185.72286 c 2.792052,2.8884 2.768377,7.47726 -0.05333,10.3367"
       id="path1837" />
    <path
       style="opacity:1;vector-effect:none;fill:none;fill-rule:evenodd;stroke:#800000;stroke-width:0.932408;stroke-linecap:square;paint-order:fill stroke markers;stop-color:#000000;stop-opacity:1"
       d="m -127.67602,160.58647 59.26386,17.0164"
       transform="rotate(-60)"
       id="path453" />
    <path
       style="opacity:1;vector-effect:none;fill:none;fill-rule:evenodd;stroke:#800000;stroke-width:0.932408;stroke-linecap:square;paint-order:fill stroke markers;stop-color:#000000;stop-opacity:1"
       d="m -143.03311,220.30905 15.35709,-59.72258"
       transform="rotate(-60)"
       id="path234" />
    <path
       style="opacity:1;vector-effect:none;fill:none;fill-rule:evenodd;stroke:#0088aa;stroke-width:0.932408;paint-order:fill stroke markers;stop-color:#000000;stop-opacity:1"
       d="m -65.949303,160.58647 c -10e-7,22.97498 -12.760063,44.04888 -33.118544,54.69698 -20.358483,10.6481 -44.946223,9.10823 -63.817113,-3.99671"
       transform="rotate(-60)"
       id="path447" />
    <g
       id="g1426"
       transform="translate(3.1596128,-21.741178)">
      <g
         id="path1428">
        <path
           style="color:#000000;fill:#800000;fill-rule:evenodd;stroke-width:0.466204pt;-inkscape-stroke:none"
           d="m 95.930391,235.98267 c -1.325224,-0.64595 -3.309725,-1.28523 -4.628282,-1.2719 0,0 1.305224,-1.33189 2.297475,-1.01225 -0.339639,-0.98558 0.965584,-2.31747 0.965584,-2.31747 0.01333,1.31856 0.692611,3.28973 1.365223,4.60162 z"
           id="path1432" />
        <path
           style="color:#000000;fill:#800000;fill-rule:evenodd;-inkscape-stroke:none"
           d="m 94.869141,230.62695 -0.525391,0.53711 c 0,0 -0.347887,0.35251 -0.652344,0.8418 -0.242196,0.38923 -0.41039,0.88957 -0.386719,1.40234 -0.513442,-0.0136 -1.01008,0.16587 -1.394531,0.41602 -0.483028,0.31429 -0.830078,0.66992 -0.830078,0.66992 l -0.525391,0.53516 0.75,-0.008 c 1.214961,-0.0123 3.202263,0.61245 4.490235,1.24024 l 0.83789,0.4082 -0.425781,-0.82812 C 95.553326,234.5666 94.887283,232.59174 94.875,231.37677 Z m -0.480469,1.48633 c 0.143845,1.09528 0.511134,2.26814 0.986328,3.32422 -1.065885,-0.45399 -2.247293,-0.79442 -3.345703,-0.91602 0.100462,-0.0796 0.09265,-0.0937 0.21875,-0.17578 0.417645,-0.27174 0.917511,-0.46055 1.255859,-0.35156 l 0.591797,0.19141 -0.203125,-0.58789 c -0.115813,-0.33608 0.06293,-0.84062 0.326172,-1.26368 0.07883,-0.12668 0.09292,-0.11923 0.169922,-0.2207 z"
           id="path1434" />
      </g>
    </g>
    <g
       id="g1475"
       transform="translate(0.79128186,21.473588)">
      <g
         id="path1477">
        <path
           style="color:#000000;fill:#800000;fill-rule:evenodd;stroke-width:0.466204pt;-inkscape-stroke:none"
           d="m 98.771871,146.1057 c -0.682689,1.30667 -1.377118,3.27256 -1.400598,4.59097 0,0 -1.294934,-1.3419 -0.94772,-2.32484 -0.994681,0.312 -2.289615,-1.0299 -2.289615,-1.0299 1.318415,0.0235 3.307777,-0.6005 4.637933,-1.23623 z"
           id="path1481" />
        <path
           style="color:#000000;fill:#800000;fill-rule:evenodd;-inkscape-stroke:none"
           d="m 99.478516,145.42383 -0.839844,0.40234 c -1.292767,0.61786 -3.285177,1.22673 -4.5,1.20508 l -0.75,-0.0137 0.521484,0.54101 c 0,0 0.343624,0.35583 0.824219,0.67383 0.38232,0.25297 0.87738,0.43709 1.390625,0.42774 -0.02719,0.51216 0.137942,1.01351 0.376953,1.40429 0.300682,0.49162 0.646485,0.84766 0.646484,0.84766 l 0.519532,0.54101 0.01367,-0.75 c 0.02164,-1.21482 0.701736,-3.18318 1.365234,-4.45312 z m -1.267579,1.22265 c -0.483098,1.05209 -0.85746,2.22265 -1.009765,3.31641 -0.07634,-0.10218 -0.08998,-0.0951 -0.167969,-0.22266 -0.259981,-0.42507 -0.434803,-0.93045 -0.316406,-1.26562 l 0.207031,-0.58594 -0.59375,0.1875 c -0.339176,0.10639 -0.836412,-0.0864 -1.251953,-0.36133 -0.125251,-0.0829 -0.117069,-0.0975 -0.216797,-0.17773 1.098599,-0.11325 2.280915,-0.44524 3.349609,-0.89063 z"
           id="path1483" />
      </g>
    </g>
    <g
       id="g1654"
       transform="rotate(180,153.93593,194.44504)">
      <g
         id="path1656">
        <path
           style="color:#000000;fill:#0088aa;fill-rule:evenodd;stroke-width:0.466204pt;-inkscape-stroke:none"
           d="m 170.93375,196.23179 c -0.4075,-1.41683 -1.26136,-3.31889 -2.15409,-4.28936 0,0 1.86319,0.0777 2.29012,1.02877 0.50467,-0.91216 2.36787,-0.83443 2.36787,-0.83443 -0.97047,0.89273 -1.9798,2.71706 -2.5039,4.09502 z"
           id="path1660" />
        <path
           style="color:#000000;fill:#0088aa;fill-rule:evenodd;-inkscape-stroke:none"
           d="m 168.04297,191.60156 0.50781,0.55078 c 0.82259,0.89423 1.68794,2.78902 2.08399,4.16602 l 0.25781,0.89453 0.33203,-0.87109 c 0.50937,-1.33923 1.52961,-3.15398 2.42383,-3.97657 l 0.55273,-0.50781 -0.75,-0.0312 c 0,0 -0.49522,-0.0214 -1.0625,0.0801 -0.45103,0.0807 -0.93577,0.2899 -1.30078,0.65039 -0.3337,-0.39008 -0.80116,-0.63785 -1.24414,-0.75586 -0.55685,-0.14835 -1.05078,-0.16797 -1.05078,-0.16797 z m 1.36523,0.75391 c 0.12649,0.0213 0.13183,0.006 0.27735,0.0449 0.48147,0.12827 0.95598,0.37295 1.10156,0.69727 l 0.25391,0.56836 0.30078,-0.54493 c 0.17208,-0.31103 0.66576,-0.51579 1.15625,-0.60351 0.14695,-0.0263 0.15036,-0.0108 0.27734,-0.0215 -0.71725,0.8402 -1.34428,1.89697 -1.81055,2.95703 -0.37641,-1.09506 -0.912,-2.20096 -1.55664,-3.09765 z"
           id="path1662" />
      </g>
    </g>
    <text
       xml:space="preserve"
       style="font-size:4.23333px;line-height:1.25;font-family:'Century Schoolbook';-inkscape-font-specification:'Century Schoolbook, Normal';font-variant-ligatures:none;stroke-width:0.264583"
       x="109.18866"
       y="235.29607"
       id="text1725"><tspan
         sodipodi:role="line"
         id="tspan1723"
         style="stroke-width:0.264583"
         x="109.18866"
         y="235.29607">$X$</tspan></text>
    <text
       xml:space="preserve"
       style="font-size:4.23333px;line-height:1.25;font-family:'Century Schoolbook';-inkscape-font-specification:'Century Schoolbook, Normal';font-variant-ligatures:none;stroke-width:0.264583"
       x="91.829758"
       y="148.53922"
       id="text1729"><tspan
         sodipodi:role="line"
         id="tspan1727"
         style="stroke-width:0.264583"
         x="91.829758"
         y="148.53922">$\gamma(t)$</tspan></text>
    <circle
       style="font-variation-settings:normal;opacity:1;vector-effect:none;fill:#ff0000;fill-opacity:1;fill-rule:evenodd;stroke:none;stroke-width:0.932409;stroke-linecap:butt;stroke-linejoin:miter;stroke-miterlimit:4;stroke-dasharray:none;stroke-dashoffset:0;stroke-opacity:1;-inkscape-stroke:none;paint-order:fill stroke markers;stop-color:#000000;stop-opacity:1"
       id="path1833"
       cx="119.60252"
       cy="148.04811"
       r="1.5" />
    <circle
       style="font-variation-settings:normal;opacity:1;vector-effect:none;fill:#ff0000;fill-opacity:1;fill-rule:evenodd;stroke:none;stroke-width:0.932409;stroke-linecap:butt;stroke-linejoin:miter;stroke-miterlimit:4;stroke-dasharray:none;stroke-dashoffset:0;stroke-opacity:1;-inkscape-stroke:none;paint-order:fill stroke markers;stop-color:#000000;stop-opacity:1"
       id="circle1835"
       cx="119.27668"
       cy="234.02483"
       r="1.5" />
    <text
       xml:space="preserve"
       style="font-size:4.23333px;line-height:1.25;font-family:'Century Schoolbook';-inkscape-font-specification:'Century Schoolbook, Normal';font-variant-ligatures:none;stroke-width:0.264583"
       x="83.3592"
       y="192.16417"
       id="text2969"><tspan
         sodipodi:role="line"
         id="tspan2967"
         style="stroke-width:0.264583"
         x="83.3592"
         y="192.16417">$\theta$</tspan></text>
  </g>
</svg>
