<?xml version="1.0" encoding="UTF-8" standalone="no"?>
<!-- Created with Inkscape (http://www.inkscape.org/) -->

<svg
   width="91.126122mm"
   height="91.144638mm"
   viewBox="0 0 91.126123 91.144639"
   version="1.1"
   id="svg5"
   inkscape:version="1.2 (1:1.2.1+202207142221+cd75a1ee6d)"
   sodipodi:docname="Example-CutLocus-CircleThreePoints.svg"
   xmlns:inkscape="http://www.inkscape.org/namespaces/inkscape"
   xmlns:sodipodi="http://sodipodi.sourceforge.net/DTD/sodipodi-0.dtd"
   xmlns="http://www.w3.org/2000/svg"
   xmlns:svg="http://www.w3.org/2000/svg">
  <sodipodi:namedview
     id="namedview7"
     pagecolor="#ffffff"
     bordercolor="#999999"
     borderopacity="1"
     inkscape:showpageshadow="0"
     inkscape:pageopacity="0"
     inkscape:pagecheckerboard="0"
     inkscape:deskcolor="#d1d1d1"
     inkscape:document-units="mm"
     showgrid="false"
     inkscape:zoom="2"
     inkscape:cx="109"
     inkscape:cy="189.75"
     inkscape:window-width="1600"
     inkscape:window-height="832"
     inkscape:window-x="0"
     inkscape:window-y="32"
     inkscape:window-maximized="1"
     inkscape:current-layer="layer1" />
  <defs
     id="defs2">
    <marker
       style="overflow:visible"
       id="Arrow5"
       refX="0"
       refY="0"
       orient="auto-start-reverse"
       inkscape:stockid="Arrow5"
       markerWidth="4.9962473"
       markerHeight="5.6090002"
       viewBox="0 0 5.8874262 6.6094758"
       inkscape:isstock="true"
       inkscape:collect="always"
       preserveAspectRatio="xMidYMid">
      <path
         transform="scale(0.5)"
         style="fill:context-stroke;fill-rule:evenodd;stroke:context-stroke;stroke-width:1pt"
         d="m 6,0 c -3,1 -7,3 -9,5 0,0 0,-4 2,-5 -2,-1 -2,-5 -2,-5 2,2 6,4 9,5 z"
         id="path8893" />
    </marker>
  </defs>
  <g
     inkscape:label="Layer 1"
     inkscape:groupmode="layer"
     id="layer1"
     transform="translate(-67.721306,-116.18356)">
    <path
       style="opacity:1;vector-effect:none;fill:none;fill-rule:evenodd;stroke:#a05a2c;stroke-width:0.625547;paint-order:fill stroke markers;stop-color:#000000;stop-opacity:1"
       d="m 135.37857,123.9085 c 12.99219,7.60184 21.71886,21.70305 21.71886,37.84248"
       id="path554" />
    <path
       style="opacity:1;vector-effect:none;fill:none;fill-rule:evenodd;stroke:#0000ff;stroke-width:0.625547;marker-mid:url(#Arrow5);paint-order:fill stroke markers;stop-color:#000000;stop-opacity:1"
       d="m 91.517918,123.71863 c 6.412559,-3.67792 13.843932,-5.78072 21.766442,-5.78072 8.05786,0 15.60766,2.17526 22.09421,5.97059"
       id="path552" />
    <path
       style="opacity:1;vector-effect:none;fill:none;fill-rule:evenodd;stroke:#ff00cc;stroke-width:0.625547;paint-order:fill stroke markers;stop-color:#000000;stop-opacity:1"
       d="m 69.471306,161.75098 c -2e-6,-16.27478 8.873645,-30.477 22.046612,-38.03235"
       id="path550" />
    <path
       style="opacity:1;vector-effect:none;fill:none;fill-rule:evenodd;stroke:#6600ff;stroke-width:0.625547;paint-order:fill stroke markers;stop-color:#000000;stop-opacity:1"
       d="M 91.779181,199.93198 C 78.462417,192.41527 69.471308,178.13312 69.471306,161.75098"
       id="path548" />
    <path
       style="opacity:1;vector-effect:none;fill:none;fill-rule:evenodd;stroke:#00ccff;stroke-width:0.625547;paint-order:fill stroke markers;stop-color:#000000;stop-opacity:1"
       d="m 135.0944,199.75829 c -6.42247,3.69341 -13.86957,5.80575 -21.81004,5.80575 -7.81515,0 -15.152377,-2.04619 -21.505179,-5.63206"
       id="path546" />
    <path
       style="opacity:1;vector-effect:none;fill:none;fill-rule:evenodd;stroke:#800080;stroke-width:0.625547;paint-order:fill stroke markers;stop-color:#000000;stop-opacity:1"
       d="m 157.09743,161.75098 c 0,16.25682 -8.85408,30.44566 -22.00303,38.00731"
       id="path477" />
    <circle
       style="font-variation-settings:normal;opacity:1;vector-effect:none;fill:#ff0000;fill-opacity:1;fill-rule:evenodd;stroke:none;stroke-width:0.932408;stroke-linecap:butt;stroke-linejoin:miter;stroke-miterlimit:4;stroke-dasharray:none;stroke-dashoffset:0;stroke-opacity:1;-inkscape-stroke:none;paint-order:fill stroke markers;stop-color:#000000;stop-opacity:1"
       id="path410"
       cx="91.377823"
       cy="123.80775"
       r="1.75" />
    <circle
       style="font-variation-settings:normal;opacity:1;vector-effect:none;fill:#008080;fill-opacity:1;fill-rule:evenodd;stroke:none;stroke-width:0.932408;stroke-linecap:butt;stroke-linejoin:miter;stroke-miterlimit:4;stroke-dasharray:none;stroke-dashoffset:0;stroke-opacity:1;-inkscape-stroke:none;paint-order:fill stroke markers;stop-color:#000000;stop-opacity:1"
       id="circle471"
       cx="135.1909"
       cy="123.80775"
       r="1.75" />
    <g
       id="g1433"
       transform="rotate(-116.7499,145.0439,111.1174)"
       style="fill:#a05a2c;fill-opacity:1">
      <g
         id="path1435"
         style="fill:#a05a2c;fill-opacity:1">
        <path
           style="color:#000000;fill:#a05a2c;fill-opacity:1;fill-rule:evenodd;stroke-width:0.265429pt;-inkscape-stroke:none"
           d="m 115.18816,103.75691 c -0.79628,0.26543 -1.858,0.79629 -2.38886,1.32715 0,0 0,-1.06172 0.53086,-1.32715 -0.53086,-0.26543 -0.53086,-1.32715 -0.53086,-1.32715 0.53086,0.53086 1.59258,1.06172 2.38886,1.32715 z"
           id="path1439" />
        <path
           style="color:#000000;fill:#a05a2c;fill-opacity:1;fill-rule:evenodd;-inkscape-stroke:none"
           d="m 112.62305,102.00195 v 0.42774 c 0,0 -8.7e-4,0.28127 0.0703,0.60156 0.0585,0.26306 0.23024,0.52777 0.45898,0.72656 -0.22858,0.1988 -0.40054,0.46164 -0.45898,0.72461 -0.0712,0.32029 -0.0703,0.60156 -0.0703,0.60156 v 0.42774 l 0.30078,-0.30274 c 0.48915,-0.48915 1.54641,-1.02718 2.32031,-1.28515 l 0.50391,-0.16602 -0.50391,-0.16797 c -0.7739,-0.25797 -1.83116,-0.796 -2.32031,-1.28515 z m 0.39062,0.74219 c 0.51411,0.4108 1.17618,0.76864 1.81836,1.01367 -0.64196,0.24504 -1.30449,0.60111 -1.81836,1.01172 0.009,-0.0878 6.8e-4,-0.0997 0.0254,-0.21094 0.0615,-0.27693 0.19008,-0.55207 0.3711,-0.64257 l 0.3164,-0.15821 -0.3164,-0.1582 c -0.18102,-0.0905 -0.30956,-0.3676 -0.3711,-0.64453 -0.0247,-0.1112 -0.0164,-0.12311 -0.0254,-0.21094 z"
           id="path1441" />
      </g>
    </g>
    <circle
       style="font-variation-settings:normal;opacity:1;vector-effect:none;fill:#ff0000;fill-opacity:1;fill-rule:evenodd;stroke:none;stroke-width:0.932408;stroke-linecap:butt;stroke-linejoin:miter;stroke-miterlimit:4;stroke-dasharray:none;stroke-dashoffset:0;stroke-opacity:1;-inkscape-stroke:none;paint-order:fill stroke markers;stop-color:#000000;stop-opacity:1"
       id="circle467"
       cx="157.09743"
       cy="161.75098"
       r="1.75" />
    <circle
       style="font-variation-settings:normal;opacity:1;vector-effect:none;fill:#ff0000;fill-opacity:1;fill-rule:evenodd;stroke:none;stroke-width:0.932408;stroke-linecap:butt;stroke-linejoin:miter;stroke-miterlimit:4;stroke-dasharray:none;stroke-dashoffset:0;stroke-opacity:1;-inkscape-stroke:none;paint-order:fill stroke markers;stop-color:#000000;stop-opacity:1"
       id="circle465"
       cx="91.377838"
       cy="199.6942"
       r="1.75" />
    <circle
       style="font-variation-settings:normal;opacity:1;vector-effect:none;fill:#008080;fill-opacity:1;fill-rule:evenodd;stroke:none;stroke-width:0.932408;stroke-linecap:butt;stroke-linejoin:miter;stroke-miterlimit:4;stroke-dasharray:none;stroke-dashoffset:0;stroke-opacity:1;-inkscape-stroke:none;paint-order:fill stroke markers;stop-color:#000000;stop-opacity:1"
       id="circle473"
       cx="135.1909"
       cy="199.6942"
       r="1.75" />
    <circle
       style="font-variation-settings:normal;opacity:1;vector-effect:none;fill:#008080;fill-opacity:1;fill-rule:evenodd;stroke:none;stroke-width:0.932408;stroke-linecap:butt;stroke-linejoin:miter;stroke-miterlimit:4;stroke-dasharray:none;stroke-dashoffset:0;stroke-opacity:1;-inkscape-stroke:none;paint-order:fill stroke markers;stop-color:#000000;stop-opacity:1"
       id="circle475"
       cx="69.471306"
       cy="161.75098"
       r="1.75" />
    <g
       id="g1870"
       transform="rotate(121.69979,110.87462,153.68444)"
       style="fill:#a05a2c;fill-opacity:1">
      <g
         id="g1868"
         style="fill:#800080;fill-opacity:1"
         transform="rotate(-3.2210667,113.40098,103.36443)">
        <path
           style="color:#000000;fill:#800080;fill-opacity:1;fill-rule:evenodd;stroke-width:0.265429pt;-inkscape-stroke:none"
           d="m 115.18816,103.75691 c -0.79628,0.26543 -1.858,0.79629 -2.38886,1.32715 0,0 0,-1.06172 0.53086,-1.32715 -0.53086,-0.26543 -0.53086,-1.32715 -0.53086,-1.32715 0.53086,0.53086 1.59258,1.06172 2.38886,1.32715 z"
           id="path1864" />
        <path
           style="color:#000000;fill:#800080;fill-opacity:1;fill-rule:evenodd;-inkscape-stroke:none"
           d="m 112.62305,102.00195 v 0.42774 c 0,0 -8.7e-4,0.28127 0.0703,0.60156 0.0585,0.26306 0.23024,0.52777 0.45898,0.72656 -0.22858,0.1988 -0.40054,0.46164 -0.45898,0.72461 -0.0712,0.32029 -0.0703,0.60156 -0.0703,0.60156 v 0.42774 l 0.30078,-0.30274 c 0.48915,-0.48915 1.54641,-1.02718 2.32031,-1.28515 l 0.50391,-0.16602 -0.50391,-0.16797 c -0.7739,-0.25797 -1.83116,-0.796 -2.32031,-1.28515 z m 0.39062,0.74219 c 0.51411,0.4108 1.17618,0.76864 1.81836,1.01367 -0.64196,0.24504 -1.30449,0.60111 -1.81836,1.01172 0.009,-0.0878 6.8e-4,-0.0997 0.0254,-0.21094 0.0615,-0.27693 0.19008,-0.55207 0.3711,-0.64257 l 0.3164,-0.15821 -0.3164,-0.1582 c -0.18102,-0.0905 -0.30956,-0.3676 -0.3711,-0.64453 -0.0247,-0.1112 -0.0164,-0.12311 -0.0254,-0.21094 z"
           id="path1866" />
      </g>
    </g>
    <g
       id="g1947"
       transform="rotate(2.1684395,-2575.9178,167.31173)"
       style="fill:#00ccff;fill-opacity:1">
      <g
         id="g1945"
         style="fill:#00ccff;fill-opacity:1"
         transform="rotate(-3.2210667,113.40098,103.36443)">
        <path
           style="color:#000000;fill:#00ccff;fill-opacity:1;fill-rule:evenodd;stroke-width:0.265429pt;-inkscape-stroke:none"
           d="m 115.18816,103.75691 c -0.79628,0.26543 -1.858,0.79629 -2.38886,1.32715 0,0 0,-1.06172 0.53086,-1.32715 -0.53086,-0.26543 -0.53086,-1.32715 -0.53086,-1.32715 0.53086,0.53086 1.59258,1.06172 2.38886,1.32715 z"
           id="path1941" />
        <path
           style="color:#000000;fill:#00ccff;fill-opacity:1;fill-rule:evenodd;-inkscape-stroke:none"
           d="m 112.62305,102.00195 v 0.42774 c 0,0 -8.7e-4,0.28127 0.0703,0.60156 0.0585,0.26306 0.23024,0.52777 0.45898,0.72656 -0.22858,0.1988 -0.40054,0.46164 -0.45898,0.72461 -0.0712,0.32029 -0.0703,0.60156 -0.0703,0.60156 v 0.42774 l 0.30078,-0.30274 c 0.48915,-0.48915 1.54641,-1.02718 2.32031,-1.28515 l 0.50391,-0.16602 -0.50391,-0.16797 c -0.7739,-0.25797 -1.83116,-0.796 -2.32031,-1.28515 z m 0.39062,0.74219 c 0.51411,0.4108 1.17618,0.76864 1.81836,1.01367 -0.64196,0.24504 -1.30449,0.60111 -1.81836,1.01172 0.009,-0.0878 6.8e-4,-0.0997 0.0254,-0.21094 0.0615,-0.27693 0.19008,-0.55207 0.3711,-0.64257 l 0.3164,-0.15821 -0.3164,-0.1582 c -0.18102,-0.0905 -0.30956,-0.3676 -0.3711,-0.64453 -0.0247,-0.1112 -0.0164,-0.12311 -0.0254,-0.21094 z"
           id="path1943" />
      </g>
    </g>
    <g
       id="g2166"
       transform="rotate(120.5165,83.667082,111.15369)"
       style="fill:#ff00cc;fill-opacity:1">
      <g
         id="g2164"
         style="fill:#ff00cc;fill-opacity:1"
         transform="rotate(-3.2210667,113.40098,103.36443)">
        <path
           style="color:#000000;fill:#ff00cc;fill-opacity:1;fill-rule:evenodd;stroke-width:0.265429pt;-inkscape-stroke:none"
           d="m 115.18816,103.75691 c -0.79628,0.26543 -1.858,0.79629 -2.38886,1.32715 0,0 0,-1.06172 0.53086,-1.32715 -0.53086,-0.26543 -0.53086,-1.32715 -0.53086,-1.32715 0.53086,0.53086 1.59258,1.06172 2.38886,1.32715 z"
           id="path2160" />
        <path
           style="color:#000000;fill:#ff00cc;fill-opacity:1;fill-rule:evenodd;-inkscape-stroke:none"
           d="m 112.62305,102.00195 v 0.42774 c 0,0 -8.7e-4,0.28127 0.0703,0.60156 0.0585,0.26306 0.23024,0.52777 0.45898,0.72656 -0.22858,0.1988 -0.40054,0.46164 -0.45898,0.72461 -0.0712,0.32029 -0.0703,0.60156 -0.0703,0.60156 v 0.42774 l 0.30078,-0.30274 c 0.48915,-0.48915 1.54641,-1.02718 2.32031,-1.28515 l 0.50391,-0.16602 -0.50391,-0.16797 c -0.7739,-0.25797 -1.83116,-0.796 -2.32031,-1.28515 z m 0.39062,0.74219 c 0.51411,0.4108 1.17618,0.76864 1.81836,1.01367 -0.64196,0.24504 -1.30449,0.60111 -1.81836,1.01172 0.009,-0.0878 6.8e-4,-0.0997 0.0254,-0.21094 0.0615,-0.27693 0.19008,-0.55207 0.3711,-0.64257 l 0.3164,-0.15821 -0.3164,-0.1582 c -0.18102,-0.0905 -0.30956,-0.3676 -0.3711,-0.64453 -0.0247,-0.1112 -0.0164,-0.12311 -0.0254,-0.21094 z"
           id="path2162" />
      </g>
    </g>
    <g
       id="g2381"
       transform="rotate(-116.7499,118.58858,155.26011)"
       style="fill:#6600ff;fill-opacity:1">
      <g
         id="g2379"
         style="fill:#6600ff;fill-opacity:1">
        <path
           style="color:#000000;fill:#6600ff;fill-opacity:1;fill-rule:evenodd;stroke-width:0.265429pt;-inkscape-stroke:none"
           d="m 115.18816,103.75691 c -0.79628,0.26543 -1.858,0.79629 -2.38886,1.32715 0,0 0,-1.06172 0.53086,-1.32715 -0.53086,-0.26543 -0.53086,-1.32715 -0.53086,-1.32715 0.53086,0.53086 1.59258,1.06172 2.38886,1.32715 z"
           id="path2375" />
        <path
           style="color:#000000;fill:#6600ff;fill-opacity:1;fill-rule:evenodd;-inkscape-stroke:none"
           d="m 112.62305,102.00195 v 0.42774 c 0,0 -8.7e-4,0.28127 0.0703,0.60156 0.0585,0.26306 0.23024,0.52777 0.45898,0.72656 -0.22858,0.1988 -0.40054,0.46164 -0.45898,0.72461 -0.0712,0.32029 -0.0703,0.60156 -0.0703,0.60156 v 0.42774 l 0.30078,-0.30274 c 0.48915,-0.48915 1.54641,-1.02718 2.32031,-1.28515 l 0.50391,-0.16602 -0.50391,-0.16797 c -0.7739,-0.25797 -1.83116,-0.796 -2.32031,-1.28515 z m 0.39062,0.74219 c 0.51411,0.4108 1.17618,0.76864 1.81836,1.01367 -0.64196,0.24504 -1.30449,0.60111 -1.81836,1.01172 0.009,-0.0878 6.8e-4,-0.0997 0.0254,-0.21094 0.0615,-0.27693 0.19008,-0.55207 0.3711,-0.64257 l 0.3164,-0.15821 -0.3164,-0.1582 c -0.18102,-0.0905 -0.30956,-0.3676 -0.3711,-0.64453 -0.0247,-0.1112 -0.0164,-0.12311 -0.0254,-0.21094 z"
           id="path2377" />
      </g>
    </g>
    <text
       xml:space="preserve"
       style="font-size:4.23333px;line-height:1.25;font-family:'Century Schoolbook';-inkscape-font-specification:'Century Schoolbook, Normal';font-variant-ligatures:none;stroke-width:0.264583"
       x="92.826035"
       y="128.679"
       id="text2506"><tspan
         sodipodi:role="line"
         id="tspan2504"
         style="stroke-width:0.264583"
         x="92.826035"
         y="128.679">$A_1$</tspan></text>
    <text
       xml:space="preserve"
       style="font-size:4.23333px;line-height:1.25;font-family:'Century Schoolbook';-inkscape-font-specification:'Century Schoolbook, Normal';font-variant-ligatures:none;stroke-width:0.264583"
       x="146.82336"
       y="163.12222"
       id="text2510"><tspan
         sodipodi:role="line"
         id="tspan2508"
         style="stroke-width:0.264583"
         x="146.82336"
         y="163.12222">$A_2$</tspan></text>
    <text
       xml:space="preserve"
       style="font-size:4.23333px;line-height:1.25;font-family:'Century Schoolbook';-inkscape-font-specification:'Century Schoolbook, Normal';font-variant-ligatures:none;stroke-width:0.264583"
       x="91.644112"
       y="197.37369"
       id="text2514"><tspan
         sodipodi:role="line"
         id="tspan2512"
         style="stroke-width:0.264583"
         x="91.644112"
         y="197.37369">$A_3$</tspan></text>
    <text
       xml:space="preserve"
       style="font-size:4.23333px;line-height:1.25;font-family:'Century Schoolbook';-inkscape-font-specification:'Century Schoolbook, Normal';font-variant-ligatures:none;stroke-width:0.264583"
       x="127.27798"
       y="130.52489"
       id="text2568"><tspan
         sodipodi:role="line"
         id="tspan2566"
         style="stroke-width:0.264583"
         x="127.27798"
         y="130.52489">$B_{12}$</tspan></text>
    <text
       xml:space="preserve"
       style="font-size:4.23333px;line-height:1.25;font-family:'Century Schoolbook';-inkscape-font-specification:'Century Schoolbook, Normal';font-variant-ligatures:none;stroke-width:0.264583"
       x="124.38767"
       y="196.31123"
       id="text2572"><tspan
         sodipodi:role="line"
         id="tspan2570"
         style="stroke-width:0.264583"
         x="124.38767"
         y="196.31123">$B_{23}$</tspan></text>
    <text
       xml:space="preserve"
       style="font-size:4.23333px;line-height:1.25;font-family:'Century Schoolbook';-inkscape-font-specification:'Century Schoolbook, Normal';font-variant-ligatures:none;stroke-width:0.264583"
       x="71.814331"
       y="163.07484"
       id="text2576"><tspan
         sodipodi:role="line"
         id="tspan2574"
         style="stroke-width:0.264583"
         x="71.814331"
         y="163.07484">$B_{31}$</tspan></text>
  </g>
</svg>
