<?xml version="1.0" encoding="UTF-8" standalone="no"?>
<!-- Created with Inkscape (http://www.inkscape.org/) -->

<svg
   xml:space="preserve"
   sodipodi:docname="Example-CutLocus-Cylinder-Submanifold.svg"
   id="svg101517"
   version="1.1"
   viewBox="0 0 210 297"
   height="297mm"
   width="210mm"
   inkscape:version="1.2 (1:1.2.1+202207142221+cd75a1ee6d)"
   xmlns:inkscape="http://www.inkscape.org/namespaces/inkscape"
   xmlns:sodipodi="http://sodipodi.sourceforge.net/DTD/sodipodi-0.dtd"
   xmlns="http://www.w3.org/2000/svg"
   xmlns:svg="http://www.w3.org/2000/svg"><sodipodi:namedview
     id="namedview101519"
     pagecolor="#ffffff"
     bordercolor="#999999"
     borderopacity="1"
     inkscape:showpageshadow="0"
     inkscape:pageopacity="0"
     inkscape:pagecheckerboard="0"
     inkscape:deskcolor="#d1d1d1"
     inkscape:document-units="mm"
     showgrid="false"
     inkscape:zoom="0.5"
     inkscape:cx="465"
     inkscape:cy="555"
     inkscape:window-width="1600"
     inkscape:window-height="832"
     inkscape:window-x="0"
     inkscape:window-y="32"
     inkscape:window-maximized="1"
     inkscape:current-layer="layer1-3"
     showguides="false" /><defs
     id="defs101514"><marker
       style="overflow:visible"
       id="Arrow5"
       refX="0"
       refY="0"
       orient="auto-start-reverse"
       inkscape:stockid="Arrow5"
       markerWidth="5.8874264"
       markerHeight="6.6094756"
       viewBox="0 0 5.8874262 6.6094758"
       inkscape:isstock="true"
       inkscape:collect="always"
       preserveAspectRatio="xMidYMid"><path
         transform="scale(0.5)"
         style="fill:context-stroke;fill-rule:evenodd;stroke:context-stroke;stroke-width:1pt"
         d="m 6,0 c -3,1 -7,3 -9,5 0,0 0,-4 2,-5 -2,-1 -2,-5 -2,-5 2,2 6,4 9,5 z"
         id="path8893" /></marker><path
       id="path-0"
       d="m 219.954,236.963 c 8.706,13.77 11.735,18.922 16.881,23.211 4.136,3.714 9.763,11.816 12.66,11.816 l 0.844,0.422 c 2.046,0.682 4.181,0.422 6.33,0.422"
       style="fill:none" /><path
       id="path-1"
       d="m 254.559,264.394 c 9.981,8.292 20.067,14.348 24.898,14.348 4.534,2.151 9.616,3.376 13.083,3.376 7.028,0 11.41,-8.89 13.926,-13.082 5.557,-13.693 4.642,-26.96 4.642,-37.981 -0.422,-5.933 -2.864,-9.194 -6.33,-12.66 -1.511,-2.11 -3.211,-4.575 -3.798,-5.064 -0.972,-0.81 -4.735,-2.717 -5.064,-3.376 -11.373,-5.109 -15.768,-6.752 -24.899,-6.752 -9.225,0 -8.213,-2.324 -15.192,-7.596 -9.552,-7.218 -20.866,-13.458 -30.384,-20.257 -4.75,-6.924 -12.076,-18.706 -8.441,-27.43 1.899,-4.557 5.832,-5.41 8.863,-8.44 18.862,-2.899 36.321,-2.736 52.328,1.266 11.614,2.146 19.924,3.631 27.009,7.174 8.532,4.844 17.854,8.294 25.742,12.238 4.455,4.033 6.796,6.418 8.862,10.55 3.366,5.888 6.325,10.54 8.862,15.614 1.846,7.961 3.376,15.695 3.376,22.789 0.422,15.895 0.422,29.681 0.422,43.466 -2.434,13.114 -0.198,23.694 -2.954,33.339 -0.422,12.228 -3.376,22.569 -3.376,33.338 0,6.667 0.847,12.667 2.954,16.881 2.302,2.724 2.988,5.908 6.331,5.908 h 1.688 c 2.774,0 4.877,-0.422 7.596,-0.422"
       style="fill:none" /><inkscape:perspective
       sodipodi:type="inkscape:persp3d"
       inkscape:vp_x="0 : 485.09986 : 1"
       inkscape:vp_y="0 : 999.99993 : 0"
       inkscape:vp_z="744.09447 : 485.09986 : 1"
       inkscape:persp3d-origin="372.04723 : 309.70617 : 1"
       id="perspective10" /></defs><g
     inkscape:label="Layer 1"
     inkscape:groupmode="layer"
     id="layer1"><g
       inkscape:label="Ebene 1"
       id="layer1-3"
       transform="matrix(0.26458333,0,0,0.26458333,-77.271395,12.782826)"
       style="stroke-width:2.1786"><path
         d="m 1022.21,167.699 c 0,0 0,0 0,0 v 700 c 0,0 0,0 0,0 z"
         id="path109019"
         style="fill:#97a1ad;fill-opacity:0.882353;fill-rule:evenodd;stroke:#000000;stroke-width:3.23671" /><path
         id="path109021"
         style="fill:#c7c8c9;fill-opacity:0.98431373;fill-rule:evenodd;stroke:none;stroke-width:3.23671"
         d="M 355.58648 167.69868 L 355.58648 867.69869 C 355.58648 904.29853 390.70372 939.4008 453.21148 965.28072 C 515.71924 991.1606 600.5013 1005.7006 688.90094 1005.7006 C 777.30067 1005.7006 862.07962 991.16063 924.58844 965.28072 C 987.09638 939.40074 1022.2095 904.29865 1022.2095 867.69869 L 1022.2095 167.69868 C 1022.2095 204.29864 987.09638 239.40074 924.58844 265.28071 C 862.07962 291.16062 777.30067 305.70063 688.90094 305.70063 C 600.5013 305.70063 515.71924 291.16059 453.21148 265.28071 C 390.70372 239.40083 355.58648 204.29852 355.58648 167.69868 z " /><path
         d="m 355.587,167.699 c 0,0 0,0 0,0 v 700 c 0,0 0,0 0,0 z"
         id="path109029"
         style="fill:#97a1ad;fill-opacity:0.882353;fill-rule:evenodd;stroke:none;stroke-width:3.23671" /><path
         id="path109031"
         style="fill:#cccccc;fill-opacity:0.882353;fill-rule:evenodd;stroke:none;stroke-width:3.23671"
         d="M 688.90094 29.698676 C 600.50103 29.698676 515.71942 44.238524 453.21148 70.118598 C 390.70354 95.998672 355.58648 131.09871 355.58648 167.69868 L 355.58648 867.69869 C 355.58648 831.09872 390.70354 795.99858 453.21148 770.11861 C 515.71942 744.23863 600.50103 729.69868 688.90094 729.69868 C 777.30085 729.69868 862.0795 744.23863 924.58844 770.11861 C 987.09638 795.99858 1022.2095 831.09872 1022.2095 867.69869 L 1022.2095 167.69868 C 1022.2095 131.09871 987.09638 95.998672 924.58844 70.118598 C 862.0795 44.238524 777.30085 29.698676 688.90094 29.698676 z " /><path
         d="m 1022.21,167.699 v 0 700 0 z"
         id="path109039"
         style="fill:#cbcbcb;fill-opacity:1;fill-rule:evenodd;stroke:#000000;stroke-width:3.23671;font-variation-settings:normal;opacity:1;vector-effect:none;stroke-linecap:butt;stroke-linejoin:miter;stroke-miterlimit:4;stroke-dasharray:none;stroke-dashoffset:0;stroke-opacity:1;-inkscape-stroke:none;stop-color:#000000;stop-opacity:1" /><path
         id="path107303"
         style="fill:none;fill-opacity:1;fill-rule:evenodd;stroke:#000000;stroke-width:3.23671"
         d="M 1022.2126,167.69932 A 333.31277,138.00041 0 0 1 688.89982,305.69973 333.31277,138.00041 0 0 1 355.58692,167.69932 333.31277,138.00041 0 0 1 688.89982,29.698911 333.31277,138.00041 0 0 1 1022.2126,167.69932 Z" /><path
         style="fill:none;fill-opacity:0.882353;fill-rule:evenodd;stroke:#000000;stroke-width:3.23671;stroke-dasharray:12.94684028,12.94684028;stroke-dashoffset:0"
         d="m 355.587,867.699 c 0,-76.21554 149.22929,-138.00044 333.3129,-138.00041 184.08357,-10e-6 333.3128,61.78488 333.3128,138.00041"
         id="path111404" /><path
         style="fill:none;fill-opacity:0.882353;fill-rule:evenodd;stroke:#000000;stroke-width:3.23671"
         d="m 1022.2127,867.699 c 0,76.21552 -149.22924,138.0004 -333.3128,138.0004 -184.0836,0 -333.31289,-61.78486 -333.3129,-138.0004"
         id="path111400" /><path
         style="font-variation-settings:normal;opacity:1;vector-effect:none;fill:none;fill-opacity:0.882353;stroke:#000000;stroke-width:3.23671;stroke-linecap:butt;stroke-linejoin:miter;stroke-miterlimit:4;stroke-dasharray:none;stroke-dashoffset:0;stroke-opacity:1;-inkscape-stroke:none;stop-color:#000000;stop-opacity:1"
         d="m 516.50298,285.8074 0.26705,700.09006"
         id="path111406"
         sodipodi:nodetypes="cc" /><path
         style="font-variation-settings:normal;opacity:1;vector-effect:none;fill:none;fill-opacity:0.882353;stroke:#a42828;stroke-width:4.80873199;stroke-linecap:butt;stroke-linejoin:miter;stroke-miterlimit:4;stroke-dasharray:12.9468, 12.9468;stroke-dashoffset:0;stroke-opacity:1;-inkscape-stroke:none;stop-color:#000000;stop-opacity:1"
         d="M 842.36095,45.1954 842.628,745.28546"
         id="path111434"
         sodipodi:nodetypes="cc" /><path
         style="font-variation-settings:normal;opacity:1;vector-effect:none;fill:none;fill-opacity:0.882353;fill-rule:evenodd;stroke:#905400;stroke-width:3.23671;stroke-linecap:butt;stroke-linejoin:miter;stroke-miterlimit:4;stroke-dasharray:12.9468, 12.9468;stroke-dashoffset:0;stroke-opacity:1;-inkscape-stroke:none;stop-color:#000000;stop-opacity:1"
         d="m 842.9412,542.658 c 107.13078,22.99514 180.3001,69.22711 180.3001,122.51283"
         id="path118761" /><path
         style="font-variation-settings:normal;opacity:1;vector-effect:none;fill:none;fill-opacity:0.882353;fill-rule:evenodd;stroke:#0000ff;stroke-width:3.23671;stroke-linecap:butt;stroke-linejoin:miter;stroke-miterlimit:4;stroke-dasharray:12.9468, 12.9468;stroke-dashoffset:0;stroke-opacity:1;-inkscape-stroke:none;stop-color:#000000;stop-opacity:1"
         d="m 357.20082,665.17083 c 0,-76.21554 148.505,-138.00044 331.69632,-138.00041 55.55473,0 107.94378,5.59237 154.04406,15.48758"
         id="path111466"
         sodipodi:nodetypes="ccc" /><path
         style="fill:none;fill-opacity:0.882353;fill-rule:evenodd;stroke:#0000ff;stroke-width:3.23671;stroke-opacity:1"
         d="M 517.14174,783.25306 C 421.26418,759.06211 357.20082,715.22904 357.20082,665.17083"
         id="path118619" /><path
         style="fill:none;fill-opacity:0.882353;fill-rule:evenodd;stroke:#905400;stroke-width:3.23671;stroke-opacity:1"
         d="m 1022.2126,665.17083 c 0,76.21552 -149.22922,138.00041 -333.31278,138.00041 -62.87196,10e-6 -121.65839,-7.27748 -171.75808,-19.91818"
         id="path111460"
         sodipodi:nodetypes="ccc" /><g
         id="g113032"
         transform="matrix(0.23743505,1.1078533,-1.1078533,0.23743505,1763.9229,-741.72561)"
         style="fill:#905400;stroke-width:1.92284;fill-opacity:1"
         inkscape:transform-center-x="-1.6957183"
         inkscape:transform-center-y="0.26446999"><g
           id="path113034"
           style="fill:#905400;stroke-width:1.92284;fill-opacity:1"><path
             style="color:#000000;fill:#905400;fill-rule:evenodd;stroke-width:1.42837pt;-inkscape-stroke:none;fill-opacity:1"
             d="m 1149.2801,1067.6628 c 1.6184,4.855 4.8551,11.3285 8.0918,14.5652 0,0 -6.4734,0 -8.0918,-3.2367 -1.6184,3.2367 -8.0918,3.2367 -8.0918,3.2367 3.2367,-3.2367 6.4734,-9.7102 8.0918,-14.5652 z"
             id="path113038" /><path
             style="color:#000000;fill:#905400;fill-rule:evenodd;stroke-width:1.92284;-inkscape-stroke:none;fill-opacity:1"
             d="m 1149.2793,1064.252 -1.0234,3.0703 c -1.573,4.7185 -4.8477,11.1602 -7.8301,14.1425 l -1.8418,1.8418 h 2.6035 c 0,0 1.721,0 3.6738,-0.4296 1.4895,-0.331 3.2082,-0.9078 4.418,-2.1036 1.2099,1.1964 2.9302,1.7725 4.4199,2.1036 1.9528,0.4339 3.6719,0.4296 3.6719,0.4296 h 2.6055 l -1.8418,-1.8418 c -2.9824,-2.9823 -6.2592,-9.424 -7.8321,-14.1425 z m 0,6.1132 c 1.4223,3.6381 3.2944,7.4921 5.5801,10.4864 -0.3356,-0.05 -0.3281,-9e-4 -0.6934,-0.082 -1.6885,-0.3752 -3.37,-1.158 -3.9219,-2.2617 l -0.9648,-1.9297 -0.9648,1.9297 c -0.5519,1.1037 -2.2334,1.8865 -3.9219,2.2617 -0.3653,0.081 -0.3578,0.032 -0.6934,0.082 2.2858,-2.9943 4.1578,-6.8482 5.5801,-10.4864 z"
             id="path113040" /></g></g><g
         id="g116789"
         transform="matrix(0.64700857,-0.93010444,0.93010444,0.64700857,-1331.3658,1114.9801)"
         style="fill:#0000ff;fill-opacity:1;stroke-width:1.92284"
         inkscape:transform-center-x="0.71623768"
         inkscape:transform-center-y="0.060450565"><g
           id="g116787"
           style="fill:#0000ff;fill-opacity:1;stroke-width:1.92284"><path
             style="color:#000000;fill:#0000ff;fill-opacity:1;fill-rule:evenodd;stroke-width:1.42837pt;-inkscape-stroke:none"
             d="m 1149.2801,1067.6628 c 1.6184,4.855 4.8551,11.3285 8.0918,14.5652 0,0 -6.4734,0 -8.0918,-3.2367 -1.6184,3.2367 -8.0918,3.2367 -8.0918,3.2367 3.2367,-3.2367 6.4734,-9.7102 8.0918,-14.5652 z"
             id="path116783" /><path
             style="color:#000000;fill:#0000ff;fill-opacity:1;fill-rule:evenodd;stroke-width:1.92284;-inkscape-stroke:none"
             d="m 1149.2793,1064.252 -1.0234,3.0703 c -1.573,4.7185 -4.8477,11.1602 -7.8301,14.1425 l -1.8418,1.8418 h 2.6035 c 0,0 1.721,0 3.6738,-0.4296 1.4895,-0.331 3.2082,-0.9078 4.418,-2.1036 1.2099,1.1964 2.9302,1.7725 4.4199,2.1036 1.9528,0.4339 3.6719,0.4296 3.6719,0.4296 h 2.6055 l -1.8418,-1.8418 c -2.9824,-2.9823 -6.2592,-9.424 -7.8321,-14.1425 z m 0,6.1132 c 1.4223,3.6381 3.2944,7.4921 5.5801,10.4864 -0.3356,-0.05 -0.3281,-9e-4 -0.6934,-0.082 -1.6885,-0.3752 -3.37,-1.158 -3.9219,-2.2617 l -0.9648,-1.9297 -0.9648,1.9297 c -0.5519,1.1037 -2.2334,1.8865 -3.9219,2.2617 -0.3653,0.081 -0.3578,0.032 -0.6934,0.082 2.2858,-2.9943 4.1578,-6.8482 5.5801,-10.4864 z"
             id="path116785" /></g></g><circle
         style="font-variation-settings:normal;opacity:1;vector-effect:none;fill:#ff0000;fill-opacity:1;fill-rule:evenodd;stroke:none;stroke-width:3.52406;stroke-linecap:butt;stroke-linejoin:miter;stroke-miterlimit:4;stroke-dasharray:none;stroke-dashoffset:0;stroke-opacity:1;-inkscape-stroke:none;paint-order:fill stroke markers;stop-color:#000000;stop-opacity:1"
         id="circle117138"
         cx="516.69269"
         cy="783.13959"
         r="9.0978279" /><circle
         style="font-variation-settings:normal;opacity:1;vector-effect:none;fill:#ff0000;fill-opacity:1;fill-rule:evenodd;stroke:none;stroke-width:3.52406;stroke-linecap:butt;stroke-linejoin:miter;stroke-miterlimit:4;stroke-dasharray:none;stroke-dashoffset:0;stroke-opacity:1;-inkscape-stroke:none;paint-order:fill stroke markers;stop-color:#000000;stop-opacity:1"
         id="circle119108"
         cx="842.55066"
         cy="542.57434"
         r="9.0978279" /><path
         style="font-variation-settings:normal;opacity:1;vector-effect:none;fill:none;fill-opacity:0.882353;fill-rule:evenodd;stroke:#008000;stroke-width:3.23671;stroke-linecap:butt;stroke-linejoin:miter;stroke-miterlimit:4;stroke-dasharray:12.9468, 12.9468;stroke-dashoffset:0;stroke-opacity:1;-inkscape-stroke:none;stop-color:#000000;stop-opacity:1"
         d="m 842.9412,398.44706 c 107.13078,22.99514 180.3001,69.22711 180.3001,122.51283"
         id="path119110" /><path
         style="font-variation-settings:normal;opacity:1;vector-effect:none;fill:none;fill-opacity:0.882353;fill-rule:evenodd;stroke:#6600ff;stroke-width:3.23671;stroke-linecap:butt;stroke-linejoin:miter;stroke-miterlimit:4;stroke-dasharray:12.9468, 12.9468;stroke-dashoffset:0;stroke-opacity:1;-inkscape-stroke:none;stop-color:#000000;stop-opacity:1"
         d="m 357.20082,520.95989 c 0,-76.21554 148.505,-138.00044 331.69632,-138.00041 55.55473,0 107.94378,5.59237 154.04406,15.48758"
         id="path119112"
         sodipodi:nodetypes="ccc" /><path
         style="fill:none;fill-opacity:0.882353;fill-rule:evenodd;stroke:#6600ff;stroke-width:3.23671;stroke-opacity:1"
         d="M 517.14174,639.04212 C 421.26418,614.85117 357.20082,571.0181 357.20082,520.95989"
         id="path119114" /><path
         style="fill:none;fill-opacity:0.882353;fill-rule:evenodd;stroke:#008000;stroke-width:3.23671;stroke-opacity:1"
         d="m 1022.2126,520.95989 c 0,76.21552 -149.22922,138.00041 -333.31278,138.00041 -62.87196,1e-5 -121.65839,-7.27748 -171.75808,-19.91818"
         id="path119116"
         sodipodi:nodetypes="ccc" /><g
         id="g119124"
         transform="matrix(0.23743505,1.1078533,-1.1078533,0.23743505,1763.9229,-885.93655)"
         style="fill:#008000;fill-opacity:1;stroke-width:1.92284"
         inkscape:transform-center-x="-1.6957183"
         inkscape:transform-center-y="0.26446999"><g
           id="g119122"
           style="fill:#008000;fill-opacity:1;stroke-width:1.92284"><path
             style="color:#000000;fill:#008000;fill-opacity:1;fill-rule:evenodd;stroke-width:1.42837pt;-inkscape-stroke:none"
             d="m 1149.2801,1067.6628 c 1.6184,4.855 4.8551,11.3285 8.0918,14.5652 0,0 -6.4734,0 -8.0918,-3.2367 -1.6184,3.2367 -8.0918,3.2367 -8.0918,3.2367 3.2367,-3.2367 6.4734,-9.7102 8.0918,-14.5652 z"
             id="path119118" /><path
             style="color:#000000;fill:#008000;fill-opacity:1;fill-rule:evenodd;stroke-width:1.92284;-inkscape-stroke:none"
             d="m 1149.2793,1064.252 -1.0234,3.0703 c -1.573,4.7185 -4.8477,11.1602 -7.8301,14.1425 l -1.8418,1.8418 h 2.6035 c 0,0 1.721,0 3.6738,-0.4296 1.4895,-0.331 3.2082,-0.9078 4.418,-2.1036 1.2099,1.1964 2.9302,1.7725 4.4199,2.1036 1.9528,0.4339 3.6719,0.4296 3.6719,0.4296 h 2.6055 l -1.8418,-1.8418 c -2.9824,-2.9823 -6.2592,-9.424 -7.8321,-14.1425 z m 0,6.1132 c 1.4223,3.6381 3.2944,7.4921 5.5801,10.4864 -0.3356,-0.05 -0.3281,-9e-4 -0.6934,-0.082 -1.6885,-0.3752 -3.37,-1.158 -3.9219,-2.2617 l -0.9648,-1.9297 -0.9648,1.9297 c -0.5519,1.1037 -2.2334,1.8865 -3.9219,2.2617 -0.3653,0.081 -0.3578,0.032 -0.6934,0.082 2.2858,-2.9943 4.1578,-6.8482 5.5801,-10.4864 z"
             id="path119120" /></g></g><g
         id="g119132"
         transform="matrix(0.64700857,-0.93010444,0.93010444,0.64700857,-1331.3658,970.76916)"
         style="fill:#6600ff;fill-opacity:1;stroke-width:1.92284"
         inkscape:transform-center-x="0.71623768"
         inkscape:transform-center-y="0.060450565"><g
           id="g119130"
           style="fill:#6600ff;fill-opacity:1;stroke-width:1.92284"><path
             style="color:#000000;fill:#6600ff;fill-opacity:1;fill-rule:evenodd;stroke-width:1.42837pt;-inkscape-stroke:none"
             d="m 1149.2801,1067.6628 c 1.6184,4.855 4.8551,11.3285 8.0918,14.5652 0,0 -6.4734,0 -8.0918,-3.2367 -1.6184,3.2367 -8.0918,3.2367 -8.0918,3.2367 3.2367,-3.2367 6.4734,-9.7102 8.0918,-14.5652 z"
             id="path119126" /><path
             style="color:#000000;fill:#6600ff;fill-opacity:1;fill-rule:evenodd;stroke-width:1.92284;-inkscape-stroke:none"
             d="m 1149.2793,1064.252 -1.0234,3.0703 c -1.573,4.7185 -4.8477,11.1602 -7.8301,14.1425 l -1.8418,1.8418 h 2.6035 c 0,0 1.721,0 3.6738,-0.4296 1.4895,-0.331 3.2082,-0.9078 4.418,-2.1036 1.2099,1.1964 2.9302,1.7725 4.4199,2.1036 1.9528,0.4339 3.6719,0.4296 3.6719,0.4296 h 2.6055 l -1.8418,-1.8418 c -2.9824,-2.9823 -6.2592,-9.424 -7.8321,-14.1425 z m 0,6.1132 c 1.4223,3.6381 3.2944,7.4921 5.5801,10.4864 -0.3356,-0.05 -0.3281,-9e-4 -0.6934,-0.082 -1.6885,-0.3752 -3.37,-1.158 -3.9219,-2.2617 l -0.9648,-1.9297 -0.9648,1.9297 c -0.5519,1.1037 -2.2334,1.8865 -3.9219,2.2617 -0.3653,0.081 -0.3578,0.032 -0.6934,0.082 2.2858,-2.9943 4.1578,-6.8482 5.5801,-10.4864 z"
             id="path119128" /></g></g><circle
         style="font-variation-settings:normal;opacity:1;vector-effect:none;fill:#ff0000;fill-opacity:1;fill-rule:evenodd;stroke:none;stroke-width:3.52406;stroke-linecap:butt;stroke-linejoin:miter;stroke-miterlimit:4;stroke-dasharray:none;stroke-dashoffset:0;stroke-opacity:1;-inkscape-stroke:none;paint-order:fill stroke markers;stop-color:#000000;stop-opacity:1"
         id="circle119134"
         cx="516.69269"
         cy="638.92865"
         r="9.0978279" /><circle
         style="font-variation-settings:normal;opacity:1;vector-effect:none;fill:#ff0000;fill-opacity:1;fill-rule:evenodd;stroke:none;stroke-width:3.52406;stroke-linecap:butt;stroke-linejoin:miter;stroke-miterlimit:4;stroke-dasharray:none;stroke-dashoffset:0;stroke-opacity:1;-inkscape-stroke:none;paint-order:fill stroke markers;stop-color:#000000;stop-opacity:1"
         id="circle119136"
         cx="842.55066"
         cy="398.3634"
         r="9.0978279" /><text
         xml:space="preserve"
         style="font-size:16px;line-height:1.25;font-family:'Century Schoolbook';-inkscape-font-specification:'Century Schoolbook, Normal';font-variant-ligatures:none"
         x="437.1824"
         y="355.31924"
         id="text119984"><tspan
           sodipodi:role="line"
           id="tspan119982"
           x="437.1824"
           y="355.31924">$N$</tspan></text><path
         d="m 355.58648,167.69868 v 0 700 0 z"
         id="path124678"
         style="font-variation-settings:normal;opacity:1;vector-effect:none;fill:#cbcbcb;fill-opacity:1;fill-rule:evenodd;stroke:#000000;stroke-width:3.23671;stroke-linecap:butt;stroke-linejoin:miter;stroke-miterlimit:4;stroke-dasharray:none;stroke-dashoffset:0;stroke-opacity:1;-inkscape-stroke:none;stop-color:#000000;stop-opacity:1" /><path
         style="fill:none;stroke:#000000;stroke-width:3.25793;stroke-linecap:butt;stroke-linejoin:miter;stroke-opacity:1;marker-end:url(#Arrow5)"
         d="M 1068.2418,383.66525 C 991.2702,420.80948 926.0833,362.93556 859.84491,342.88986"
         id="path126408" /><text
         xml:space="preserve"
         style="font-size:16px;line-height:1.25;font-family:'Century Schoolbook';-inkscape-font-specification:'Century Schoolbook, Normal';font-variant-ligatures:none;fill:#a42828;fill-opacity:1"
         x="1042.9385"
         y="371.66095"
         id="text126446"><tspan
           sodipodi:role="line"
           id="tspan126444"
           x="1042.9385"
           y="371.66095">$\cutn$</tspan></text><text
         xml:space="preserve"
         style="font-size:16px;line-height:1.25;font-family:'Century Schoolbook';-inkscape-font-specification:'Century Schoolbook, Normal';font-variant-ligatures:none"
         x="445.33475"
         y="816.08118"
         id="text138637"><tspan
           sodipodi:role="line"
           id="tspan138635"
           x="445.33475"
           y="816.08118">$\bf{v}$</tspan></text></g></g></svg>
