<?xml version="1.0" encoding="UTF-8" standalone="no"?>
<!-- Created with Inkscape (http://www.inkscape.org/) -->

<svg
   width="102.85632mm"
   height="80.604317mm"
   viewBox="0 0 102.85631 80.604317"
   version="1.1"
   id="svg72713"
   xml:space="preserve"
   inkscape:version="1.2 (1:1.2.1+202207142221+cd75a1ee6d)"
   sodipodi:docname="Example-CutLocus-Figure8.svg"
   xmlns:inkscape="http://www.inkscape.org/namespaces/inkscape"
   xmlns:sodipodi="http://sodipodi.sourceforge.net/DTD/sodipodi-0.dtd"
   xmlns="http://www.w3.org/2000/svg"
   xmlns:svg="http://www.w3.org/2000/svg"><sodipodi:namedview
     id="namedview72715"
     pagecolor="#ffffff"
     bordercolor="#999999"
     borderopacity="1"
     inkscape:showpageshadow="0"
     inkscape:pageopacity="0"
     inkscape:pagecheckerboard="0"
     inkscape:deskcolor="#d1d1d1"
     inkscape:document-units="mm"
     showgrid="false"
     inkscape:zoom="1"
     inkscape:cx="135.5"
     inkscape:cy="34.5"
     inkscape:window-width="1600"
     inkscape:window-height="832"
     inkscape:window-x="0"
     inkscape:window-y="32"
     inkscape:window-maximized="1"
     inkscape:current-layer="layer1" /><defs
     id="defs72710"><marker
       style="overflow:visible"
       id="Arrow5"
       refX="0"
       refY="0"
       orient="auto-start-reverse"
       inkscape:stockid="Arrow5"
       markerWidth="5.8874264"
       markerHeight="6.6094756"
       viewBox="0 0 5.8874262 6.6094758"
       inkscape:isstock="true"
       inkscape:collect="always"
       preserveAspectRatio="xMidYMid"><path
         transform="scale(0.5)"
         style="fill:context-stroke;fill-rule:evenodd;stroke:context-stroke;stroke-width:1pt"
         d="m 6,0 c -3,1 -7,3 -9,5 0,0 0,-4 2,-5 -2,-1 -2,-5 -2,-5 2,2 6,4 9,5 z"
         id="path8893" /></marker></defs><g
     inkscape:label="Layer 1"
     inkscape:groupmode="layer"
     id="layer1"
     transform="translate(-50.444644,-84.201054)"><path
       style="fill:none;stroke:#4d4d4d;stroke-width:0.25;stroke-linecap:butt;stroke-linejoin:miter;stroke-dasharray:none;stroke-opacity:1;marker-end:url(#Arrow5)"
       d="M 50.444644,133.88788 H 152.28744"
       id="path75394" /><path
       style="color:#000000;fill:#0088aa;stroke-width:1;-inkscape-stroke:none"
       d="m 68.97206,115.81332 -0.311193,0.17406 10.045243,17.98597 0.311193,-0.17405 z"
       id="path97148" /><g
       id="g97138"
       transform="matrix(-1.3496045,0.04227085,-0.04227085,-1.3496045,194.45805,299.64113)"
       style="fill:#0088aa;fill-opacity:1;stroke-width:0.740595"><g
         id="path97140"
         style="fill:#0088aa;fill-opacity:1;stroke-width:0.740595"><path
           style="color:#000000;fill:#0088aa;fill-opacity:1;fill-rule:evenodd;stroke-width:0.097974pt;-inkscape-stroke:none"
           d="m 84.489981,130.71414 c 0.309018,0.28199 0.798042,0.61497 1.158052,0.71695 0,0 -0.461995,0.25803 -0.706506,0.0915 0.01351,0.2955 -0.448481,0.55353 -0.448481,0.55353 0.101985,-0.36001 0.07496,-0.95102 -0.0031,-1.36202 z"
           id="path97144" /><path
           style="color:#000000;fill:#0088aa;fill-opacity:1;fill-rule:evenodd;stroke-width:0.740595;-inkscape-stroke:none"
           d="m 84.34375,130.41211 0.05859,0.31836 c 0.07586,0.39944 0.09983,0.99054 0.0059,1.32226 l -0.05859,0.20508 0.185547,-0.10547 c 0,0 0.124024,-0.067 0.246094,-0.17578 0.100518,-0.0896 0.172538,-0.22858 0.203125,-0.37695 0.142364,0.0518 0.298734,0.062 0.427734,0.0234 0.156668,-0.0469 0.279297,-0.11524 0.279297,-0.11524 l 0.185547,-0.10351 -0.205078,-0.0586 c -0.331049,-0.0938 -0.820602,-0.42158 -1.121094,-0.69531 -6.12e-4,-5.6e-4 -0.0013,-0.001 -0.002,-0.002 z m 0.232422,0.45703 c 0.262848,0.21995 0.579108,0.42121 0.882812,0.54492 -0.04034,0.0174 -0.0434,0.0248 -0.09766,0.041 -0.135458,0.0405 -0.287714,0.0509 -0.371094,-0.006 l -0.144531,-0.0996 0.0078,0.17773 c 0.0046,0.10077 -0.08391,0.22233 -0.189454,0.31641 -0.04222,0.0376 -0.04999,0.0373 -0.08594,0.0625 0.05387,-0.3234 0.04746,-0.69809 -0.002,-1.03711 z"
           id="path97146" /></g></g><path
       style="fill:#00aa44;stroke:#00aa44;stroke-width:0.264583px;stroke-linecap:butt;stroke-linejoin:miter;stroke-opacity:1"
       d="M 78.561485,133.87531 59.627003,126.51038"
       id="path87128"
       sodipodi:nodetypes="cc" /><g
       id="g97374"
       transform="matrix(-1.0369042,0.86489817,-0.86489817,-1.0369042,270.71586,193.01869)"
       style="fill:#00aa44;fill-opacity:1;stroke-width:0.740595"><g
         id="g97372"
         style="fill:#00aa44;fill-opacity:1;stroke-width:0.740595"><path
           style="color:#000000;fill:#00aa44;fill-opacity:1;fill-rule:evenodd;stroke-width:0.097974pt"
           d="m 84.489981,130.71414 c 0.309018,0.28199 0.798042,0.61497 1.158052,0.71695 0,0 -0.461995,0.25803 -0.706506,0.0915 0.01351,0.2955 -0.448481,0.55353 -0.448481,0.55353 0.101985,-0.36001 0.07496,-0.95102 -0.0031,-1.36202 z"
           id="path97368" /><path
           style="color:#000000;fill:#00aa44;fill-opacity:1;fill-rule:evenodd;stroke-width:0.740595"
           d="m 84.34375,130.41211 0.05859,0.31836 c 0.07586,0.39944 0.09983,0.99054 0.0059,1.32226 l -0.05859,0.20508 0.185547,-0.10547 c 0,0 0.124024,-0.067 0.246094,-0.17578 0.100518,-0.0896 0.172538,-0.22858 0.203125,-0.37695 0.142364,0.0518 0.298734,0.062 0.427734,0.0234 0.156668,-0.0469 0.279297,-0.11524 0.279297,-0.11524 l 0.185547,-0.10351 -0.205078,-0.0586 c -0.331049,-0.0938 -0.820602,-0.42158 -1.121094,-0.69531 -6.12e-4,-5.6e-4 -0.0013,-0.001 -0.002,-0.002 z m 0.232422,0.45703 c 0.262848,0.21995 0.579108,0.42121 0.882812,0.54492 -0.04034,0.0174 -0.0434,0.0248 -0.09766,0.041 -0.135458,0.0405 -0.287714,0.0509 -0.371094,-0.006 l -0.144531,-0.0996 0.0078,0.17773 c 0.0046,0.10077 -0.08391,0.22233 -0.189454,0.31641 -0.04222,0.0376 -0.04999,0.0373 -0.08594,0.0625 0.05387,-0.3234 0.04746,-0.69809 -0.002,-1.03711 z"
           id="path97370" /></g></g><text
       xml:space="preserve"
       style="font-size:5.71612px;line-height:1.25;font-family:'Century Schoolbook';-inkscape-font-specification:'Century Schoolbook, Normal';font-variant-ligatures:none;stroke-width:0.264583"
       x="74.68325"
       y="140.47473"
       id="text97538"><tspan
         sodipodi:role="line"
         id="tspan97536"
         style="stroke-width:0.264583"
         x="74.68325"
         y="140.47473">$C_1$</tspan></text><text
       xml:space="preserve"
       style="font-size:5.71612px;line-height:1.25;font-family:'Century Schoolbook';-inkscape-font-specification:'Century Schoolbook, Normal';font-variant-ligatures:none;stroke-width:0.264583"
       x="117.60854"
       y="140.47473"
       id="text97542"><tspan
         sodipodi:role="line"
         id="tspan97540"
         style="stroke-width:0.264583"
         x="117.60854"
         y="140.47473">$C_2$</tspan></text><path
       style="fill:none;stroke:#cc00ff;stroke-width:0.5;stroke-linecap:butt;stroke-linejoin:miter;stroke-opacity:1;stroke-dasharray:none"
       d="m 93.161283,119.07802 6.301486,-6.52509 6.328321,6.55379"
       id="path502" /><text
       xml:space="preserve"
       style="font-size:5.71612px;line-height:1.25;font-family:'Century Schoolbook';-inkscape-font-specification:'Century Schoolbook, Normal';font-variant-ligatures:none;fill:#0088aa;fill-opacity:1;stroke-width:0.264583"
       x="73.547455"
       y="123.62104"
       id="text1117"><tspan
         sodipodi:role="line"
         id="tspan1115"
         style="fill:#0088aa;fill-opacity:1;stroke-width:0.264583"
         x="73.547455"
         y="123.62104">$\gamma$</tspan></text><path
       style="fill:none;stroke:#7137c8;stroke-width:0.5;stroke-linecap:butt;stroke-linejoin:miter;stroke-opacity:1;stroke-dasharray:none"
       d="M 89.292968,116.03328 99.462769,98.959041 109.62289,116.18531"
       id="path2063" /><path
       style="fill:none;stroke:#3e564a;stroke-width:0.5;stroke-linecap:butt;stroke-linejoin:miter;stroke-dasharray:none;stroke-opacity:1;marker-end:url(#Arrow5)"
       d="M 99.462769,164.80537 V 85.214577"
       id="path83402" /><circle
       style="font-variation-settings:normal;opacity:1;fill:none;fill-opacity:1;fill-rule:evenodd;stroke:#0000ff;stroke-width:0.5;stroke-linecap:butt;stroke-linejoin:miter;stroke-miterlimit:4;stroke-dasharray:none;stroke-dashoffset:0;stroke-opacity:1;paint-order:fill stroke markers;stop-color:#000000;stop-opacity:1"
       id="circle83410"
       cx="78.861801"
       cy="133.88753"
       r="20.600965" /><text
       xml:space="preserve"
       style="font-size:5.71612px;line-height:1.25;font-family:'Century Schoolbook';-inkscape-font-specification:'Century Schoolbook, Normal';font-variant-ligatures:none;fill:#00aa44;fill-opacity:1;stroke-width:0.264583"
       x="61.496807"
       y="131.5712"
       id="text2183"><tspan
         sodipodi:role="line"
         id="tspan2181"
         style="fill:#00aa44;fill-opacity:1;stroke-width:0.264583"
         x="61.496807"
         y="131.5712">$\eta$</tspan></text><g
       id="path4390"
       style="fill:#7137c8;fill-opacity:1;stroke-width:2.8104"
       transform="matrix(-0.33197082,0.12807914,-0.12807914,-0.33197082,119.1197,134.86262)"><path
         style="color:#000000;fill:#7137c8;fill-opacity:1;fill-rule:evenodd;stroke-width:1.21922pt;-inkscape-stroke:none"
         d="m 38.363125,95.902584 c -0.716132,1.170118 -1.484692,2.95151 -1.589551,4.174056 0,0 -1.117689,-1.327404 -0.733408,-2.2181 -0.943125,0.226994 -2.060814,-1.100412 -2.060814,-1.100412 1.222547,0.104858 3.108797,-0.349128 4.383773,-0.855544 z"
         id="path4394" /><path
         style="color:#000000;fill:#7137c8;fill-opacity:1;fill-rule:evenodd;stroke-width:2.8104;-inkscape-stroke:none"
         d="m 39.0625,95.314453 -0.806641,0.320313 c -1.239136,0.49218 -3.125459,0.932557 -4.251953,0.835937 l -0.695312,-0.06055 0.449218,0.535156 c 0,0 0.296502,0.352227 0.722657,0.677735 0.349987,0.267329 0.840725,0.418005 1.335937,0.425781 -0.07563,0.488505 -0.01403,0.99697 0.189453,1.386719 0.248185,0.47536 0.546875,0.828126 0.546875,0.828126 l 0.449219,0.53321 0.06055,-0.69532 c 0.09662,-1.126493 0.850874,-2.911603 1.546875,-4.048829 z m -1.253906,1.054688 c -0.515203,0.946896 -0.936241,2.011071 -1.146485,3.017578 -0.06482,-0.100151 -0.07777,-0.09462 -0.142578,-0.21875 -0.214589,-0.411015 -0.343927,-0.891594 -0.21289,-1.195313 l 0.228515,-0.53125 -0.5625,0.136719 c -0.321596,0.0774 -0.772155,-0.132616 -1.140625,-0.414063 -0.110658,-0.08452 -0.102138,-0.09719 -0.189453,-0.177734 1.027029,-0.03596 2.145837,-0.271044 3.166016,-0.617187 z"
         id="path4396" /></g><g
       id="g4691"
       style="fill:#7137c8;fill-opacity:1;stroke-width:2.8104"
       transform="matrix(0.33197082,0.12807914,0.12807914,-0.33197082,79.689772,134.86261)"><path
         style="color:#000000;fill:#7137c8;fill-opacity:1;fill-rule:evenodd;stroke-width:1.21922pt;-inkscape-stroke:none"
         d="m 38.363125,95.902584 c -0.716132,1.170118 -1.484692,2.95151 -1.589551,4.174056 0,0 -1.117689,-1.327404 -0.733408,-2.2181 -0.943125,0.226994 -2.060814,-1.100412 -2.060814,-1.100412 1.222547,0.104858 3.108797,-0.349128 4.383773,-0.855544 z"
         id="path4687" /><path
         style="color:#000000;fill:#7137c8;fill-opacity:1;fill-rule:evenodd;stroke-width:2.8104;-inkscape-stroke:none"
         d="m 39.0625,95.314453 -0.806641,0.320313 c -1.239136,0.49218 -3.125459,0.932557 -4.251953,0.835937 l -0.695312,-0.06055 0.449218,0.535156 c 0,0 0.296502,0.352227 0.722657,0.677735 0.349987,0.267329 0.840725,0.418005 1.335937,0.425781 -0.07563,0.488505 -0.01403,0.99697 0.189453,1.386719 0.248185,0.47536 0.546875,0.828126 0.546875,0.828126 l 0.449219,0.53321 0.06055,-0.69532 c 0.09662,-1.126493 0.850874,-2.911603 1.546875,-4.048829 z m -1.253906,1.054688 c -0.515203,0.946896 -0.936241,2.011071 -1.146485,3.017578 -0.06482,-0.100151 -0.07777,-0.09462 -0.142578,-0.21875 -0.214589,-0.411015 -0.343927,-0.891594 -0.21289,-1.195313 l 0.228515,-0.53125 -0.5625,0.136719 c -0.321596,0.0774 -0.772155,-0.132616 -1.140625,-0.414063 -0.110658,-0.08452 -0.102138,-0.09719 -0.189453,-0.177734 1.027029,-0.03596 2.145837,-0.271044 3.166016,-0.617187 z"
         id="path4689" /></g><g
       id="g4697"
       style="fill:#cc00ff;fill-opacity:1;stroke-width:2.8104"
       transform="matrix(-0.35368611,0.03892341,-0.03892341,-0.35368611,113.39521,148.45756)"><path
         style="color:#000000;fill:#cc00ff;fill-opacity:1;fill-rule:evenodd;stroke-width:1.21922pt;-inkscape-stroke:none"
         d="m 38.363125,95.902584 c -0.716132,1.170118 -1.484692,2.95151 -1.589551,4.174056 0,0 -1.117689,-1.327404 -0.733408,-2.2181 -0.943125,0.226994 -2.060814,-1.100412 -2.060814,-1.100412 1.222547,0.104858 3.108797,-0.349128 4.383773,-0.855544 z"
         id="path4693" /><path
         style="color:#000000;fill:#cc00ff;fill-opacity:1;fill-rule:evenodd;stroke-width:2.8104;-inkscape-stroke:none"
         d="m 39.0625,95.314453 -0.806641,0.320313 c -1.239136,0.49218 -3.125459,0.932557 -4.251953,0.835937 l -0.695312,-0.06055 0.449218,0.535156 c 0,0 0.296502,0.352227 0.722657,0.677735 0.349987,0.267329 0.840725,0.418005 1.335937,0.425781 -0.07563,0.488505 -0.01403,0.99697 0.189453,1.386719 0.248185,0.47536 0.546875,0.828126 0.546875,0.828126 l 0.449219,0.53321 0.06055,-0.69532 c 0.09662,-1.126493 0.850874,-2.911603 1.546875,-4.048829 z m -1.253906,1.054688 c -0.515203,0.946896 -0.936241,2.011071 -1.146485,3.017578 -0.06482,-0.100151 -0.07777,-0.09462 -0.142578,-0.21875 -0.214589,-0.411015 -0.343927,-0.891594 -0.21289,-1.195313 l 0.228515,-0.53125 -0.5625,0.136719 c -0.321596,0.0774 -0.772155,-0.132616 -1.140625,-0.414063 -0.110658,-0.08452 -0.102138,-0.09719 -0.189453,-0.177734 1.027029,-0.03596 2.145837,-0.271044 3.166016,-0.617187 z"
         id="path4695" /></g><g
       id="g5510"
       style="fill:#cc00ff;fill-opacity:1;stroke-width:2.8104"
       transform="matrix(0.3536861,0.03892341,0.03892341,-0.3536861,85.503539,148.44261)"><path
         style="color:#000000;fill:#cc00ff;fill-opacity:1;fill-rule:evenodd;stroke-width:1.21922pt"
         d="m 38.363125,95.902584 c -0.716132,1.170118 -1.484692,2.95151 -1.589551,4.174056 0,0 -1.117689,-1.327404 -0.733408,-2.2181 -0.943125,0.226994 -2.060814,-1.100412 -2.060814,-1.100412 1.222547,0.104858 3.108797,-0.349128 4.383773,-0.855544 z"
         id="path5506" /><path
         style="color:#000000;fill:#cc00ff;fill-opacity:1;fill-rule:evenodd;stroke-width:2.8104"
         d="m 39.0625,95.314453 -0.806641,0.320313 c -1.239136,0.49218 -3.125459,0.932557 -4.251953,0.835937 l -0.695312,-0.06055 0.449218,0.535156 c 0,0 0.296502,0.352227 0.722657,0.677735 0.349987,0.267329 0.840725,0.418005 1.335937,0.425781 -0.07563,0.488505 -0.01403,0.99697 0.189453,1.386719 0.248185,0.47536 0.546875,0.828126 0.546875,0.828126 l 0.449219,0.53321 0.06055,-0.69532 c 0.09662,-1.126493 0.850874,-2.911603 1.546875,-4.048829 z m -1.253906,1.054688 c -0.515203,0.946896 -0.936241,2.011071 -1.146485,3.017578 -0.06482,-0.100151 -0.07777,-0.09462 -0.142578,-0.21875 -0.214589,-0.411015 -0.343927,-0.891594 -0.21289,-1.195313 l 0.228515,-0.53125 -0.5625,0.136719 c -0.321596,0.0774 -0.772155,-0.132616 -1.140625,-0.414063 -0.110658,-0.08452 -0.102138,-0.09719 -0.189453,-0.177734 1.027029,-0.03596 2.145837,-0.271044 3.166016,-0.617187 z"
         id="path5508" /></g><g
       id="g7008"
       style="fill:#cc00ff;fill-opacity:1;stroke-width:2.8104"
       transform="matrix(0.3536861,0.03892341,0.03892341,-0.3536861,85.503539,148.44261)"><path
         style="color:#000000;fill:#cc00ff;fill-opacity:1;fill-rule:evenodd;stroke-width:1.21922pt"
         d="m 38.363125,95.902584 c -0.716132,1.170118 -1.484692,2.95151 -1.589551,4.174056 0,0 -1.117689,-1.327404 -0.733408,-2.2181 -0.943125,0.226994 -2.060814,-1.100412 -2.060814,-1.100412 1.222547,0.104858 3.108797,-0.349128 4.383773,-0.855544 z"
         id="path7004" /><path
         style="color:#000000;fill:#cc00ff;fill-opacity:1;fill-rule:evenodd;stroke-width:2.8104"
         d="m 39.0625,95.314453 -0.806641,0.320313 c -1.239136,0.49218 -3.125459,0.932557 -4.251953,0.835937 l -0.695312,-0.06055 0.449218,0.535156 c 0,0 0.296502,0.352227 0.722657,0.677735 0.349987,0.267329 0.840725,0.418005 1.335937,0.425781 -0.07563,0.488505 -0.01403,0.99697 0.189453,1.386719 0.248185,0.47536 0.546875,0.828126 0.546875,0.828126 l 0.449219,0.53321 0.06055,-0.69532 c 0.09662,-1.126493 0.850874,-2.911603 1.546875,-4.048829 z m -1.253906,1.054688 c -0.515203,0.946896 -0.936241,2.011071 -1.146485,3.017578 -0.06482,-0.100151 -0.07777,-0.09462 -0.142578,-0.21875 -0.214589,-0.411015 -0.343927,-0.891594 -0.21289,-1.195313 l 0.228515,-0.53125 -0.5625,0.136719 c -0.321596,0.0774 -0.772155,-0.132616 -1.140625,-0.414063 -0.110658,-0.08452 -0.102138,-0.09719 -0.189453,-0.177734 1.027029,-0.03596 2.145837,-0.271044 3.166016,-0.617187 z"
         id="path7006" /></g><circle
       style="font-variation-settings:normal;opacity:1;vector-effect:none;fill:#ff0000;fill-opacity:1;fill-rule:evenodd;stroke:none;stroke-width:0.932413;stroke-linecap:butt;stroke-linejoin:miter;stroke-miterlimit:4;stroke-dasharray:none;stroke-dashoffset:0;stroke-opacity:1;-inkscape-stroke:none;paint-order:fill stroke markers;stop-color:#000000;stop-opacity:1"
       id="circle5514"
       cx="99.462769"
       cy="112.55293"
       r="1.25" /><circle
       style="font-variation-settings:normal;opacity:1;vector-effect:none;fill:#ff0000;fill-opacity:1;fill-rule:evenodd;stroke:none;stroke-width:0.932413;stroke-linecap:butt;stroke-linejoin:miter;stroke-miterlimit:4;stroke-dasharray:none;stroke-dashoffset:0;stroke-opacity:1;-inkscape-stroke:none;paint-order:fill stroke markers;stop-color:#000000;stop-opacity:1"
       id="circle6992"
       cx="99.458206"
       cy="99.263115"
       r="1.25" /><circle
       style="font-variation-settings:normal;opacity:1;vector-effect:none;fill:#ff0000;fill-opacity:1;fill-rule:evenodd;stroke:none;stroke-width:0.932413;stroke-linecap:butt;stroke-linejoin:miter;stroke-miterlimit:4;stroke-dasharray:none;stroke-dashoffset:0;stroke-opacity:1;-inkscape-stroke:none;paint-order:fill stroke markers;stop-color:#000000;stop-opacity:1"
       id="circle6996"
       cx="78.706108"
       cy="133.97334"
       r="1.25" /><path
       style="fill:none;stroke:#000000;stroke-width:0.5;stroke-linecap:butt;stroke-linejoin:miter;stroke-opacity:1;stroke-dasharray:none"
       d="m 120.06374,133.88753 14.54928,-14.58487"
       id="path7002" /><g
       id="g7029"
       style="fill:#000000;fill-opacity:1;stroke-width:2.8104"
       transform="matrix(-0.01484554,0.35551159,0.35551159,0.01484554,93.468618,111.85858)"><path
         style="color:#000000;fill:#000000;fill-opacity:1;fill-rule:evenodd;stroke-width:1.21922pt"
         d="m 38.363125,95.902584 c -0.716132,1.170118 -1.484692,2.95151 -1.589551,4.174056 0,0 -1.117689,-1.327404 -0.733408,-2.2181 -0.943125,0.226994 -2.060814,-1.100412 -2.060814,-1.100412 1.222547,0.104858 3.108797,-0.349128 4.383773,-0.855544 z"
         id="path7025" /><path
         style="color:#000000;fill:#000000;fill-opacity:1;fill-rule:evenodd;stroke-width:2.8104"
         d="m 39.0625,95.314453 -0.806641,0.320313 c -1.239136,0.49218 -3.125459,0.932557 -4.251953,0.835937 l -0.695312,-0.06055 0.449218,0.535156 c 0,0 0.296502,0.352227 0.722657,0.677735 0.349987,0.267329 0.840725,0.418005 1.335937,0.425781 -0.07563,0.488505 -0.01403,0.99697 0.189453,1.386719 0.248185,0.47536 0.546875,0.828126 0.546875,0.828126 l 0.449219,0.53321 0.06055,-0.69532 c 0.09662,-1.126493 0.850874,-2.911603 1.546875,-4.048829 z m -1.253906,1.054688 c -0.515203,0.946896 -0.936241,2.011071 -1.146485,3.017578 -0.06482,-0.100151 -0.07777,-0.09462 -0.142578,-0.21875 -0.214589,-0.411015 -0.343927,-0.891594 -0.21289,-1.195313 l 0.228515,-0.53125 -0.5625,0.136719 c -0.321596,0.0774 -0.772155,-0.132616 -1.140625,-0.414063 -0.110658,-0.08452 -0.102138,-0.09719 -0.189453,-0.177734 1.027029,-0.03596 2.145837,-0.271044 3.166016,-0.617187 z"
         id="path7027" /></g><g
       id="g7876"
       inkscape:transform-center-x="-9.142053"
       inkscape:transform-center-y="5.2641552"
       transform="rotate(75,119.88746,134.06318)"><path
         style="fill:none;stroke:#000000;stroke-width:0.5;stroke-linecap:butt;stroke-linejoin:miter;stroke-dasharray:none;stroke-opacity:1"
         d="m 120.06374,133.88753 14.40701,-14.46556"
         id="path7864"
         sodipodi:nodetypes="cc" /><g
         id="g7870"
         style="fill:#000000;fill-opacity:1;stroke-width:2.8104"
         transform="matrix(-0.01484554,0.35551159,0.35551159,0.01484554,93.468618,111.85858)"><path
           style="color:#000000;fill:#000000;fill-opacity:1;fill-rule:evenodd;stroke-width:1.21922pt"
           d="m 38.363125,95.902584 c -0.716132,1.170118 -1.484692,2.95151 -1.589551,4.174056 0,0 -1.117689,-1.327404 -0.733408,-2.2181 -0.943125,0.226994 -2.060814,-1.100412 -2.060814,-1.100412 1.222547,0.104858 3.108797,-0.349128 4.383773,-0.855544 z"
           id="path7866" /><path
           style="color:#000000;fill:#000000;fill-opacity:1;fill-rule:evenodd;stroke-width:2.8104"
           d="m 39.0625,95.314453 -0.806641,0.320313 c -1.239136,0.49218 -3.125459,0.932557 -4.251953,0.835937 l -0.695312,-0.06055 0.449218,0.535156 c 0,0 0.296502,0.352227 0.722657,0.677735 0.349987,0.267329 0.840725,0.418005 1.335937,0.425781 -0.07563,0.488505 -0.01403,0.99697 0.189453,1.386719 0.248185,0.47536 0.546875,0.828126 0.546875,0.828126 l 0.449219,0.53321 0.06055,-0.69532 c 0.09662,-1.126493 0.850874,-2.911603 1.546875,-4.048829 z m -1.253906,1.054688 c -0.515203,0.946896 -0.936241,2.011071 -1.146485,3.017578 -0.06482,-0.100151 -0.07777,-0.09462 -0.142578,-0.21875 -0.214589,-0.411015 -0.343927,-0.891594 -0.21289,-1.195313 l 0.228515,-0.53125 -0.5625,0.136719 c -0.321596,0.0774 -0.772155,-0.132616 -1.140625,-0.414063 -0.110658,-0.08452 -0.102138,-0.09719 -0.189453,-0.177734 1.027029,-0.03596 2.145837,-0.271044 3.166016,-0.617187 z"
           id="path7868" /></g></g><circle
       style="font-variation-settings:normal;opacity:1;vector-effect:none;fill:#ff0000;fill-opacity:1;fill-rule:evenodd;stroke:none;stroke-width:0.932413;stroke-linecap:butt;stroke-linejoin:miter;stroke-miterlimit:4;stroke-dasharray:none;stroke-dashoffset:0;stroke-opacity:1;-inkscape-stroke:none;paint-order:fill stroke markers;stop-color:#000000;stop-opacity:1"
       id="circle6994"
       cx="120.06374"
       cy="133.88753"
       r="1.25" /><circle
       style="font-variation-settings:normal;opacity:1;fill:none;fill-opacity:1;fill-rule:evenodd;stroke:#0000ff;stroke-width:0.5;stroke-linecap:butt;stroke-linejoin:miter;stroke-miterlimit:4;stroke-dasharray:none;stroke-dashoffset:0;stroke-opacity:1;paint-order:fill stroke markers;stop-color:#000000;stop-opacity:1"
       id="circle97534"
       cx="120.06374"
       cy="133.88753"
       r="20.600965" /></g></svg>
