<?xml version="1.0" encoding="UTF-8" standalone="no"?>
<!-- Created with Inkscape (http://www.inkscape.org/) -->

<svg
   width="361.741mm"
   height="228.64575mm"
   viewBox="0 0 361.741 228.64575"
   version="1.1"
   id="svg5"
   xml:space="preserve"
   inkscape:version="1.2 (1:1.2.1+202207142221+cd75a1ee6d)"
   sodipodi:docname="Example-Torus-CutLocusPointProductMetric-01.svg"
   xmlns:inkscape="http://www.inkscape.org/namespaces/inkscape"
   xmlns:sodipodi="http://sodipodi.sourceforge.net/DTD/sodipodi-0.dtd"
   xmlns:xlink="http://www.w3.org/1999/xlink"
   xmlns="http://www.w3.org/2000/svg"
   xmlns:svg="http://www.w3.org/2000/svg"><sodipodi:namedview
     id="namedview7"
     pagecolor="#ffffff"
     bordercolor="#999999"
     borderopacity="1"
     inkscape:showpageshadow="0"
     inkscape:pageopacity="0"
     inkscape:pagecheckerboard="0"
     inkscape:deskcolor="#d1d1d1"
     inkscape:document-units="mm"
     showgrid="false"
     inkscape:zoom="0.70710678"
     inkscape:cx="700.74282"
     inkscape:cy="615.89001"
     inkscape:window-width="1600"
     inkscape:window-height="832"
     inkscape:window-x="0"
     inkscape:window-y="32"
     inkscape:window-maximized="1"
     inkscape:current-layer="layer1-3" /><defs
     id="defs2"><clipPath
       clipPathUnits="userSpaceOnUse"
       id="clipPath200"><path
         d="M 267.914,0 C 196.859,0 128.711,17.84 78.469,49.598 28.227,81.355 0,124.43 0,169.34 c 0,93.523 119.949,169.34 267.914,169.34 147.961,0 267.91,-75.817 267.91,-169.34 0,-44.91 -28.226,-87.985 -78.469,-119.742 C 407.113,17.84 338.969,0 267.914,0 Z m -0.172,135.301 c 17.824,-0.004 32.875,2.074 48.266,6.664 28.023,8.359 48.914,24.359 55.031,42.152 1.117,3.258 1.875,6.914 1.883,9.106 0.008,1.785 -0.004,1.8 -1.774,2.566 -6.277,2.723 -23.988,7.949 -34.699,10.246 -25.121,5.387 -55.566,7.77 -83.707,6.547 -32.074,-1.387 -63.105,-7.195 -86.316,-16.152 l -3.821,-1.473 0.184,-1.391 c 0.551,-4.211 1.031,-6.539 1.852,-8.988 6.972,-20.832 32.586,-38.258 67.066,-45.629 12.223,-2.613 22.398,-3.64 36.035,-3.648 z"
         clip-rule="evenodd"
         id="path198" /></clipPath><clipPath
       clipPathUnits="userSpaceOnUse"
       id="clipPath208"><path
         d="M 10.486238,63.925705 H 199.57513 V 183.51737 H 10.486238 Z"
         id="path206" /></clipPath><linearGradient
       x1="10.486238"
       y1="123.66495"
       x2="199.51346"
       y2="123.66495"
       gradientUnits="userSpaceOnUse"
       spreadMethod="pad"
       id="linearGradient222"><stop
         style="stop-opacity:1;stop-color:#ffffff"
         offset="0"
         id="stop210" /><stop
         style="stop-opacity:0.72941176;stop-color:#ffffff"
         offset="0.268593"
         id="stop212" /><stop
         style="stop-opacity:0.70885786;stop-color:#ffffff"
         offset="0.543458"
         id="stop214" /><stop
         style="stop-opacity:0.61780728;stop-color:#ffffff"
         offset="0.828635"
         id="stop216" /><stop
         style="stop-opacity:0.99349966;stop-color:#ffffff"
         offset="0.998445"
         id="stop218" /><stop
         style="stop-opacity:0.99349966;stop-color:#ffffff"
         offset="1"
         id="stop220" /></linearGradient><mask
       maskUnits="userSpaceOnUse"
       x="0"
       y="0"
       width="1"
       height="1"
       id="mask224"><g
         id="g230"><g
           clip-path="url(#clipPath208)"
           id="g228"><path
             d="M 10.486238,63.925705 H 199.57513 V 183.51737 H 10.486238 Z"
             style="fill:url(#linearGradient222);stroke:none"
             id="path226" /></g></g></mask><linearGradient
       x1="10.486238"
       y1="123.66495"
       x2="199.51346"
       y2="123.66495"
       gradientUnits="userSpaceOnUse"
       spreadMethod="pad"
       id="linearGradient246"><stop
         style="stop-opacity:1;stop-color:#6ca8ae"
         offset="0"
         id="stop234" /><stop
         style="stop-opacity:1;stop-color:#62a8af"
         offset="0.268593"
         id="stop236" /><stop
         style="stop-opacity:1;stop-color:#438e91"
         offset="0.543458"
         id="stop238" /><stop
         style="stop-opacity:1;stop-color:#256970"
         offset="0.828635"
         id="stop240" /><stop
         style="stop-opacity:1;stop-color:#7da4a4"
         offset="0.998445"
         id="stop242" /><stop
         style="stop-opacity:1;stop-color:#7da4a4"
         offset="1"
         id="stop244" /></linearGradient><clipPath
       clipPathUnits="userSpaceOnUse"
       id="clipPath264"><path
         d="M 0,0 H 536 V 339 H 0 Z"
         id="path262" /></clipPath><clipPath
       clipPathUnits="userSpaceOnUse"
       id="clipPath282"><path
         d="M 0,0 H 536 V 339 H 0 Z"
         id="path280" /></clipPath><clipPath
       clipPathUnits="userSpaceOnUse"
       id="clipPath304"><path
         d="M 0,0 H 536 V 339 H 0 Z"
         id="path302" /></clipPath><clipPath
       clipPathUnits="userSpaceOnUse"
       id="clipPath334"><path
         d="M 0,0 H 536 V 339 H 0 Z"
         id="path332" /></clipPath><clipPath
       clipPathUnits="userSpaceOnUse"
       id="clipPath352"><path
         d="M 0,0 H 536 V 339 H 0 Z"
         id="path350" /></clipPath><clipPath
       clipPathUnits="userSpaceOnUse"
       id="clipPath370"><path
         d="M 0,0 H 536 V 339 H 0 Z"
         id="path368" /></clipPath><clipPath
       clipPathUnits="userSpaceOnUse"
       id="clipPath388"><path
         d="M 0,0 H 536 V 339 H 0 Z"
         id="path386" /></clipPath><inkscape:path-effect
       effect="bspline"
       id="path-effect32351"
       is_visible="true"
       lpeversion="1"
       weight="33.333333"
       steps="2"
       helper_size="0"
       apply_no_weight="true"
       apply_with_weight="true"
       only_selected="false" /><linearGradient
       inkscape:collect="always"
       id="linearGradient20102"><stop
         style="stop-color:#006858;stop-opacity:0.82518786;"
         offset="0"
         id="stop20098" /><stop
         style="stop-color:#3cafb8;stop-opacity:0.72941178;"
         offset="0.26859251"
         id="stop20106" /><stop
         style="stop-color:#3d8587;stop-opacity:1;"
         offset="0.54345793"
         id="stop20108" /><stop
         style="stop-color:#4fbbc9;stop-opacity:0.43743742;"
         offset="0.8286345"
         id="stop20110" /><stop
         style="stop-color:#359f9f;stop-opacity:0.15236002;"
         offset="0.99844509"
         id="stop20100" /></linearGradient><inkscape:path-effect
       effect="bspline"
       id="path-effect17083"
       is_visible="true"
       lpeversion="1"
       weight="33.333333"
       steps="2"
       helper_size="0"
       apply_no_weight="true"
       apply_with_weight="true"
       only_selected="false" /><linearGradient
       inkscape:collect="always"
       xlink:href="#linearGradient20102"
       id="linearGradient20104"
       x1="112.84271"
       y1="183.40421"
       x2="110.83202"
       y2="64.391907"
       gradientUnits="userSpaceOnUse"
       gradientTransform="matrix(1.9136979,0,0,1.9136979,-95.938142,-112.99241)" /></defs><g
     inkscape:label="Layer 1"
     inkscape:groupmode="layer"
     id="layer1"
     transform="translate(79.563299,-73.819072)" /><g
     inkscape:label="Layer 1"
     id="layer1-3"
     transform="translate(75.870645,-9.3420857)"><path
       id="path4839"
       style="font-variation-settings:normal;opacity:1;fill:url(#linearGradient20104);fill-opacity:1;fill-rule:evenodd;stroke:none;stroke-width:0.932002;stroke-linecap:butt;stroke-linejoin:miter;stroke-miterlimit:4;stroke-dasharray:none;stroke-dashoffset:0;stroke-opacity:1;paint-order:fill stroke markers;stop-color:#000000;stop-opacity:1"
       d="M 104.99985,9.3420857 A 180.87064,114.32285 0 0 0 -75.870645,123.66545 180.87064,114.32285 0 0 0 104.99985,237.98784 180.87064,114.32285 0 0 0 285.87036,123.66545 180.87064,114.32285 0 0 0 104.99985,9.3420857 Z m -0.11581,91.3435843 c 12.03346,-0.005 22.19458,1.39842 32.58626,4.49865 18.91858,5.64413 33.0209,16.446 37.15017,28.45648 0.75649,2.20035 1.26739,4.66799 1.27275,6.14819 0.004,1.20468 -0.004,1.21441 -1.19859,1.7326 -4.23777,1.83646 -16.19435,5.3673 -23.4258,6.91759 -16.95806,3.63548 -37.51295,5.24337 -56.511452,4.4205 -21.652305,-0.93778 -42.603632,-4.8586 -58.273738,-10.90592 l -2.577154,-0.99487 0.122637,-0.93751 c 0.373018,-2.84287 0.69754,-4.41655 1.250995,-6.07005 4.707037,-14.06276 21.999221,-25.82725 45.277208,-30.80323 8.250597,-1.76367 15.121865,-2.45902 24.326714,-2.46243 z" /><path
       style="opacity:1;vector-effect:none;fill:none;fill-rule:evenodd;stroke:#000000;stroke-width:0.932414;paint-order:fill stroke markers;stop-color:#000000;stop-opacity:1"
       d="m 206.7847,111.46565 c 0,11.58055 -11.27877,22.06954 -29.53299,29.68386 -18.41431,7.68111 -43.92689,12.43688 -72.1202,12.43688 -28.258426,0 -53.823755,-4.77778 -72.247694,-12.49016 C 14.704606,133.4863 3.4783234,123.0192 3.4783278,111.46565"
       id="ellipse4841" /><path
       style="font-variation-settings:normal;opacity:1;vector-effect:none;fill:none;fill-opacity:1;fill-rule:evenodd;stroke:#000080;stroke-width:0.932405;stroke-linecap:butt;stroke-linejoin:miter;stroke-miterlimit:4;stroke-dasharray:none;stroke-dashoffset:0;stroke-opacity:1;-inkscape-stroke:none;paint-order:fill stroke markers;stop-color:#000000;stop-opacity:1"
       d="m 10.197203,130.48553 c -5e-6,-30.43613 42.444718,-55.109478 94.802937,-55.109478 52.35822,3e-6 94.80293,24.673348 94.80293,55.109478"
       id="path5647" /><path
       style="font-variation-settings:normal;opacity:0.5;vector-effect:none;fill:none;fill-opacity:1;fill-rule:evenodd;stroke:#000080;stroke-width:0.932002;stroke-linecap:butt;stroke-linejoin:miter;stroke-miterlimit:4;stroke-dasharray:3.72801, 0.932002;stroke-dashoffset:0;stroke-opacity:1;-inkscape-stroke:none;paint-order:fill stroke markers;stop-color:#000000;stop-opacity:1"
       d="m 199.80307,130.48553 c 0,30.43612 -42.44471,55.10947 -94.80293,55.10947 -52.358213,0 -94.802935,-24.67335 -94.802937,-55.10947"
       id="path5605"
       sodipodi:nodetypes="ccc" /><path
       style="font-variation-settings:normal;opacity:0.5;vector-effect:none;fill:none;fill-opacity:1;fill-rule:evenodd;stroke:#000080;stroke-width:0.932002;stroke-linecap:butt;stroke-linejoin:miter;stroke-miterlimit:4;stroke-dasharray:3.72801, 0.932002;stroke-dashoffset:0;stroke-opacity:1;-inkscape-stroke:none;paint-order:fill stroke markers;stop-color:#000000;stop-opacity:1"
       d="m 116.16087,10.234256 c 6.1641,-7e-6 11.16108,19.798468 11.16108,44.221123 0,24.422651 -4.99698,44.221128 -11.16108,44.221128"
       id="path5723" /><path
       style="opacity:1;fill:none;fill-rule:evenodd;stroke:#000080;stroke-width:0.932405;paint-order:fill stroke markers;stop-color:#000000;stop-opacity:1"
       d="m 116.16087,98.676507 c -6.1641,-4.6e-5 -11.16107,-19.798515 -11.16107,-44.221128 0,-24.422627 4.99697,-44.221088 11.16107,-44.221123"
       id="path5679" /><path
       style="font-variation-settings:normal;opacity:0.5;vector-effect:none;fill:none;fill-opacity:1;stroke:#d400aa;stroke-width:0.932002;stroke-linecap:butt;stroke-linejoin:miter;stroke-miterlimit:4;stroke-dasharray:3.72801, 0.932002;stroke-dashoffset:0;stroke-opacity:1;-inkscape-stroke:none;paint-order:fill stroke markers;stop-color:#000000;stop-opacity:1"
       d="m 144.40236,151.18695 c 9.28271,-1.5628 19.05857,3.73524 27.80639,19.35931"
       id="path28409" /><g
       id="g36179"
       transform="matrix(1.9155724,0,0,1.923656,-96.136122,-114.70378)"
       style="stroke-width:0.52094;stroke:#d400aa"><path
         style="font-variation-settings:normal;opacity:1;fill:none;fill-opacity:1;stroke:#d400aa;stroke-width:0.485516;stroke-linecap:butt;stroke-linejoin:miter;stroke-miterlimit:4;stroke-dasharray:none;stroke-dashoffset:0;stroke-opacity:1;paint-order:fill stroke markers;stop-color:#000000;stop-opacity:1"
         d="m 105.8255,171.96977 c 1.01624,-15.84102 9.84441,-32.11256 19.74453,-33.74821"
         id="path26187" /><g
         id="g32385"
         transform="matrix(0.89359165,-1.4283412,1.3572633,0.93442149,-253.46855,77.371361)"
         style="font-variation-settings:normal;opacity:1;vector-effect:none;fill:#00ffff;fill-opacity:1;stroke:#d400aa;stroke-width:0.291526;stroke-linecap:butt;stroke-linejoin:miter;stroke-miterlimit:4;stroke-dasharray:none;stroke-dashoffset:0;stroke-opacity:1;-inkscape-stroke:none;paint-order:fill stroke markers;stop-color:#000000;stop-opacity:1"><g
           id="path32387"
           style="font-variation-settings:normal;vector-effect:none;fill:#00ffff;fill-opacity:1;stroke:#d400aa;stroke-width:0.291526;stroke-linecap:butt;stroke-linejoin:miter;stroke-miterlimit:4;stroke-dasharray:none;stroke-dashoffset:0;stroke-opacity:1;-inkscape-stroke:none;paint-order:fill stroke markers;stop-color:#000000;stop-opacity:1"><path
             style="color:#000000;font-variation-settings:normal;vector-effect:none;fill:#00ffff;fill-opacity:1;fill-rule:evenodd;stroke:#d400aa;stroke-width:0.291526;stroke-linecap:butt;stroke-linejoin:miter;stroke-miterlimit:4;stroke-dasharray:none;stroke-dashoffset:0;stroke-opacity:1;-inkscape-stroke:none;paint-order:fill stroke markers;stop-color:#000000;stop-opacity:1"
             d="m 88.905133,211.69321 c -0.396837,0.13241 -0.925928,0.39714 -1.190435,0.6618 0,0 -1.51e-4,-0.52917 0.264395,-0.66153 -0.264621,-0.13222 -0.264771,-0.66138 -0.264771,-0.66138 0.264658,0.2645 0.793899,0.52894 1.190811,0.66111 z"
             id="path32391" /><path
             style="color:#000000;font-variation-settings:normal;vector-effect:none;fill:#00ffff;fill-opacity:1;fill-rule:evenodd;stroke:#d400aa;stroke-width:0.291526;stroke-linecap:butt;stroke-linejoin:miter;stroke-miterlimit:4;stroke-dasharray:none;stroke-dashoffset:0;stroke-opacity:1;-inkscape-stroke:none;paint-order:fill stroke markers;stop-color:#000000;stop-opacity:1"
             d="m 87.626953,210.81836 v 0.21289 c 0,0 -3.63e-4,0.14116 0.03516,0.30078 0.02922,0.13132 0.114078,0.2623 0.228516,0.36133 -0.114383,0.0991 -0.199368,0.22999 -0.228516,0.36133 -0.03543,0.15964 -0.03516,0.30078 -0.03516,0.30078 v 0.21289 l 0.150391,-0.15039 c 0.243724,-0.24387 0.770566,-0.51194 1.15625,-0.64063 l 0.25,-0.084 -0.25,-0.084 c -0.385752,-0.12845 -0.912385,-0.3969 -1.15625,-0.64062 z m 0.195313,0.36914 c 0.256021,0.20442 0.584485,0.38385 0.904296,0.50586 -0.319739,0.1222 -0.64839,0.30129 -0.904296,0.50586 0.0045,-0.0438 -6.14e-4,-0.0499 0.01172,-0.10547 0.03063,-0.13803 0.09534,-0.27713 0.185547,-0.32227 l 0.15625,-0.0781 -0.158203,-0.0781 c -0.09024,-0.0451 -0.152882,-0.18229 -0.183594,-0.32031 -0.0125,-0.0562 -0.0073,-0.0633 -0.01172,-0.10742 z"
             id="path32393" /></g></g></g><path
       style="font-variation-settings:normal;opacity:0.5;fill:none;fill-opacity:1;stroke:#660080;stroke-width:0.932002;stroke-linecap:butt;stroke-linejoin:miter;stroke-miterlimit:4;stroke-dasharray:3.72802, 0.932002;stroke-dashoffset:0;stroke-opacity:1;paint-order:fill stroke markers;stop-color:#000000"
       d="m 106.71459,215.40633 c 26.6136,42.49723 68.7371,12.8748 71.63603,-28.2941"
       id="path28403"
       sodipodi:nodetypes="cc" /><g
       id="g35972"
       style="opacity:0.5;fill:#3d3475;fill-opacity:0.905882;stroke-width:0.742929"
       transform="matrix(1.2435783,0.5344497,-0.54415551,1.2230488,75.902829,-106.75656)"><g
         id="path35974"
         style="fill:#3d3475;fill-opacity:0.905882;stroke-width:0.742929"><path
           style="color:#000000;fill:#3d3475;fill-opacity:0.905882;fill-rule:evenodd;stroke-width:0.346204pt"
           d="m 160.16739,189.27028 c 0.36832,1.42685 1.16934,3.35077 2.03474,4.34492 0,0 -1.85955,-0.12875 -2.26006,-1.09071 -0.52926,0.89758 -2.38881,0.76883 -2.38881,0.76883 0.99415,-0.8654 2.05268,-2.66057 2.61413,-4.02304 z"
           id="path35978" /><path
           style="color:#000000;fill:#3d3475;fill-opacity:0.905882;fill-rule:evenodd;stroke-width:0.742929"
           d="m 160.23437,188.29102 -0.35351,0.86132 c -0.54567,1.32417 -1.61521,3.10885 -2.53125,3.90625 l -0.56641,0.49219 0.74805,0.0527 c 0,0 0.49486,0.035 1.06445,-0.0508 0.45277,-0.0682 0.94183,-0.26521 1.31641,-0.61523 0.32269,0.39961 0.78287,0.66083 1.22266,0.79102 0.55233,0.16349 1.04687,0.19726 1.04687,0.19726 l 0.74805,0.0508 -0.49414,-0.56445 c -0.79741,-0.91604 -1.60883,-2.83201 -1.9668,-4.21875 z m -0.12109,1.75585 c 0.34613,1.10504 0.85272,2.22459 1.47266,3.13868 -0.12575,-0.0248 -0.13112,-0.01 -0.27539,-0.0527 -0.47757,-0.14136 -0.94546,-0.40049 -1.08203,-0.72851 l -0.23829,-0.57227 -0.3164,0.53516 c -0.18047,0.30606 -0.67938,0.49611 -1.17188,0.57031 -0.14723,0.0222 -0.15038,0.006 -0.27734,0.0137 0.73941,-0.8197 1.39384,-1.85822 1.88867,-2.9043 z"
           id="path35980" /></g></g><path
       style="font-variation-settings:normal;opacity:0.5;fill:none;fill-opacity:1;stroke:#d400aa;stroke-width:0.932002;stroke-linecap:butt;stroke-linejoin:miter;stroke-miterlimit:4;stroke-dasharray:3.72802, 0.932002;stroke-dashoffset:0;stroke-opacity:1;paint-order:fill stroke markers;stop-color:#000000"
       d="m 172.20875,170.54626 c 2.21555,4.05983 4.29693,9.50214 6.14187,16.56597"
       id="path26221" /><g
       id="g36077"
       style="opacity:0.5;stroke-width:0.489722;fill:#d400aa;fill-opacity:1"
       transform="matrix(2.0318791,-0.20279101,0.20279101,2.0318791,-166.18221,-226.5043)"><g
         id="path36079"
         style="fill:#d400aa;fill-opacity:1;stroke-width:0.489722"
         transform="rotate(-2.0736117,146.32757,213.57207)"><path
           style="color:#000000;fill:#d400aa;fill-opacity:1;fill-rule:evenodd;stroke-width:0.11629pt"
           d="m 147.01047,214.75962 c -0.40977,-0.62925 -1.10931,-1.42825 -1.68883,-1.76774 0,0 0.91902,-0.24003 1.26878,0.15947 0.10974,-0.51952 1.02875,-0.75955 1.02875,-0.75955 -0.33949,0.57953 -0.55897,1.61855 -0.6087,2.36782 z"
           id="path36083" /><path
           style="color:#000000;fill:#d400aa;fill-opacity:1;fill-rule:evenodd;stroke-width:0.489722"
           d="m 147.94922,212.14258 -0.36914,0.0957 c 0,0 -0.24472,0.0633 -0.50586,0.19727 -0.21409,0.10986 -0.40285,0.31837 -0.52344,0.56054 -0.22388,-0.15351 -0.49124,-0.2413 -0.73242,-0.23242 -0.29333,0.0108 -0.53711,0.0742 -0.53711,0.0742 l -0.36914,0.0977 0.33008,0.19336 c 0.53399,0.31281 1.23651,1.10523 1.63476,1.71679 l 0.25977,0.39844 0.0312,-0.47461 c 0.0483,-0.72821 0.27507,-1.76287 0.58789,-2.29687 z m -0.55274,0.50586 c -0.23945,0.53757 -0.39974,1.19136 -0.46679,1.80273 -0.35748,-0.50062 -0.81521,-0.99375 -1.28711,-1.3457 0.0779,-0.012 0.0861,-0.0217 0.1875,-0.0254 0.25362,-0.009 0.52136,0.0396 0.64062,0.17578 l 0.20899,0.23828 0.0664,-0.31055 c 0.0374,-0.17715 0.24686,-0.35092 0.47266,-0.46679 0.0911,-0.0468 0.10352,-0.0407 0.17773,-0.0684 z"
           id="path36085" /></g><text
         xml:space="preserve"
         style="font-size:4.14632px;line-height:1.25;font-family:'Century Schoolbook';-inkscape-font-specification:'Century Schoolbook';font-variant-ligatures:none;stroke-width:0.0634544"
         x="166.38393"
         y="190.07329"
         id="text10843"
         transform="rotate(5.6995096)"><tspan
           sodipodi:role="line"
           id="tspan10841"
           style="stroke-width:0.0634544"></tspan></text></g><ellipse
       style="font-variation-settings:normal;opacity:1;vector-effect:none;fill:#ff0000;fill-opacity:1;fill-rule:evenodd;stroke:none;stroke-width:0.932404;stroke-linecap:butt;stroke-linejoin:miter;stroke-miterlimit:4;stroke-dasharray:none;stroke-dashoffset:0;stroke-opacity:1;-inkscape-stroke:none;paint-order:fill stroke markers;stop-color:#000000;stop-opacity:1"
       id="ellipse28405"
       cx="178.35062"
       cy="187.11223"
       rx="3.9461915"
       ry="3.9464879" /><ellipse
       style="font-variation-settings:normal;opacity:1;fill:#ff0000;fill-opacity:1;fill-rule:evenodd;stroke:none;stroke-width:0.932407;stroke-linecap:butt;stroke-linejoin:miter;stroke-miterlimit:4;stroke-dasharray:none;stroke-dashoffset:0;stroke-opacity:1;paint-order:fill stroke markers;stop-color:#000000;stop-opacity:1"
       id="circle5753"
       cx="106.58027"
       cy="216.10687"
       rx="3.946192"
       ry="3.9464867" /><ellipse
       style="font-variation-settings:normal;opacity:1;vector-effect:none;fill:#ff0000;fill-opacity:1;fill-rule:evenodd;stroke:none;stroke-width:0.932404;stroke-linecap:butt;stroke-linejoin:miter;stroke-miterlimit:4;stroke-dasharray:none;stroke-dashoffset:0;stroke-opacity:1;-inkscape-stroke:none;paint-order:fill stroke markers;stop-color:#000000;stop-opacity:1"
       id="ellipse23946"
       cx="171.79854"
       cy="169.52425"
       rx="3.9461915"
       ry="3.9464879" /><text
       xml:space="preserve"
       style="font-size:8.46667px;line-height:1.25;font-family:'Century Schoolbook';-inkscape-font-specification:'Century Schoolbook';font-variant-ligatures:none;stroke-width:0.264583"
       x="83.619858"
       y="218.4581"
       id="text8700"><tspan
         sodipodi:role="line"
         id="tspan8698"
         style="stroke-width:0.264583"
         x="83.619858"
         y="218.4581">$p$</tspan></text><text
       xml:space="preserve"
       style="font-size:8.46667px;line-height:1.25;font-family:'Century Schoolbook';-inkscape-font-specification:'Century Schoolbook';font-variant-ligatures:none;stroke-width:0.264583"
       x="169.73509"
       y="161.98929"
       id="text10847"><tspan
         sodipodi:role="line"
         id="tspan10845"
         style="stroke-width:0.264583"
         x="169.73509"
         y="161.98929">$q$</tspan></text><text
       xml:space="preserve"
       style="font-size:8.46667px;line-height:1.25;font-family:'Century Schoolbook';-inkscape-font-specification:'Century Schoolbook';font-variant-ligatures:none;stroke-width:0.264583;fill:#d400aa;fill-opacity:1"
       x="92.335251"
       y="174.58469"
       id="text28676"><tspan
         sodipodi:role="line"
         id="tspan28674"
         style="stroke-width:0.264583;fill:#d400aa;fill-opacity:1"
         x="92.335251"
         y="174.58469">$\gamma$</tspan></text><text
       xml:space="preserve"
       style="font-size:8.46667px;line-height:1.25;font-family:'Century Schoolbook';-inkscape-font-specification:'Century Schoolbook';font-variant-ligatures:none;fill:#41377a;fill-opacity:0.941176;stroke-width:0.264583"
       x="178.39043"
       y="224.33409"
       id="text32233"><tspan
         sodipodi:role="line"
         id="tspan32231"
         style="fill:#41377a;fill-opacity:0.941176;stroke-width:0.264583"
         x="178.39043"
         y="224.33409">$\eta$</tspan></text></g></svg>
