<?xml version="1.0" encoding="UTF-8" standalone="no"?>
<!-- Created with Inkscape (http://www.inkscape.org/) -->

<svg
   width="118.60873mm"
   height="184.44324mm"
   viewBox="0 0 118.60875 184.44323"
   version="1.1"
   id="svg5"
   inkscape:version="1.2 (1:1.2.1+202207142221+cd75a1ee6d)"
   sodipodi:docname="FocalPoints.svg"
   xml:space="preserve"
   xmlns:inkscape="http://www.inkscape.org/namespaces/inkscape"
   xmlns:sodipodi="http://sodipodi.sourceforge.net/DTD/sodipodi-0.dtd"
   xmlns="http://www.w3.org/2000/svg"
   xmlns:svg="http://www.w3.org/2000/svg"><sodipodi:namedview
     id="namedview7"
     pagecolor="#ffffff"
     bordercolor="#999999"
     borderopacity="1"
     inkscape:showpageshadow="0"
     inkscape:pageopacity="0"
     inkscape:pagecheckerboard="0"
     inkscape:deskcolor="#d1d1d1"
     inkscape:document-units="mm"
     showgrid="true"
     showguides="false"
     inkscape:zoom="4"
     inkscape:cx="201"
     inkscape:cy="113.125"
     inkscape:window-width="1600"
     inkscape:window-height="832"
     inkscape:window-x="0"
     inkscape:window-y="32"
     inkscape:window-maximized="1"
     inkscape:current-layer="layer1" /><defs
     id="defs2"><marker
       style="overflow:visible"
       id="marker5190"
       refX="0"
       refY="0"
       orient="auto-start-reverse"
       inkscape:stockid="Arrow5"
       markerWidth="5.8874264"
       markerHeight="6.6094756"
       viewBox="0 0 5.8874262 6.6094758"
       inkscape:isstock="true"
       inkscape:collect="always"
       preserveAspectRatio="xMidYMid"><path
         transform="scale(0.5)"
         style="fill:context-stroke;fill-rule:evenodd;stroke:context-stroke;stroke-width:1pt"
         d="m 6,0 c -3,1 -7,3 -9,5 0,0 0,-4 2,-5 -2,-1 -2,-5 -2,-5 2,2 6,4 9,5 z"
         id="path5188" /></marker><marker
       style="overflow:visible"
       id="Arrow5"
       refX="0"
       refY="0"
       orient="auto-start-reverse"
       inkscape:stockid="Arrow5"
       markerWidth="5.8874264"
       markerHeight="6.6094756"
       viewBox="0 0 5.8874262 6.6094758"
       inkscape:isstock="true"
       inkscape:collect="always"
       preserveAspectRatio="xMidYMid"><path
         transform="scale(0.5)"
         style="fill:context-stroke;fill-rule:evenodd;stroke:context-stroke;stroke-width:1pt"
         d="m 6,0 c -3,1 -7,3 -9,5 0,0 0,-4 2,-5 -2,-1 -2,-5 -2,-5 2,2 6,4 9,5 z"
         id="path8893" /></marker></defs><g
     inkscape:label="Layer 1"
     inkscape:groupmode="layer"
     id="layer1"
     transform="translate(-48.46854,-137.5061)"><path
       style="fill:#cccccc;fill-opacity:0.393283;stroke:#000000;stroke-width:0.391805;stroke-linecap:butt;stroke-linejoin:miter;stroke-opacity:1"
       d="M 91.021435,162.44875 60.621778,180 l 43.301272,25 56.29165,-32.5 -43.30127,-25 -8.83233,5.09935"
       id="path487" /><path
       style="fill:none;fill-opacity:1;stroke:#000000;stroke-width:0.391805;stroke-linecap:butt;stroke-linejoin:miter;stroke-opacity:1;font-variation-settings:normal;opacity:1;vector-effect:none;stroke-miterlimit:4;stroke-dasharray:1.56722,1.56722;stroke-dashoffset:0;-inkscape-stroke:none;stop-color:#000000;stop-opacity:1"
       d="m 108.0811,152.59935 -17.059665,9.8494"
       id="path299" /><path
       style="fill:none;stroke:#000000;stroke-width:0.391805;stroke-linecap:butt;stroke-linejoin:miter;stroke-dasharray:1.56722, 1.56722;stroke-dashoffset:0;stroke-opacity:1"
       d="m 134.23394,207.5 v -20"
       id="path513" /><path
       id="path511"
       style="fill:none;stroke:#000000;stroke-width:0.391805;stroke-linecap:butt;stroke-linejoin:miter;stroke-dasharray:1.17542, 1.17542;stroke-dashoffset:0;stroke-opacity:1"
       d="m 118.64548,198.5 15.58846,9"
       sodipodi:nodetypes="cc" /><path
       id="path1199"
       style="fill:none;stroke:#000000;stroke-width:0.391805;stroke-linecap:butt;stroke-linejoin:miter;stroke-dasharray:1.17542, 1.17542;stroke-dashoffset:0;stroke-opacity:1"
       d="m 90.932667,182.5 24.248713,14"
       sodipodi:nodetypes="cc" /><path
       style="fill:none;stroke:#000000;stroke-width:0.391805;stroke-linecap:butt;stroke-linejoin:miter;stroke-dasharray:1.56722, 1.56722;stroke-dashoffset:0;stroke-opacity:1"
       d="m 90.932666,162.5 v 20"
       id="path507" /><text
       xml:space="preserve"
       style="font-size:4.23333px;line-height:1.25;font-family:'Century Schoolbook';-inkscape-font-specification:'Century Schoolbook, Normal';font-variant-ligatures:none;stroke-width:0.264583"
       x="143.74512"
       y="173.66064"
       id="text1683"><tspan
         sodipodi:role="line"
         id="tspan1681"
         style="stroke-width:0.264583"
         x="143.74512"
         y="173.66064">$T_pN$</tspan></text><text
       xml:space="preserve"
       style="font-size:4.23333px;line-height:1.25;font-family:'Century Schoolbook';-inkscape-font-specification:'Century Schoolbook, Normal';font-variant-ligatures:none;stroke-width:0.264583"
       x="92.542557"
       y="140.63148"
       id="text1737"><tspan
         sodipodi:role="line"
         id="tspan1735"
         style="stroke-width:0.264583"
         x="92.542557"
         y="140.63148">$\nu_p(=T_pN)^\perp$</tspan></text><path
       style="opacity:1;fill:#00dcfb;fill-opacity:0.482353;stroke:none;stroke-width:0.264583px;stroke-linecap:butt;stroke-linejoin:miter;stroke-opacity:1"
       d="m 134.23394,187.5 -43.301274,-25"
       id="path3822" /><path
       style="fill:#dbe2e3;stroke:none;stroke-width:0.264583px;stroke-linecap:butt;stroke-linejoin:miter;stroke-opacity:1"
       d="m 49.000352,275.23896 c -3.05374,12.59672 7.765328,20.49482 14.075925,26.14892 6.310597,5.6541 9.743375,4.4208 19.600363,7.92391 9.856988,3.50311 24.26145,14.86239 39.7805,12.25147 15.51907,-2.61092 37.35712,-15.07359 42.59681,-31.19623 5.23969,-16.12264 0.31687,-36.24477 -14.93371,-46.58233 -15.25058,-10.33756 -44.21389,-1.75661 -61.47937,4.25837 -17.265475,6.01498 -36.586778,14.59917 -39.640518,27.19589 z"
       id="path4282"
       sodipodi:nodetypes="zzzzzzzz" /><path
       style="fill:none;stroke:#ff2ad4;stroke-width:0.583016;stroke-linecap:butt;stroke-linejoin:miter;stroke-dasharray:0.795, 0.795;stroke-dashoffset:0;stroke-opacity:1"
       d="m 75.369284,288.55382 c -0.498629,1.23822 -0.954692,2.50937 -1.516318,3.6995 -0.757748,1.7125 -1.028026,3.7956 -2.072818,5.25268"
       id="path4288" /><path
       style="fill:none;stroke:#ff2ad4;stroke-width:0.583016;stroke-linecap:butt;stroke-linejoin:miter;stroke-dasharray:0.795, 0.795;stroke-dashoffset:0;stroke-opacity:1"
       d="m 134.23394,311.97802 c 1.83704,-2.66138 3.62641,-6.24875 4.74833,-10.06325"
       id="path4284" /><path
       style="fill:none;stroke:#000000;stroke-width:0.264583px;stroke-linecap:butt;stroke-linejoin:miter;stroke-opacity:1;marker-end:url(#Arrow5)"
       d="m 115.18138,213.99662 v 15.21606"
       id="path4296" /><text
       xml:space="preserve"
       style="font-size:4.23333px;line-height:1.25;font-family:'Century Schoolbook';-inkscape-font-specification:'Century Schoolbook, Normal';font-variant-ligatures:none;stroke-width:0.264583"
       x="116.87669"
       y="223.30162"
       id="text5026"><tspan
         sodipodi:role="line"
         id="tspan5024"
         style="stroke-width:0.264583"
         x="116.87669"
         y="223.30162">$\exp_\nu$</tspan></text><text
       xml:space="preserve"
       style="font-size:4.23333px;line-height:1.25;font-family:'Century Schoolbook';-inkscape-font-specification:'Century Schoolbook, Normal';font-variant-ligatures:none;fill:#d45500;fill-opacity:1;stroke-width:0.264583"
       x="107.77291"
       y="290.89447"
       id="text5030"><tspan
         sodipodi:role="line"
         id="tspan5028"
         style="fill:#d45500;fill-opacity:1;stroke-width:0.264583"
         x="107.77291"
         y="290.89447">$N$</tspan></text><path
       style="fill:none;stroke:#6a08fe;stroke-width:0.264583px;stroke-linecap:butt;stroke-linejoin:miter;stroke-opacity:1"
       d="m 102.95523,285.61159 c 1.74736,-14.21264 20.9258,-19.46341 26.94035,-31.07389"
       id="path5176" /><path
       style="fill:none;stroke:#6a08fe;stroke-width:0.264583px;stroke-linecap:butt;stroke-linejoin:miter;stroke-opacity:1"
       d="m 128.01936,280.3734 c 7.50739,-9.95466 1.13927,-16.35929 1.87622,-25.8357"
       id="path5178" /><path
       style="fill:none;stroke:#6a08fe;stroke-width:0.264583px;stroke-linecap:butt;stroke-linejoin:miter;stroke-opacity:1"
       d="m 112.5619,283.68108 c 0.38391,-2.45462 2.34741,-4.19806 3.56675,-6.27086 2.04679,-3.47939 6.40132,-5.31423 8.5775,-9.03527 2.1495,-3.67541 3.56459,-11.77665 5.18943,-13.83725"
       id="path5180" /><path
       style="fill:none;stroke:#6a08fe;stroke-width:0.264583px;stroke-linecap:butt;stroke-linejoin:miter;stroke-opacity:1;marker-mid:url(#marker5190)"
       d="m 134.45271,282.85098 c 7.06757,-5.13763 1.98494,-11.09384 -0.0969,-16.50614 -1.48882,-3.8707 -2.69652,-8.77902 -4.46027,-11.80714"
       id="path5182" /><path
       style="font-variation-settings:normal;opacity:1;vector-effect:none;fill:none;fill-opacity:1;stroke:#6a08fe;stroke-width:0.264583px;stroke-linecap:butt;stroke-linejoin:miter;stroke-miterlimit:4;stroke-dasharray:none;stroke-dashoffset:0;stroke-opacity:1;-inkscape-stroke:none;stop-color:#000000;stop-opacity:1"
       d="m 95.632715,283.39019 c 3.627572,-9.61382 21.917485,-29.25485 34.262855,-28.85243"
       id="path5186"
       sodipodi:nodetypes="cc" /><circle
       style="font-variation-settings:normal;opacity:1;fill:#ff0000;fill-opacity:1;fill-rule:evenodd;stroke:none;stroke-width:0.932407;stroke-linecap:butt;stroke-linejoin:miter;stroke-miterlimit:4;stroke-dasharray:none;stroke-dashoffset:0;stroke-opacity:1;paint-order:fill stroke markers;stop-color:#000000;stop-opacity:1"
       id="circle5170"
       cx="129.89558"
       cy="254.5377"
       r="1" /><path
       style="fill:none;stroke:#ff2ad4;stroke-width:0.584004;stroke-linecap:butt;stroke-linejoin:miter;stroke-opacity:1"
       d="m 138.98227,301.91477 c 2.62064,-8.91017 1.59944,-19.05964 -10.96291,-21.54137 -9.62908,-1.90226 -16.62585,6.22262 -25.06413,5.23819 -8.750217,-1.02081 -12.570137,-7.77365 -22.474181,-3.38353 -2.819388,1.24974 -4.060227,3.71453 -5.111765,6.32576"
       id="path4294" /><g
       id="g5432"
       transform="rotate(14.373188,125.39014,256.41382)"
       style="fill:#6a08fe;fill-opacity:1"><g
         id="g5430"
         style="fill:#6a08fe;fill-opacity:1"><path
           style="color:#000000;fill:#6a08fe;fill-opacity:1;fill-rule:evenodd;stroke-width:0.132291pt;-inkscape-stroke:none"
           d="m 134.07085,265.60401 c 0.26595,0.32292 0.70287,0.72182 1.0448,0.87378 0,0 -0.49389,0.18997 -0.71235,-0.009 -0.0285,0.29444 -0.52237,0.48441 -0.52237,0.48441 0.15196,-0.34193 0.20893,-0.9308 0.18992,-1.34871 z"
           id="path5426" /><path
           style="color:#000000;fill:#6a08fe;fill-opacity:1;fill-rule:evenodd;-inkscape-stroke:none"
           d="m 133.98242,265.35742 v 0.2461 0.004 0.002 c 0.0185,0.40617 -0.0416,0.99353 -0.18164,1.3086 l -0.0879,0.19336 0.19922,-0.0762 c 0,0 0.13133,-0.0502 0.26758,-0.14063 0.11213,-0.0744 0.2045,-0.20134 0.25586,-0.34375 0.1333,0.0703 0.28534,0.10388 0.41797,0.084 0.1617,-0.0243 0.29296,-0.0742 0.29296,-0.0742 l 0.19922,-0.0762 -0.19336,-0.0879 c -0.31506,-0.14002 -0.75519,-0.53381 -1.01367,-0.84765 z m 0.15235,0.41211 c 0.22882,0.25472 0.514,0.49853 0.79687,0.66406 -0.0427,0.0117 -0.0469,0.0189 -0.10352,0.0274 -0.13985,0.021 -0.29079,0.0111 -0.36523,-0.0566 l -0.13086,-0.11914 -0.0156,0.17578 c -0.01,0.1004 -0.11657,0.20893 -0.23438,0.28711 -0.0473,0.0314 -0.0545,0.0289 -0.0937,0.0488 0.0992,-0.31262 0.14738,-0.68465 0.14649,-1.02734 z"
           id="path5428" /></g></g><g
       id="g5440"
       transform="rotate(43.522571,129.20784,255.44005)"
       style="fill:#6a08fe;fill-opacity:1"><g
         id="g5438"
         style="fill:#6a08fe;fill-opacity:1"><path
           style="color:#000000;fill:#6a08fe;fill-opacity:1;fill-rule:evenodd;stroke-width:0.132291pt;-inkscape-stroke:none"
           d="m 134.07085,265.60401 c 0.26595,0.32292 0.70287,0.72182 1.0448,0.87378 0,0 -0.49389,0.18997 -0.71235,-0.009 -0.0285,0.29444 -0.52237,0.48441 -0.52237,0.48441 0.15196,-0.34193 0.20893,-0.9308 0.18992,-1.34871 z"
           id="path5434" /><path
           style="color:#000000;fill:#6a08fe;fill-opacity:1;fill-rule:evenodd;-inkscape-stroke:none"
           d="m 133.98242,265.35742 v 0.2461 0.004 0.002 c 0.0185,0.40617 -0.0416,0.99353 -0.18164,1.3086 l -0.0879,0.19336 0.19922,-0.0762 c 0,0 0.13133,-0.0502 0.26758,-0.14063 0.11213,-0.0744 0.2045,-0.20134 0.25586,-0.34375 0.1333,0.0703 0.28534,0.10388 0.41797,0.084 0.1617,-0.0243 0.29296,-0.0742 0.29296,-0.0742 l 0.19922,-0.0762 -0.19336,-0.0879 c -0.31506,-0.14002 -0.75519,-0.53381 -1.01367,-0.84765 z m 0.15235,0.41211 c 0.22882,0.25472 0.514,0.49853 0.79687,0.66406 -0.0427,0.0117 -0.0469,0.0189 -0.10352,0.0274 -0.13985,0.021 -0.29079,0.0111 -0.36523,-0.0566 l -0.13086,-0.11914 -0.0156,0.17578 c -0.01,0.1004 -0.11657,0.20893 -0.23438,0.28711 -0.0473,0.0314 -0.0545,0.0289 -0.0937,0.0488 0.0992,-0.31262 0.14738,-0.68465 0.14649,-1.02734 z"
           id="path5436" /></g></g><g
       id="g5448"
       transform="rotate(72.578162,121.76958,254.16587)"
       style="fill:#6a08fe;fill-opacity:1"><g
         id="g5446"
         style="fill:#6a08fe;fill-opacity:1"><path
           style="color:#000000;fill:#6a08fe;fill-opacity:1;fill-rule:evenodd;stroke-width:0.132291pt;-inkscape-stroke:none"
           d="m 134.07085,265.60401 c 0.26595,0.32292 0.70287,0.72182 1.0448,0.87378 0,0 -0.49389,0.18997 -0.71235,-0.009 -0.0285,0.29444 -0.52237,0.48441 -0.52237,0.48441 0.15196,-0.34193 0.20893,-0.9308 0.18992,-1.34871 z"
           id="path5442" /><path
           style="color:#000000;fill:#6a08fe;fill-opacity:1;fill-rule:evenodd;-inkscape-stroke:none"
           d="m 133.98242,265.35742 v 0.2461 0.004 0.002 c 0.0185,0.40617 -0.0416,0.99353 -0.18164,1.3086 l -0.0879,0.19336 0.19922,-0.0762 c 0,0 0.13133,-0.0502 0.26758,-0.14063 0.11213,-0.0744 0.2045,-0.20134 0.25586,-0.34375 0.1333,0.0703 0.28534,0.10388 0.41797,0.084 0.1617,-0.0243 0.29296,-0.0742 0.29296,-0.0742 l 0.19922,-0.0762 -0.19336,-0.0879 c -0.31506,-0.14002 -0.75519,-0.53381 -1.01367,-0.84765 z m 0.15235,0.41211 c 0.22882,0.25472 0.514,0.49853 0.79687,0.66406 -0.0427,0.0117 -0.0469,0.0189 -0.10352,0.0274 -0.13985,0.021 -0.29079,0.0111 -0.36523,-0.0566 l -0.13086,-0.11914 -0.0156,0.17578 c -0.01,0.1004 -0.11657,0.20893 -0.23438,0.28711 -0.0473,0.0314 -0.0545,0.0289 -0.0937,0.0488 0.0992,-0.31262 0.14738,-0.68465 0.14649,-1.02734 z"
           id="path5444" /></g></g><g
       id="g5456"
       transform="rotate(68.742285,122.32384,247.54853)"
       style="fill:#6a08fe;fill-opacity:1"><g
         id="g5454"
         style="fill:#6a08fe;fill-opacity:1"><path
           style="color:#000000;fill:#6a08fe;fill-opacity:1;fill-rule:evenodd;stroke-width:0.132291pt;-inkscape-stroke:none"
           d="m 134.07085,265.60401 c 0.26595,0.32292 0.70287,0.72182 1.0448,0.87378 0,0 -0.49389,0.18997 -0.71235,-0.009 -0.0285,0.29444 -0.52237,0.48441 -0.52237,0.48441 0.15196,-0.34193 0.20893,-0.9308 0.18992,-1.34871 z"
           id="path5450" /><path
           style="color:#000000;fill:#6a08fe;fill-opacity:1;fill-rule:evenodd;-inkscape-stroke:none"
           d="m 133.98242,265.35742 v 0.2461 0.004 0.002 c 0.0185,0.40617 -0.0416,0.99353 -0.18164,1.3086 l -0.0879,0.19336 0.19922,-0.0762 c 0,0 0.13133,-0.0502 0.26758,-0.14063 0.11213,-0.0744 0.2045,-0.20134 0.25586,-0.34375 0.1333,0.0703 0.28534,0.10388 0.41797,0.084 0.1617,-0.0243 0.29296,-0.0742 0.29296,-0.0742 l 0.19922,-0.0762 -0.19336,-0.0879 c -0.31506,-0.14002 -0.75519,-0.53381 -1.01367,-0.84765 z m 0.15235,0.41211 c 0.22882,0.25472 0.514,0.49853 0.79687,0.66406 -0.0427,0.0117 -0.0469,0.0189 -0.10352,0.0274 -0.13985,0.021 -0.29079,0.0111 -0.36523,-0.0566 l -0.13086,-0.11914 -0.0156,0.17578 c -0.01,0.1004 -0.11657,0.20893 -0.23438,0.28711 -0.0473,0.0314 -0.0545,0.0289 -0.0937,0.0488 0.0992,-0.31262 0.14738,-0.68465 0.14649,-1.02734 z"
           id="path5452" /></g></g><text
       xml:space="preserve"
       style="font-size:4.23333px;line-height:1.25;font-family:'Century Schoolbook';-inkscape-font-specification:'Century Schoolbook, Normal';font-variant-ligatures:none;stroke-width:0.264583"
       x="131.92151"
       y="254.68344"
       id="text6247"><tspan
         sodipodi:role="line"
         id="tspan6245"
         style="stroke-width:0.264583"
         x="131.92151"
         y="254.68344">$\exp_\nu(v)$</tspan></text><text
       xml:space="preserve"
       style="font-size:4.23333px;line-height:1.25;font-family:'Century Schoolbook';-inkscape-font-specification:'Century Schoolbook, Normal';font-variant-ligatures:none;stroke-width:0.264583"
       x="156.35411"
       y="290.89447"
       id="text19155"><tspan
         sodipodi:role="line"
         id="tspan19153"
         style="stroke-width:0.264583"
         x="156.35411"
         y="290.89447">$M$</tspan><tspan
         sodipodi:role="line"
         style="stroke-width:0.264583"
         x="156.35411"
         y="296.18613"
         id="tspan19303" /></text><text
       xml:space="preserve"
       style="font-size:1.96085px;line-height:1.25;font-family:'Century Schoolbook';-inkscape-font-specification:'Century Schoolbook, Normal';font-variant-ligatures:none;fill:#6a08fe;fill-opacity:1;stroke-width:0.264583"
       x="138.20976"
       y="272.2551"
       id="text25000"><tspan
         sodipodi:role="line"
         id="tspan24998"
         style="fill:#6a08fe;fill-opacity:1;stroke-width:0.264583"
         x="138.20976"
         y="272.2551">$\exp_\nu(\gamma)$</tspan></text><g
       id="g525"
       transform="matrix(0.26458333,0,0,0.26458333,37.413611,118.22849)"><g
         id="g482"
         transform="matrix(3.779528,0,0,3.779528,280.94193,-371.2804)"><path
           style="opacity:1;fill:#00dcfb;fill-opacity:0.482353;stroke:none;stroke-width:0.264583px;stroke-linecap:butt;stroke-linejoin:miter;stroke-opacity:1"
           d="m -20.813494,142.5061 v 20 l 43.301274,25 v -20"
           id="path452-6" /><path
           style="fill:#00daf9;fill-opacity:0.48435;stroke:#000000;stroke-width:0.391805;stroke-linecap:butt;stroke-linejoin:miter;stroke-opacity:1"
           d="m -20.813494,142.5061 10e-7,-20 43.301273,25 v 20 z"
           id="path454-7" /></g><ellipse
         style="fill:none;stroke:#0031f7;stroke-width:2.2072602"
         cx="284.76801"
         cy="219.868"
         rx="35.153"
         ry="46.337002"
         transform="matrix(0.863579,0.504213,-0.247505,1.013462,90.560861,-152.93915)"
         id="ellipse513" /></g><path
       style="fill:#483737;stroke:#6600ff;stroke-width:0.39242222;stroke-linecap:butt;stroke-linejoin:miter;stroke-dasharray:none;stroke-opacity:1"
       d="m 112.5833,175 2.49365,-12.7153"
       id="path3824"
       sodipodi:nodetypes="cc" /><g
       id="g3912"
       transform="matrix(1.5788579,-0.33262599,0.33262599,1.5788579,-125.14565,-55.385289)"
       style="fill:#6600ff;fill-opacity:1;stroke-width:0.619764"><g
         id="path3914"
         style="fill:#6600ff;fill-opacity:1;stroke-width:0.619764"><path
           style="color:#000000;fill:#6600ff;fill-opacity:1;fill-rule:evenodd;stroke-width:0.057264pt;-inkscape-stroke:none"
           d="m 116.55859,165.82148 c -0.0254,0.29108 -0.003,0.70367 0.0934,0.94668 0,0 -0.33915,-0.14688 -0.35049,-0.35317 -0.15823,0.13285 -0.49737,-0.014 -0.49737,-0.014 0.24301,-0.0961 0.55947,-0.36183 0.75442,-0.57947 z"
           id="path3918" /><path
           style="color:#000000;fill:#6600ff;fill-opacity:1;fill-rule:evenodd;stroke-width:0.619764;-inkscape-stroke:none"
           d="m 116.63477,165.6582 -0.11914,0.11914 -0.002,0.002 -0.002,0.002 c -0.18947,0.21152 -0.50656,0.47395 -0.73047,0.5625 l -0.13867,0.0547 0.13672,0.0586 c 0,0 0.091,0.039 0.20312,0.0606 0.092,0.0177 0.19983,5.2e-4 0.29492,-0.0449 0.0321,0.10004 0.0923,0.19122 0.16797,0.24609 0.0925,0.067 0.18164,0.10547 0.18164,0.10547 l 0.13672,0.0606 -0.0547,-0.13868 c -0.0888,-0.22383 -0.11453,-0.63698 -0.0898,-0.91992 z m -0.125,0.27735 c -0.0106,0.23897 0.0121,0.49966 0.0723,0.7207 -0.027,-0.0151 -0.0319,-0.0135 -0.0645,-0.0371 -0.0799,-0.058 -0.15043,-0.13669 -0.1543,-0.20703 l -0.008,-0.12305 -0.0937,0.0781 c -0.054,0.0453 -0.15889,0.0479 -0.25586,0.0293 -0.0385,-0.007 -0.0412,-0.0123 -0.0703,-0.0215 0.20209,-0.10769 0.40757,-0.26856 0.57422,-0.43945 z"
           id="path3920" /></g></g><text
       xml:space="preserve"
       style="font-size:4.23333px;line-height:1.25;font-family:'Century Schoolbook';-inkscape-font-specification:'Century Schoolbook, Normal';font-variant-ligatures:none;fill:#6600ff;fill-opacity:1;stroke-width:0.264583"
       x="114.60834"
       y="174.235"
       id="text22455"><tspan
         sodipodi:role="line"
         id="tspan22453"
         style="fill:#6600ff;fill-opacity:1;stroke-width:0.264583"
         x="114.60834"
         y="174.235">$\gamma$</tspan></text><circle
       style="font-variation-settings:normal;opacity:1;vector-effect:none;fill:#ff2ad4;fill-opacity:1;fill-rule:evenodd;stroke:none;stroke-width:0.932407;stroke-linecap:butt;stroke-linejoin:miter;stroke-miterlimit:4;stroke-dasharray:none;stroke-dashoffset:0;stroke-opacity:1;-inkscape-stroke:none;paint-order:fill stroke markers;stop-color:#000000;stop-opacity:1"
       id="path1287"
       cx="112.58331"
       cy="175"
       r="1" /><text
       xml:space="preserve"
       style="font-size:4.23333px;line-height:1.25;font-family:'Century Schoolbook';-inkscape-font-specification:'Century Schoolbook, Normal';font-variant-ligatures:none;stroke-width:0.264583"
       x="116.51146"
       y="163.53044"
       id="text1741"><tspan
         sodipodi:role="line"
         id="tspan1739"
         style="stroke-width:0.264583"
         x="116.51146"
         y="163.53044">$v$</tspan></text><circle
       style="font-variation-settings:normal;opacity:1;fill:#ff0000;fill-opacity:1;fill-rule:evenodd;stroke:none;stroke-width:0.932407;stroke-linecap:butt;stroke-linejoin:miter;stroke-miterlimit:4;stroke-dasharray:none;stroke-dashoffset:0;stroke-opacity:1;paint-order:fill stroke markers;stop-color:#000000;stop-opacity:1"
       id="circle1743"
       cx="115.07695"
       cy="162.2847"
       r="1" /></g></svg>
