<?xml version="1.0" encoding="UTF-8" standalone="no"?>
<!-- Created with Inkscape (http://www.inkscape.org/) -->

<svg
   width="144.29366mm"
   height="208.73515mm"
   viewBox="0 0 144.29366 208.73514"
   version="1.1"
   id="svg5"
   xml:space="preserve"
   sodipodi:docname="metric_on_M.svg"
   inkscape:version="1.2 (1:1.2.1+202207142221+cd75a1ee6d)"
   xmlns:inkscape="http://www.inkscape.org/namespaces/inkscape"
   xmlns:sodipodi="http://sodipodi.sourceforge.net/DTD/sodipodi-0.dtd"
   xmlns="http://www.w3.org/2000/svg"
   xmlns:svg="http://www.w3.org/2000/svg"><sodipodi:namedview
     id="namedview7"
     pagecolor="#ffffff"
     bordercolor="#999999"
     borderopacity="1"
     inkscape:showpageshadow="0"
     inkscape:pageopacity="0"
     inkscape:pagecheckerboard="0"
     inkscape:deskcolor="#d1d1d1"
     inkscape:document-units="mm"
     showgrid="true"
     inkscape:zoom="4"
     inkscape:cx="57"
     inkscape:cy="742.125"
     inkscape:window-width="1600"
     inkscape:window-height="832"
     inkscape:window-x="0"
     inkscape:window-y="32"
     inkscape:window-maximized="1"
     inkscape:current-layer="svg5" /><defs
     id="defs2"><marker
       style="overflow:visible"
       id="Arrow5"
       refX="0"
       refY="0"
       orient="auto-start-reverse"
       inkscape:stockid="Arrow5"
       markerWidth="5.8874264"
       markerHeight="6.6094756"
       viewBox="0 0 5.8874262 6.6094758"
       inkscape:isstock="true"
       inkscape:collect="always"
       preserveAspectRatio="xMidYMid"><path
         transform="scale(0.5)"
         style="fill:context-stroke;fill-rule:evenodd;stroke:context-stroke;stroke-width:1pt"
         d="m 6,0 c -3,1 -7,3 -9,5 0,0 0,-4 2,-5 -2,-1 -2,-5 -2,-5 2,2 6,4 9,5 z"
         id="path8893" /></marker><inkscape:path-effect
       effect="perspective-envelope"
       up_left_point="28.357125,155.66342"
       up_right_point="118.47952,155.66342"
       down_left_point="30.388355,186.9394"
       down_right_point="116.44829,186.9394"
       id="path-effect1951"
       is_visible="true"
       lpeversion="1"
       deform_type="perspective"
       horizontal_mirror="false"
       vertical_mirror="true"
       overflow_perspective="false" /><inkscape:path-effect
       effect="perspective-envelope"
       up_left_point="-0.46653851,133.2096"
       up_right_point="144.40666,133.2096"
       down_left_point="0.037260755,208.73574"
       down_right_point="143.90286,208.73574"
       id="path-effect1889"
       is_visible="true"
       lpeversion="1"
       deform_type="perspective"
       horizontal_mirror="false"
       vertical_mirror="true"
       overflow_perspective="false" /><clipPath
       clipPathUnits="userSpaceOnUse"
       id="clipPath192"><path
         d="M -1,-1 H 13.218 V 9.896 H -1 Z"
         id="path190" /></clipPath><clipPath
       clipPathUnits="userSpaceOnUse"
       id="clipPath228"><path
         d="M -1,-1 H 33.412 V 15.346 H -1 Z"
         id="path226" /></clipPath><clipPath
       clipPathUnits="userSpaceOnUse"
       id="clipPath244"><path
         d="M -1,-1 H 39.12 V 10.963 H -1 Z"
         id="path242" /></clipPath><clipPath
       clipPathUnits="userSpaceOnUse"
       id="clipPath266"><path
         d="M -1,-1 H 8.05 V 9.966 H -1 Z"
         id="path264" /></clipPath><clipPath
       clipPathUnits="userSpaceOnUse"
       id="clipPath282"><path
         d="M -1,-1 H 40.687 V 16.213 H -1 Z"
         id="path280" /></clipPath><clipPath
       clipPathUnits="userSpaceOnUse"
       id="clipPath318"><path
         d="M -1,-1 H 7.743 V 9.966 H -1 Z"
         id="path316" /></clipPath><clipPath
       clipPathUnits="userSpaceOnUse"
       id="clipPath344"><path
         d="M -1,-1 H 60.472 V 15.849 H -1 Z"
         id="path342" /></clipPath><clipPath
       clipPathUnits="userSpaceOnUse"
       id="clipPath376"><path
         d="M -1,-1 H 18.626 V 14.892 H -1 Z"
         id="path374" /></clipPath><clipPath
       clipPathUnits="userSpaceOnUse"
       id="clipPath396"><path
         d="M -1,-1 H 15.302 V 14.892 H -1 Z"
         id="path394" /></clipPath></defs><g
     inkscape:label="Layer 1"
     inkscape:groupmode="layer"
     id="layer1"
     transform="translate(-281.27014,1.8404362)" /><path
     style="opacity:0.75;fill:#b3b3b3;fill-opacity:1;stroke:none;stroke-width:0.264583px;stroke-linecap:butt;stroke-linejoin:miter;stroke-opacity:1"
     d="m 2.2404796,194.63989 c -12.6535196,25.77951 31.9553554,5.40591 42.3314374,6.16231 9.861941,0.71894 16.96091,6.24524 26.551172,7.46592 24.701751,3.14407 57.740611,-9.36398 70.353101,-44.27648 3.40966,-9.43818 4.20722,-18.67271 -0.33139,-23.98332 -7.14105,-8.35566 -23.11274,-8.47114 -37.80938,-3.27378 -5.756338,2.03568 -11.947551,-0.75383 -17.520709,0.45054 -12.548227,2.71171 -28.014278,-1.5726 -40.678488,1.00665 -14.066546,2.8649 -29.079916,19.39576 -35.8823386,36.02944 -2.0631732,5.045 -4.4468713,15.18982 -7.0134048,20.41872 z"
     id="path1076"
     sodipodi:nodetypes="ssssssssss"
     inkscape:path-effect="#path-effect1889"
     inkscape:original-d="m -5.8934665,137.37787 c -14.3497085,73.17923 35.6618145,15.31656 47.2519235,17.46089 11.017318,2.03842 18.943461,17.71622 29.664638,21.18139 27.625842,8.92876 64.502335,-26.56166 78.341305,-125.188841 3.72591,-26.553581 4.54339,-52.4894963 -0.53923,-67.384745 -7.98693,-23.406583 -25.71883,-23.729826 -42.01781,-9.175089 -6.38819,5.704527 -13.271563,-2.111908 -19.459498,1.262355 -13.937453,7.600058 -31.114288,-4.405779 -45.185972,2.820879 C 26.524176,-13.614295 9.7474913,32.808687 2.0702327,79.663605 -0.26294651,93.903206 -2.9912465,122.5774 -5.8934665,137.37787 Z" /><path
     id="rect1948"
     style="opacity:1;fill:#2ad4ff;stroke-width:0.392422;paint-order:fill stroke markers;stop-color:#000000"
     d="m 53.391117,155.66342 h 65.088403 v 0 L 92.542746,186.9394 v 0 h -62.15439 v 0 z"
     inkscape:path-effect="#path-effect1951"
     inkscape:original-d="m 46.938328,137.84607 h 86.059962 c 0,0 0,0 0,0 L 99.898298,186.9394 c 0,0 0,0 0,0 H 13.838356 c 0,0 0,0 0,0 l 33.099972,-49.09333 c 0,0 0,0 0,0 z" /><g
     id="g2459"
     transform="matrix(1.3531378,0,0,1.3531028,-107.42369,-23.762167)"
     style="stroke-width:0.369516"><path
       d="m 114.023,24.9213 c -3.766,3.5639 -0.427,10.5236 -0.73,17.3471 -0.353,7.9749 -5.448,15.7593 -4.416,24.169 1.224,9.9778 4.824,19.0623 -0.143,23.1663"
       style="fill:none;stroke:#000000;stroke-width:0.369517;stroke-linecap:butt;stroke-linejoin:miter;stroke-opacity:1"
       id="path2439" /><path
       d="m 120.46,24.9213 c -3.765,3.5639 -0.427,10.5236 -0.729,17.3471 -0.353,7.9749 -5.448,15.7593 -4.417,24.169 1.224,9.9778 4.825,19.0623 -0.142,23.1663"
       style="fill:none;stroke:#000000;stroke-width:0.369517;stroke-linecap:butt;stroke-linejoin:miter;stroke-opacity:1"
       id="path2441" /><path
       d="m 126.898,24.9213 c -3.765,3.5639 -0.427,10.5236 -0.729,17.3471 -0.353,7.9749 -5.449,15.7593 -4.417,24.169 1.224,9.9778 4.825,19.0623 -0.142,23.1663"
       style="fill:none;stroke:#000000;stroke-width:0.369517;stroke-linecap:butt;stroke-linejoin:miter;stroke-opacity:1"
       id="path2443" /><path
       d="m 133.336,24.9213 c -3.766,3.5639 -0.427,10.5236 -0.729,17.3471 -0.353,7.9749 -5.449,15.7593 -4.417,24.169 1.224,9.9778 4.825,19.0623 -0.142,23.1663"
       style="fill:none;stroke:#000000;stroke-width:0.369517;stroke-linecap:butt;stroke-linejoin:miter;stroke-opacity:1"
       id="path2445" /><path
       d="m 139.774,24.9213 c -3.766,3.5639 -0.427,10.5236 -0.729,17.3471 -0.354,7.9749 -5.449,15.7593 -4.417,24.169 1.224,9.9778 4.825,19.0623 -0.142,23.1663"
       style="fill:none;stroke:#000000;stroke-width:0.369517;stroke-linecap:butt;stroke-linejoin:miter;stroke-opacity:1"
       id="path2447" /><path
       d="m 146.212,24.9213 c -3.766,3.5639 -0.427,10.5236 -0.73,17.3471 -0.353,7.9749 -5.448,15.7593 -4.416,24.169 1.224,9.9778 4.824,19.0623 -0.143,23.1663"
       style="fill:none;stroke:#000000;stroke-width:0.369517;stroke-linecap:butt;stroke-linejoin:miter;stroke-opacity:1"
       id="path2449" /><path
       d="m 152.649,24.9213 c -3.765,3.5639 -0.427,10.5236 -0.729,17.3471 -0.353,7.9749 -5.448,15.7593 -4.417,24.169 1.224,9.9778 4.825,19.0623 -0.142,23.1663"
       style="fill:none;stroke:#0000ff;stroke-width:0.369517;stroke-linecap:butt;stroke-linejoin:miter;stroke-opacity:1"
       id="path2451" /><path
       d="m 159.087,24.9213 c -3.765,3.5639 -0.427,10.5236 -0.729,17.3471 -0.353,7.9749 -5.448,15.7593 -4.417,24.169 1.224,9.9778 4.825,19.0623 -0.142,23.1663"
       style="fill:none;stroke:#000000;stroke-width:0.369517;stroke-linecap:butt;stroke-linejoin:miter;stroke-opacity:1"
       id="path2453" /><path
       d="m 165.525,24.9213 c -3.766,3.5639 -0.427,10.5236 -0.729,17.3471 -0.353,7.9749 -5.449,15.7593 -4.417,24.169 1.224,9.9778 4.825,19.0623 -0.142,23.1663"
       style="fill:none;stroke:#000000;stroke-width:0.369517;stroke-linecap:butt;stroke-linejoin:miter;stroke-opacity:1"
       id="path2455" /><path
       d="m 171.963,24.9213 c -3.766,3.5639 -0.427,10.5236 -0.729,17.3471 -0.354,7.9749 -5.449,15.7593 -4.417,24.169 1.224,9.9778 4.825,19.0623 -0.142,23.1663"
       style="fill:none;stroke:#000000;stroke-width:0.369517;stroke-linecap:butt;stroke-linejoin:miter;stroke-opacity:1"
       id="path2457" /><path
       style="font-variation-settings:normal;opacity:1;vector-effect:none;fill:none;fill-opacity:1;stroke:#008000;stroke-width:0.369517;stroke-linecap:butt;stroke-linejoin:miter;stroke-miterlimit:4;stroke-dasharray:none;stroke-dashoffset:0;stroke-opacity:1;-inkscape-stroke:none;stop-color:#000000;stop-opacity:1"
       d="M 147.18508,21.750461 V 91.626563"
       id="path4203"
       sodipodi:nodetypes="cc" /><text
       xml:space="preserve"
       style="font-size:3.12857px;line-height:1.25;font-family:'Century Schoolbook';-inkscape-font-specification:'Century Schoolbook, Normal';font-variant-ligatures:none;stroke-width:0.0722536"
       x="143.73567"
       y="19.870781"
       id="text4231"
       transform="scale(0.99998708,1.0000129)"><tspan
         sodipodi:role="line"
         id="tspan4229"
         style="stroke-width:0.0722536"
         x="143.73567"
         y="19.870781">$\pi^{-1}(p)$</tspan></text><text
       xml:space="preserve"
       style="font-size:3.12857px;line-height:1.25;font-family:'Century Schoolbook';-inkscape-font-specification:'Century Schoolbook, Normal';font-variant-ligatures:none;stroke-width:0.0722536"
       x="89.535767"
       y="46.676353"
       id="text4235"
       transform="scale(0.9999871,1.0000129)"><tspan
         sodipodi:role="line"
         id="tspan4233"
         style="stroke-width:0.0722536"
         x="89.535767"
         y="46.676353">Fibres</tspan></text><rect
       style="font-variation-settings:normal;opacity:0.82;vector-effect:none;fill:#2ad4ff;fill-opacity:1;stroke:none;stroke-width:0.312031;stroke-linecap:butt;stroke-linejoin:miter;stroke-miterlimit:4;stroke-dasharray:none;stroke-dashoffset:0;stroke-opacity:1;-inkscape-stroke:none;paint-order:fill stroke markers;stop-color:#000000;stop-opacity:1"
       id="rect4293"
       width="36.652351"
       height="25.421196"
       x="165.73943"
       y="60.039661"
       ry="1.914179e-09"
       transform="matrix(0.99997936,0.00642518,-0.50929313,0.86059311,0,0)" /><text
       xml:space="preserve"
       style="font-size:3.12857px;line-height:1.25;font-family:'Century Schoolbook';-inkscape-font-specification:'Century Schoolbook, Normal';font-variant-ligatures:none;stroke-width:0.0722536"
       x="148.08452"
       y="62.106487"
       id="text4239"
       transform="scale(0.99998708,1.0000129)"><tspan
         sodipodi:role="line"
         id="tspan4237"
         style="stroke-width:0.0722536"
         x="148.08452"
         y="62.106487">$q$</tspan></text><text
       xml:space="preserve"
       style="font-size:1.14089px;line-height:1.25;font-family:'Century Schoolbook';-inkscape-font-specification:'Century Schoolbook, Normal';font-variant-ligatures:none;fill:#006680;stroke-width:0.0722538"
       x="170.74963"
       y="51.515026"
       id="text4325"
       transform="scale(0.9999871,1.0000129)"><tspan
         sodipodi:role="line"
         id="tspan4323"
         style="fill:#006680;stroke-width:0.0722538"
         x="170.74963"
         y="51.515026">$\mathcal{H}_p$</tspan></text><text
       xml:space="preserve"
       style="font-size:3.12857px;line-height:1.25;font-family:'Century Schoolbook';-inkscape-font-specification:'Century Schoolbook, Normal';font-variant-ligatures:none;stroke-width:0.0722536;fill:#008000;fill-opacity:1"
       x="148.66559"
       y="96.37738"
       id="text4329"
       transform="scale(0.9999871,1.0000129)"><tspan
         sodipodi:role="line"
         id="tspan4327"
         style="stroke-width:0.0722536;fill:#008000;fill-opacity:1"
         x="148.66559"
         y="96.37738">$\mathcal{V}_p$</tspan></text></g><ellipse
     style="font-variation-settings:normal;opacity:1;vector-effect:none;fill:#ff0000;fill-opacity:1;fill-rule:evenodd;stroke:#ff0000;stroke-width:0.937667;stroke-linecap:butt;stroke-linejoin:miter;stroke-miterlimit:4;stroke-dasharray:none;stroke-dashoffset:0;stroke-opacity:1;-inkscape-stroke:none;paint-order:fill stroke markers;stop-color:#000000;stop-opacity:1"
     id="path2473"
     cx="150.57576"
     cy="136.52278"
     rx="1.4052638"
     ry="1.3063"
     transform="matrix(0.9348252,0.35510823,-0.49053271,0.87142278,0,0)" /><text
     xml:space="preserve"
     style="font-size:4.23333px;line-height:1.25;font-family:'Century Schoolbook';-inkscape-font-specification:'Century Schoolbook, Normal';font-variant-ligatures:none;stroke-width:0.264583"
     x="122.04149"
     y="146.13916"
     id="text2529"><tspan
       sodipodi:role="line"
       id="tspan2527"
       style="stroke-width:0.264583"
       x="122.04149"
       y="146.13916">$M/G$</tspan></text><text
     xml:space="preserve"
     style="font-size:4.23333px;line-height:1.25;font-family:'Century Schoolbook';-inkscape-font-specification:'Century Schoolbook, Normal';font-variant-ligatures:none;fill:#006680;fill-opacity:1;stroke-width:0.264583"
     x="7.9781623"
     y="198.40321"
     id="text2583"><tspan
       sodipodi:role="line"
       id="tspan2581"
       style="fill:#006680;fill-opacity:1;stroke-width:0.264583"
       x="7.9781623"
       y="198.40321">$T_p(M/G)$</tspan></text><text
     xml:space="preserve"
     style="font-size:4.23333px;line-height:1.25;font-family:'Century Schoolbook';-inkscape-font-specification:'Century Schoolbook, Normal';font-variant-ligatures:none;stroke-width:0.264583"
     x="77.354233"
     y="176.7394"
     id="text2587"><tspan
       sodipodi:role="line"
       id="tspan2585"
       style="stroke-width:0.264583"
       x="77.354233"
       y="176.7394">$p$</tspan></text><path
     style="fill:none;stroke:#000000;stroke-width:0.5;stroke-linecap:butt;stroke-linejoin:miter;stroke-opacity:1;marker-end:url(#Arrow5)"
     d="m 78.611878,111.07763 v 18.23811"
     id="path2589" /><text
     xml:space="preserve"
     style="font-size:4.23333px;line-height:1.25;font-family:'Century Schoolbook';-inkscape-font-specification:'Century Schoolbook, Normal';font-variant-ligatures:none;stroke-width:0.264583"
     x="80.30307"
     y="122.29584"
     id="text2810"><tspan
       sodipodi:role="line"
       id="tspan2808"
       style="stroke-width:0.264583"
       x="80.30307"
       y="122.29584">$\pi$</tspan></text><circle
     style="font-variation-settings:normal;opacity:1;vector-effect:none;fill:#ff0000;fill-opacity:1;fill-rule:evenodd;stroke:none;stroke-width:0.932406;stroke-linecap:butt;stroke-linejoin:miter;stroke-miterlimit:4;stroke-dasharray:none;stroke-dashoffset:0;stroke-opacity:1;-inkscape-stroke:none;paint-order:fill stroke markers;stop-color:#000000;stop-opacity:1"
     id="path3556"
     cx="91.660286"
     cy="62.300388"
     r="1.8325016" /></svg>
