<?xml version="1.0" encoding="UTF-8" standalone="no"?>
<!-- Created with Inkscape (http://www.inkscape.org/) -->

<svg
   width="249.09193mm"
   height="249.09195mm"
   viewBox="0 0 249.09193 249.09195"
   version="1.1"
   id="svg509"
   xml:space="preserve"
   inkscape:version="1.2 (1:1.2.1+202207142221+cd75a1ee6d)"
   sodipodi:docname="S2_equator_cutlocus.svg"
   xmlns:inkscape="http://www.inkscape.org/namespaces/inkscape"
   xmlns:sodipodi="http://sodipodi.sourceforge.net/DTD/sodipodi-0.dtd"
   xmlns="http://www.w3.org/2000/svg"
   xmlns:svg="http://www.w3.org/2000/svg"><sodipodi:namedview
     id="namedview511"
     pagecolor="#ffffff"
     bordercolor="#999999"
     borderopacity="1"
     inkscape:showpageshadow="0"
     inkscape:pageopacity="0"
     inkscape:pagecheckerboard="0"
     inkscape:deskcolor="#d1d1d1"
     inkscape:document-units="mm"
     showgrid="false"
     inkscape:zoom="0.5"
     inkscape:cx="375"
     inkscape:cy="415"
     inkscape:window-width="1600"
     inkscape:window-height="832"
     inkscape:window-x="0"
     inkscape:window-y="32"
     inkscape:window-maximized="1"
     inkscape:current-layer="g640" /><defs
     id="defs506"><clipPath
       clipPathUnits="userSpaceOnUse"
       id="clipPath648"><path
         d="m 707.508,355.879 c 0,93.258 -37.047,182.695 -102.988,248.641 C 538.574,670.461 449.137,707.508 355.879,707.508 262.621,707.508 173.18,670.461 107.238,604.52 41.293,538.574 4.246,449.137 4.246,355.879 4.246,262.621 41.293,173.18 107.238,107.238 173.18,41.293 262.621,4.246 355.879,4.246 c 93.258,0 182.695,37.047 248.641,102.992 65.941,65.942 102.988,155.383 102.988,248.641 z"
         id="path646" /></clipPath><clipPath
       clipPathUnits="userSpaceOnUse"
       id="clipPath656"><path
         d="M 196.72135,140.36536 H 445.07691 V 388.72092 H 196.72135 Z"
         id="path654" /></clipPath><linearGradient
       x1="196.31024"
       y1="264.50024"
       x2="515.70825"
       y2="264.98865"
       gradientUnits="userSpaceOnUse"
       spreadMethod="pad"
       id="linearGradient668"><stop
         style="stop-opacity:0;stop-color:#ffffff"
         offset="0"
         id="stop658" /><stop
         style="stop-opacity:1;stop-color:#ffffff"
         offset="0.151477"
         id="stop660" /><stop
         style="stop-opacity:1;stop-color:#ffffff"
         offset="0.563461"
         id="stop662" /><stop
         style="stop-opacity:1;stop-color:#ffffff"
         offset="0.721108"
         id="stop664" /><stop
         style="stop-opacity:1;stop-color:#ffffff"
         offset="1"
         id="stop666" /></linearGradient><mask
       maskUnits="userSpaceOnUse"
       x="0"
       y="0"
       width="1"
       height="1"
       id="mask670"><g
         id="g676"><g
           clip-path="url(#clipPath656)"
           id="g674"><path
             d="M 196.72135,140.36536 H 445.07691 V 388.72092 H 196.72135 Z"
             style="fill:url(#linearGradient668);stroke:none"
             id="path672" /></g></g></mask><linearGradient
       x1="196.31024"
       y1="264.50024"
       x2="515.70825"
       y2="264.98865"
       gradientUnits="userSpaceOnUse"
       spreadMethod="pad"
       id="linearGradient690"><stop
         style="stop-opacity:1;stop-color:#999999"
         offset="0"
         id="stop680" /><stop
         style="stop-opacity:1;stop-color:#e6e6e6"
         offset="0.151477"
         id="stop682" /><stop
         style="stop-opacity:1;stop-color:#b3b3b3"
         offset="0.563461"
         id="stop684" /><stop
         style="stop-opacity:1;stop-color:#808080"
         offset="0.721108"
         id="stop686" /><stop
         style="stop-opacity:1;stop-color:#999999"
         offset="1"
         id="stop688" /></linearGradient></defs><g
     inkscape:label="Layer 1"
     inkscape:groupmode="layer"
     id="layer1"
     transform="translate(319.4416,-1.0000249)" /><g
     id="g640"
     transform="matrix(0.35277776,0,0,0.35277778,-0.99952521,-0.99952526)"><g
       id="g642"><g
         id="g644"
         clip-path="url(#clipPath648)"><g
           id="g650"
           transform="matrix(2.834646,0,0,2.834646,-553.63533,-393.88607)"><g
             id="g652" /><g
             id="g678"
             mask="url(#mask670)"><path
               d="m 707.508,355.879 c 0,93.258 -37.047,182.695 -102.988,248.641 C 538.574,670.461 449.137,707.508 355.879,707.508 262.621,707.508 173.18,670.461 107.238,604.52 41.293,538.574 4.246,449.137 4.246,355.879 4.246,262.621 41.293,173.18 107.238,107.238 173.18,41.293 262.621,4.246 355.879,4.246 c 93.258,0 182.695,37.047 248.641,102.992 65.941,65.942 102.988,155.383 102.988,248.641 z"
               style="fill:url(#linearGradient690);stroke:none"
               id="path692" /></g></g></g></g><g
       id="g694"><path
         d="m 707.508,355.879 c 0,93.258 -37.047,182.695 -102.988,248.641 C 538.574,670.461 449.137,707.508 355.879,707.508 262.621,707.508 173.18,670.461 107.238,604.52 41.293,538.574 4.246,449.137 4.246,355.879 4.246,262.621 41.293,173.18 107.238,107.238 173.18,41.293 262.621,4.246 355.879,4.246 c 93.258,0 182.695,37.047 248.641,102.992 65.941,65.942 102.988,155.383 102.988,248.641 z"
         style="fill:none;stroke:#000000;stroke-width:2.8254;stroke-linecap:square;stroke-linejoin:miter;stroke-miterlimit:4;stroke-dasharray:none;stroke-opacity:1"
         id="path696" /></g><g
       id="g698"
       transform="matrix(1,0.288675,-0.288675,1,0,0)"><path
         d="m 423.333,-104.163 c 80.801,-0.001 146.3,151.255 146.302,337.837 -0.002,186.579 -65.502,337.835 -146.299,337.834"
         style="fill:none;stroke:#000000;stroke-width:2.72344;stroke-linecap:square;stroke-linejoin:miter;stroke-miterlimit:4;stroke-dasharray:8.17032, 8.17032;stroke-dashoffset:0;stroke-opacity:1"
         id="path700" /></g><g
       id="g702"
       transform="matrix(1,0.288675,-0.288675,1,0,0)"><path
         d="m 423.336,571.508 c -80.801,10e-4 -146.304,-151.254 -146.303,-337.836 0.002,-186.583 65.503,-337.835 146.3,-337.835"
         style="fill:none;stroke:#000000;stroke-width:2.72344;stroke-linecap:square;stroke-linejoin:miter;stroke-miterlimit:4;stroke-dasharray:none;stroke-opacity:1"
         id="path704" /></g><g
       id="g706"
       transform="matrix(0.890457,1,-1,0.890457,0,0)"><path
         d="m 375.24,-284.349 c 114.75,0 207.773,117.571 207.773,262.607 -0.002,145.033 -93.024,262.607 -207.774,262.607"
         style="fill:none;stroke:#000000;stroke-width:2.11699;stroke-linecap:square;stroke-linejoin:miter;stroke-miterlimit:4;stroke-dasharray:6.35097, 6.35097;stroke-dashoffset:0;stroke-opacity:1"
         id="path708" /></g><g
       id="g710"
       transform="matrix(0.890457,1,-1,0.890457,0,0)"><path
         d="m 375.239,240.865 c -114.75,0 -207.771,-117.574 -207.771,-262.609 -0.003,-145.034 93.022,-262.605 207.772,-262.605"
         style="fill:none;stroke:#000000;stroke-width:2.11699;stroke-linecap:square;stroke-linejoin:miter;stroke-miterlimit:4;stroke-dasharray:none;stroke-opacity:1"
         id="path712" /></g><g
       id="g714"
       transform="matrix(0.425113,-1,1,0.425113,0,0)"><path
         d="m -173.274,105.935 c 151.399,0.001 274.135,144.883 274.135,323.605 10e-4,178.723 -122.733,323.602 -274.136,323.602"
         style="fill:none;stroke:#000000;stroke-width:2.60871;stroke-linecap:square;stroke-linejoin:miter;stroke-miterlimit:4;stroke-dasharray:none;stroke-opacity:1"
         id="path716" /></g><g
       id="g718"
       transform="matrix(0.425113,-1,1,0.425113,0,0)"><path
         d="M -173.275,753.142 C -324.676,753.145 -447.413,608.26 -447.412,429.541 -447.413,250.818 -324.677,105.935 -173.274,105.935"
         style="fill:none;stroke:#000000;stroke-width:2.60871;stroke-linecap:square;stroke-linejoin:miter;stroke-miterlimit:4;stroke-dasharray:7.82612, 7.82612;stroke-dashoffset:0;stroke-opacity:1"
         id="path720" /></g><g
       id="g722"
       transform="matrix(1,-0.450203,0.450203,1,0,0)"><path
         d="m 162.687,108.484 c 102.624,0.003 185.817,143.554 185.817,320.636 0,177.082 -83.194,320.636 -185.817,320.638"
         style="fill:none;stroke:#000000;stroke-width:2.58478;stroke-linecap:square;stroke-linejoin:miter;stroke-miterlimit:4;stroke-dasharray:none;stroke-opacity:1"
         id="path724" /></g><g
       id="g726"
       transform="matrix(1,-0.450203,0.450203,1,0,0)"><path
         d="M 162.687,749.758 C 60.064,749.756 -23.128,606.201 -23.128,429.119 c 0,-177.082 83.193,-320.632 185.815,-320.635"
         style="fill:none;stroke:#000000;stroke-width:2.58478;stroke-linecap:square;stroke-linejoin:miter;stroke-miterlimit:4;stroke-dasharray:7.75433, 7.75433;stroke-dashoffset:0;stroke-opacity:1"
         id="path728" /></g><g
       id="g730"
       transform="matrix(1,-0.0525522,0.0525522,1,0,0)"><path
         d="m 336.249,22.401 c 17.562,0.001 31.8,157.214 31.8,351.148 0,193.933 -14.239,351.146 -31.801,351.145"
         style="fill:none;stroke:#000000;stroke-width:2.83074;stroke-linecap:square;stroke-linejoin:miter;stroke-miterlimit:4;stroke-dasharray:none;stroke-opacity:1"
         id="path732" /></g><g
       id="g734"
       transform="matrix(1,-0.0525522,0.0525522,1,0,0)"><path
         d="m 336.248,724.694 c -17.563,0.003 -31.801,-157.214 -31.801,-351.144 0,-193.933 14.239,-351.146 31.802,-351.149"
         style="fill:none;stroke:#000000;stroke-width:2.83074;stroke-linecap:square;stroke-linejoin:miter;stroke-miterlimit:4;stroke-dasharray:8.49222, 8.49222;stroke-dashoffset:0;stroke-opacity:1"
         id="path736" /></g><g
       id="g738"><path
         d="m 235.613,642.035 c 0,-33.219 53.844,-60.144 120.266,-60.144 66.422,0 120.266,26.925 120.266,60.144"
         style="fill:none;stroke:#000000;stroke-width:2.8254;stroke-linecap:square;stroke-linejoin:miter;stroke-miterlimit:4;stroke-dasharray:8.50394, 8.50394;stroke-dashoffset:0;stroke-opacity:1"
         id="path740" /></g><g
       id="g742"><path
         d="m 476.145,642.035 c 0,33.219 -53.844,60.145 -120.266,60.145 -66.422,0 -120.266,-26.926 -120.266,-60.145"
         style="fill:none;stroke:#000000;stroke-width:2.8254;stroke-linecap:square;stroke-linejoin:miter;stroke-miterlimit:4;stroke-dasharray:none;stroke-opacity:1"
         id="path744" /></g><g
       id="g746"><path
         d="m 129.855,589.156 c 0,-62.422 101.192,-113.027 226.024,-113.027 124.828,0 226.023,50.605 226.023,113.027"
         style="fill:none;stroke:#000000;stroke-width:2.8254;stroke-linecap:square;stroke-linejoin:miter;stroke-miterlimit:4;stroke-dasharray:8.50394, 8.50394;stroke-dashoffset:0;stroke-opacity:1"
         id="path748" /></g><g
       id="g750"><path
         d="m 581.902,589.156 c 0,62.422 -101.195,113.024 -226.023,113.024 -124.832,0 -226.024,-50.602 -226.024,-113.024"
         style="fill:none;stroke:#000000;stroke-width:2.8254;stroke-linecap:square;stroke-linejoin:miter;stroke-miterlimit:4;stroke-dasharray:none;stroke-opacity:1"
         id="path752" /></g><g
       id="g754"><path
         d="m 9.59,408.758 c 0,-95.633 155.039,-173.156 346.289,-173.156 191.25,0 346.289,77.523 346.289,173.156"
         style="fill:none;stroke:#000000;stroke-width:2.8254;stroke-linecap:square;stroke-linejoin:miter;stroke-miterlimit:4;stroke-dasharray:8.50394, 8.50394;stroke-dashoffset:0;stroke-opacity:1"
         id="path756" /></g><g
       id="g758"><path
         d="m 702.168,408.758 c 0,95.633 -155.039,173.156 -346.289,173.156 C 164.629,581.914 9.59,504.391 9.59,408.758"
         style="fill:none;stroke:#000000;stroke-width:2.8254;stroke-linecap:square;stroke-linejoin:miter;stroke-miterlimit:4;stroke-dasharray:none;stroke-opacity:1"
         id="path760" /></g><g
       id="g762"><path
         d="m 9.59,303 c 0,-95.633 155.039,-173.16 346.289,-173.16 191.25,0 346.289,77.527 346.289,173.16"
         style="fill:none;stroke:#0000ff;stroke-width:4.25197;stroke-linecap:square;stroke-linejoin:miter;stroke-miterlimit:4;stroke-dasharray:8.50394, 8.50394;stroke-dashoffset:0;stroke-opacity:1"
         id="path764" /></g><g
       id="g766"><path
         d="m 702.168,303 c 0,95.633 -155.039,173.156 -346.289,173.156 C 164.629,476.156 9.59,398.633 9.59,303"
         style="fill:none;stroke:#0000ff;stroke-width:4.25197;stroke-linecap:square;stroke-linejoin:miter;stroke-miterlimit:4;stroke-dasharray:none;stroke-opacity:1"
         id="path768" /></g><g
       id="g770"><path
         d="m 51.355,203.617 c 0,-84.097 136.34,-152.273 304.524,-152.273 168.183,0 304.519,68.176 304.519,152.273"
         style="fill:none;stroke:#000000;stroke-width:2.8254;stroke-linecap:square;stroke-linejoin:miter;stroke-miterlimit:4;stroke-dasharray:8.50394, 8.50394;stroke-dashoffset:0;stroke-opacity:1"
         id="path772" /></g><g
       id="g774"><path
         d="m 660.398,203.617 c 0,84.098 -136.336,152.274 -304.519,152.274 -168.184,0 -304.524,-68.176 -304.524,-152.274"
         style="fill:none;stroke:#000000;stroke-width:2.8254;stroke-linecap:square;stroke-linejoin:miter;stroke-miterlimit:4;stroke-dasharray:none;stroke-opacity:1"
         id="path776" /></g><g
       id="g778"><path
         d="m 129.855,122.602 c 0,-62.422 101.192,-113.028 226.024,-113.028 124.828,0 226.023,50.606 226.023,113.028"
         style="fill:none;stroke:#000000;stroke-width:2.8254;stroke-linecap:square;stroke-linejoin:miter;stroke-miterlimit:4;stroke-dasharray:8.50394, 8.50394;stroke-dashoffset:0;stroke-opacity:1"
         id="path780" /></g><g
       id="g782"><path
         d="m 581.902,122.602 c 0,62.421 -101.195,113.023 -226.023,113.023 -124.832,0 -226.024,-50.602 -226.024,-113.023"
         style="fill:none;stroke:#000000;stroke-width:2.8254;stroke-linecap:square;stroke-linejoin:miter;stroke-miterlimit:4;stroke-dasharray:none;stroke-opacity:1"
         id="path784" /></g><g
       id="g786"><path
         d="m 235.613,69.723 c 0,-33.219 53.844,-60.149 120.266,-60.149 66.422,0 120.266,26.93 120.266,60.149"
         style="fill:none;stroke:#000000;stroke-width:2.8254;stroke-linecap:square;stroke-linejoin:miter;stroke-miterlimit:4;stroke-dasharray:8.50394, 8.50394;stroke-dashoffset:0;stroke-opacity:1"
         id="path788" /></g><g
       id="g790"><path
         d="m 476.145,69.723 c 0,33.215 -53.844,60.144 -120.266,60.144 -66.422,0 -120.266,-26.929 -120.266,-60.144"
         style="fill:none;stroke:#000000;stroke-width:2.8254;stroke-linecap:square;stroke-linejoin:miter;stroke-miterlimit:4;stroke-dasharray:none;stroke-opacity:1"
         id="path792" /></g><g
       id="g794"
       style="stroke:none;stroke-width:0.771236"
       transform="matrix(1.2964414,0,0,1.2968025,-104.75393,-15.237914)"><path
         d="m 363.074,51.344 c 0,3.965 -3.215,7.179 -7.179,7.179 -3.969,0 -7.184,-3.214 -7.184,-7.179 0,-3.965 3.215,-7.18 7.184,-7.18 3.964,0 7.179,3.215 7.179,7.18 z"
         style="fill:#ff0000;fill-opacity:1;fill-rule:evenodd;stroke:none;stroke-width:1.04567;stroke-linecap:square;stroke-linejoin:miter;stroke-miterlimit:4;stroke-dasharray:none;stroke-opacity:1"
         id="path796" /></g><g
       id="g798"
       transform="matrix(1.2966297,0,0,1.2966297,-105.79026,-195.83756)"
       style="stroke:none;stroke-width:1.04566321;font-variation-settings:normal;opacity:1;vector-effect:none;fill:#ff0000;fill-opacity:1;stroke-linecap:square;stroke-linejoin:miter;stroke-miterlimit:4;stroke-dasharray:none;stroke-dashoffset:0;stroke-opacity:1;-inkscape-stroke:none;stop-color:#000000;stop-opacity:1"><path
         d="m 363.09,660.414 c 0,3.965 -3.215,7.18 -7.18,7.18 -3.965,0 -7.18,-3.215 -7.18,-7.18 0,-3.965 3.215,-7.18 7.18,-7.18 3.965,0 7.18,3.215 7.18,7.18 z"
         style="fill:#ff0000;fill-opacity:1;fill-rule:evenodd;stroke:none;stroke-width:1.04566321;stroke-linecap:square;stroke-linejoin:miter;stroke-miterlimit:4;stroke-dasharray:none;stroke-opacity:1;font-variation-settings:normal;vector-effect:none;stroke-dashoffset:0;-inkscape-stroke:none;stop-color:#000000;stop-opacity:1"
         id="path800" /></g></g></svg>
