<?xml version="1.0" encoding="UTF-8" standalone="no"?>
<!-- Created with Inkscape (http://www.inkscape.org/) -->

<svg
   width="122.62923mm"
   height="99.497177mm"
   viewBox="0 0 122.62923 99.497177"
   version="1.1"
   id="svg5"
   inkscape:version="1.2 (1:1.2.1+202207142221+cd75a1ee6d)"
   sodipodi:docname="SeparatingSetDescription.svg"
   xmlns:inkscape="http://www.inkscape.org/namespaces/inkscape"
   xmlns:sodipodi="http://sodipodi.sourceforge.net/DTD/sodipodi-0.dtd"
   xmlns:xlink="http://www.w3.org/1999/xlink"
   xmlns="http://www.w3.org/2000/svg"
   xmlns:svg="http://www.w3.org/2000/svg">
  <sodipodi:namedview
     id="namedview7"
     pagecolor="#ffffff"
     bordercolor="#999999"
     borderopacity="1"
     inkscape:showpageshadow="0"
     inkscape:pageopacity="0"
     inkscape:pagecheckerboard="0"
     inkscape:deskcolor="#d1d1d1"
     inkscape:document-units="mm"
     showgrid="false"
     inkscape:zoom="1"
     inkscape:cx="290"
     inkscape:cy="207.5"
     inkscape:window-width="1600"
     inkscape:window-height="832"
     inkscape:window-x="0"
     inkscape:window-y="32"
     inkscape:window-maximized="1"
     inkscape:current-layer="layer1" />
  <defs
     id="defs2">
    <inkscape:path-effect
       effect="bspline"
       id="path-effect2212"
       is_visible="true"
       lpeversion="1"
       weight="33.333333"
       steps="2"
       helper_size="0"
       apply_no_weight="true"
       apply_with_weight="true"
       only_selected="false" />
    <inkscape:path-effect
       effect="bspline"
       id="path-effect2208"
       is_visible="true"
       lpeversion="1"
       weight="33.333333"
       steps="2"
       helper_size="0"
       apply_no_weight="true"
       apply_with_weight="true"
       only_selected="false" />
    <inkscape:path-effect
       effect="bspline"
       id="path-effect2202"
       is_visible="true"
       lpeversion="1"
       weight="33.333333"
       steps="2"
       helper_size="0"
       apply_no_weight="true"
       apply_with_weight="true"
       only_selected="false" />
    <inkscape:path-effect
       effect="bspline"
       id="path-effect2196"
       is_visible="true"
       lpeversion="1"
       weight="33.333333"
       steps="2"
       helper_size="0"
       apply_no_weight="true"
       apply_with_weight="true"
       only_selected="false" />
    <inkscape:path-effect
       effect="bspline"
       id="path-effect2110"
       is_visible="true"
       lpeversion="1"
       weight="33.333333"
       steps="2"
       helper_size="0"
       apply_no_weight="true"
       apply_with_weight="true"
       only_selected="false" />
    <inkscape:path-effect
       effect="bspline"
       id="path-effect2102"
       is_visible="true"
       lpeversion="1"
       weight="33.333333"
       steps="2"
       helper_size="0"
       apply_no_weight="true"
       apply_with_weight="true"
       only_selected="false" />
    <linearGradient
       inkscape:collect="always"
       id="linearGradient1212">
      <stop
         style="stop-color:#00ccff;stop-opacity:1;"
         offset="0"
         id="stop1208" />
      <stop
         style="stop-color:#00ccff;stop-opacity:0;"
         offset="1"
         id="stop1210" />
    </linearGradient>
    <inkscape:path-effect
       effect="bspline"
       id="path-effect629"
       is_visible="true"
       lpeversion="1"
       weight="33.333333"
       steps="2"
       helper_size="0"
       apply_no_weight="true"
       apply_with_weight="true"
       only_selected="false" />
    <inkscape:path-effect
       effect="bspline"
       id="path-effect621"
       is_visible="true"
       lpeversion="1"
       weight="33.333333"
       steps="2"
       helper_size="0"
       apply_no_weight="true"
       apply_with_weight="true"
       only_selected="false" />
    <radialGradient
       inkscape:collect="always"
       xlink:href="#linearGradient1212"
       id="radialGradient1214"
       cx="70.919975"
       cy="139.86507"
       fx="70.919975"
       fy="139.86507"
       r="61.446804"
       gradientTransform="matrix(0.7902255,1.2692921,-1.8981415,1.1817295,280.36089,-115.346)"
       gradientUnits="userSpaceOnUse" />
  </defs>
  <g
     inkscape:label="Layer 1"
     inkscape:groupmode="layer"
     id="layer1"
     transform="translate(-50.335354,-90.595292)">
    <path
       style="fill:url(#radialGradient1214);fill-opacity:1;stroke:none;stroke-width:0.264583px;stroke-linecap:butt;stroke-linejoin:miter;stroke-opacity:1"
       d="m 128.00431,94.611728 c -6.79795,2.35563 -7.58162,2.42596 -15.77928,1.374159 -8.19766,-1.051802 -23.808751,-3.2257 -38.661688,6.756213 -14.852937,9.98191 -28.946517,32.11871 -20.872019,50.79889 8.074497,18.68017 38.315769,33.90262 59.728107,36.22799 21.41235,2.32537 33.99496,-8.2461 43.71709,-20.15213 9.72213,-11.90602 16.58331,-25.14599 16.82161,-39.80887 0.2383,-14.66288 -6.14637,-30.747953 -15.74509,-36.47033 -9.59871,-5.722376 -22.41078,-1.081552 -29.20873,1.274078 z"
       id="path619"
       inkscape:path-effect="#path-effect621"
       inkscape:original-d="m 121.98985,96.897045 c -0.78346,0.07064 -1.56713,0.140967 -2.35102,0.21099 C 104.02733,94.934357 88.416241,92.760457 72.804624,90.58621 58.710697,112.7242 44.617118,134.861 30.523038,156.99794 c 30.2427,15.22338 60.483976,30.44583 90.725642,45.66829 12.58333,-10.5716 25.16595,-21.14306 37.7486,-31.71506 6.86167,-13.24019 13.72284,-26.48016 20.58395,-39.7207 -6.38472,-16.0854 -12.76939,-32.170476 -19.15441,-48.256173 -12.81237,4.641315 -25.62444,9.282138 -38.43697,13.922748 z" />
    <path
       style="font-variation-settings:normal;opacity:1;vector-effect:none;fill:none;fill-opacity:1;stroke:#000000;stroke-width:0.5802;stroke-linecap:butt;stroke-linejoin:miter;stroke-miterlimit:4;stroke-dasharray:1.7406, 1.7406;stroke-dashoffset:0;stroke-opacity:1;-inkscape-stroke:none;stop-color:#000000;stop-opacity:1"
       inkscape:path-effect="#path-effect2110"
       inkscape:original-d="m 158.91685,149.79603 5.88628,5.0627"
       d="m 158.91685,149.79603 c 0,0 5.88628,5.0627 5.88628,5.0627"
       id="path2106" />
    <path
       style="font-variation-settings:normal;opacity:1;vector-effect:none;fill:none;fill-opacity:1;stroke:#0000ff;stroke-width:0.5802;stroke-linecap:butt;stroke-linejoin:miter;stroke-miterlimit:4;stroke-dasharray:none;stroke-dashoffset:0;stroke-opacity:1;-inkscape-stroke:none;stop-color:#000000;stop-opacity:1"
       d="m 147.08407,146.1001 c -1.99836,-2.52908 -3.99649,-5.05788 -4.91482,-9.5268 -0.91833,-4.46892 -0.75642,-10.87738 -1.02109,-15.78126 -0.26466,-4.90389 -0.95588,-8.30209 -4.28674,-10.49597 -3.33087,-2.19389 -9.30099,-3.18244 -15.27098,-4.17097"
       id="path2198"
       inkscape:path-effect="#path-effect2202"
       inkscape:original-d="m 147.08407,146.1001 c -1.99832,-2.52911 -3.99645,-5.05791 -5.99507,-7.58725 0.16219,-6.40846 0.3241,-12.81692 0.48577,-19.22623 -0.69107,-3.39851 -1.38229,-6.79671 -2.07391,-10.19586 -5.97034,-0.98837 -11.94046,-1.97692 -17.91042,-2.96566"
       sodipodi:nodetypes="ccccc" />
    <path
       style="font-variation-settings:normal;opacity:1;vector-effect:none;fill:none;fill-opacity:1;stroke:#d45500;stroke-width:0.5802;stroke-linecap:butt;stroke-linejoin:miter;stroke-miterlimit:4;stroke-dasharray:none;stroke-dashoffset:0;stroke-opacity:1;-inkscape-stroke:none;stop-color:#000000;stop-opacity:1"
       d="m 102.03429,152.62745 c 2.53855,-4.09451 5.07682,-8.18857 5.72746,-12.61207 0.65063,-4.4235 -0.58674,-9.17466 -0.58681,-13.22221 -7e-5,-4.04754 1.23729,-7.38974 3.84647,-10.71739 2.60918,-3.32765 6.58886,-6.63896 10.56904,-9.95068"
       id="path2204"
       inkscape:path-effect="#path-effect2208"
       inkscape:original-d="m 102.03429,152.62745 c 2.53886,-4.09432 5.07713,-8.18838 7.61568,-12.28357 -1.23741,-4.75205 -2.47478,-9.50321 -3.71265,-14.25553 1.23787,-3.3426 2.47523,-6.6848 3.71265,-10.02814 3.98085,-3.3118 7.96054,-6.6231 11.94048,-9.93511"
       sodipodi:nodetypes="ccccc" />
    <path
       style="fill:none;stroke:#000000;stroke-width:0.5802;stroke-linecap:butt;stroke-linejoin:miter;stroke-opacity:1"
       inkscape:path-effect="#path-effect2102"
       inkscape:original-d="m 84.297451,159.49683 c 0,0 7.967601,-9.52894 11.951008,-14.29381 9.670041,8.08537 19.339761,16.1705 29.009321,24.25529 7.88137,-9.42556 17.33876,-20.73657 23.64299,-28.27701 2.67109,2.29742 6.6879,5.7522 10.01608,8.61473"
       d="m 84.297451,159.49683 c 3.983669,-4.7646 7.967315,-9.52918 14.794194,-7.86882 6.826875,1.66035 16.496635,9.74543 25.271935,9.07497 8.7753,-0.67046 18.23267,-11.98148 22.72049,-14.60288 4.48781,-2.6214 8.5046,0.8334 11.83278,3.69593"
       id="path2098" />
    <path
       style="fill:none;stroke:#000000;stroke-width:0.5802;stroke-linecap:butt;stroke-linejoin:miter;stroke-dasharray:1.7406, 1.7406;stroke-dashoffset:0;stroke-opacity:1"
       inkscape:path-effect="#path-effect629"
       inkscape:original-d="m 76.760408,168.51072 c 2.512625,-3.00438 5.024729,-6.00921 7.537043,-9.01389"
       d="m 76.760408,168.51072 c 2.512339,-3.00462 5.024685,-6.00925 7.537043,-9.01389"
       id="path627" />
    <circle
       style="font-variation-settings:normal;opacity:1;vector-effect:none;fill:#ff0000;fill-opacity:1;fill-rule:evenodd;stroke:none;stroke-width:0.932406;stroke-linecap:butt;stroke-linejoin:miter;stroke-miterlimit:4;stroke-dasharray:none;stroke-dashoffset:0;stroke-opacity:1;-inkscape-stroke:none;paint-order:fill stroke markers;stop-color:#000000;stop-opacity:1"
       id="path2192"
       cx="121.59045"
       cy="106.1251"
       r="1.4777341" />
    <g
       id="g2522"
       transform="matrix(2.0721152,0.14695617,-0.14695617,2.0721152,-106.12944,-150.43512)"
       style="fill:#d45500;fill-opacity:1;stroke-width:0.48139">
      <g
         id="path2524"
         style="fill:#d45500;fill-opacity:1;stroke-width:0.48139">
        <path
           style="color:#000000;fill:#d45500;fill-opacity:1;fill-rule:evenodd;stroke-width:0.0636834pt;-inkscape-stroke:none"
           d="m 111.8664,125.78923 c 0.17633,0.37936 0.49908,0.87519 0.7919,1.10815 0,0 -0.52577,0.0599 -0.68714,-0.18806 -0.10151,0.27785 -0.62728,0.33772 -0.62728,0.33772 0.23295,-0.29282 0.43597,-0.84852 0.52252,-1.25781 z"
           id="path2528" />
        <path
           style="color:#000000;fill:#d45500;fill-opacity:1;fill-rule:evenodd;stroke-width:0.48139;-inkscape-stroke:none"
           d="m 111.83398,125.51172 -0.0547,0.25976 c -0.0841,0.39779 -0.28926,0.95089 -0.50391,1.22071 l -0.13281,0.16601 0.21094,-0.0234 c 0,0 0.14032,-0.0151 0.29492,-0.0684 0.12699,-0.0438 0.24844,-0.14307 0.33398,-0.26758 0.11125,0.10085 0.24994,0.1715 0.38281,0.18555 0.16263,0.0172 0.30274,-1e-5 0.30274,0 l 0.21094,-0.0234 -0.16602,-0.13281 c -0.26982,-0.21466 -0.59425,-0.70748 -0.76562,-1.07618 z m 0.0527,0.45312 c 0.15746,0.30412 0.37115,0.61223 0.60351,0.84375 -0.0439,5e-4 -0.0492,0.006 -0.10546,0 -0.14061,-0.0148 -0.28482,-0.0619 -0.33985,-0.14648 l -0.0957,-0.14844 -0.0605,0.16602 c -0.0346,0.0947 -0.16516,0.17266 -0.29883,0.21875 -0.054,0.0186 -0.0604,0.014 -0.10351,0.0234 0.1743,-0.27766 0.31528,-0.6254 0.40039,-0.95704 z"
           id="path2530" />
      </g>
    </g>
    <g
       id="g4615"
       transform="matrix(2.0721152,0.14695617,-0.14695617,2.0721152,-71.987257,-149.97281)"
       style="fill:#0000ff;fill-opacity:1;stroke-width:0.48139">
      <g
         id="g4613"
         style="fill:#0000ff;fill-opacity:1;stroke-width:0.48139">
        <path
           style="color:#000000;fill:#0000ff;fill-opacity:1;fill-rule:evenodd;stroke-width:0.0636834pt;-inkscape-stroke:none"
           d="m 111.8664,125.78923 c 0.17633,0.37936 0.49908,0.87519 0.7919,1.10815 0,0 -0.52577,0.0599 -0.68714,-0.18806 -0.10151,0.27785 -0.62728,0.33772 -0.62728,0.33772 0.23295,-0.29282 0.43597,-0.84852 0.52252,-1.25781 z"
           id="path4609" />
        <path
           style="color:#000000;fill:#0000ff;fill-opacity:1;fill-rule:evenodd;stroke-width:0.48139;-inkscape-stroke:none"
           d="m 111.83398,125.51172 -0.0547,0.25976 c -0.0841,0.39779 -0.28926,0.95089 -0.50391,1.22071 l -0.13281,0.16601 0.21094,-0.0234 c 0,0 0.14032,-0.0151 0.29492,-0.0684 0.12699,-0.0438 0.24844,-0.14307 0.33398,-0.26758 0.11125,0.10085 0.24994,0.1715 0.38281,0.18555 0.16263,0.0172 0.30274,-1e-5 0.30274,0 l 0.21094,-0.0234 -0.16602,-0.13281 c -0.26982,-0.21466 -0.59425,-0.70748 -0.76562,-1.07618 z m 0.0527,0.45312 c 0.15746,0.30412 0.37115,0.61223 0.60351,0.84375 -0.0439,5e-4 -0.0492,0.006 -0.10546,0 -0.14061,-0.0148 -0.28482,-0.0619 -0.33985,-0.14648 l -0.0957,-0.14844 -0.0605,0.16602 c -0.0346,0.0947 -0.16516,0.17266 -0.29883,0.21875 -0.054,0.0186 -0.0604,0.014 -0.10351,0.0234 0.1743,-0.27766 0.31528,-0.6254 0.40039,-0.95704 z"
           id="path4611" />
      </g>
    </g>
    <text
       xml:space="preserve"
       style="font-size:4.23333px;line-height:1.25;font-family:'Century Schoolbook';-inkscape-font-specification:'Century Schoolbook, Normal';font-variant-ligatures:none;stroke-width:0.264583"
       x="72.72364"
       y="127.86163"
       id="text5024"><tspan
         sodipodi:role="line"
         id="tspan5022"
         style="stroke-width:0.264583"
         x="72.72364"
         y="127.86163">$M$</tspan></text>
    <text
       xml:space="preserve"
       style="font-size:4.23333px;line-height:1.25;font-family:'Century Schoolbook';-inkscape-font-specification:'Century Schoolbook, Normal';font-variant-ligatures:none;stroke-width:0.264583"
       x="117.46668"
       y="167.14948"
       id="text5028"><tspan
         sodipodi:role="line"
         id="tspan5026"
         style="stroke-width:0.264583"
         x="117.46668"
         y="167.14948">$N$</tspan></text>
    <text
       xml:space="preserve"
       style="font-size:4.23333px;line-height:1.25;font-family:'Century Schoolbook';-inkscape-font-specification:'Century Schoolbook, Normal';font-variant-ligatures:none;fill:#d45500;fill-opacity:1;stroke-width:0.264583"
       x="102.14419"
       y="127.20315"
       id="text5032"><tspan
         sodipodi:role="line"
         id="tspan5030"
         style="fill:#d45500;fill-opacity:1;stroke-width:0.264583"
         x="102.14419"
         y="127.20315">$\gamma$</tspan></text>
    <text
       xml:space="preserve"
       style="font-size:4.23333px;line-height:1.25;font-family:'Century Schoolbook';-inkscape-font-specification:'Century Schoolbook, Normal';font-variant-ligatures:none;fill:#0000ff;fill-opacity:1;stroke-width:0.264583"
       x="143.14897"
       y="125.96198"
       id="text5036"><tspan
         sodipodi:role="line"
         id="tspan5034"
         style="fill:#0000ff;fill-opacity:1;stroke-width:0.264583"
         x="143.14897"
         y="125.96198">$\eta$</tspan></text>
    <text
       xml:space="preserve"
       style="font-size:4.23333px;line-height:1.25;font-family:'Century Schoolbook';-inkscape-font-specification:'Century Schoolbook, Normal';font-variant-ligatures:none;stroke-width:0.264583"
       x="117.73243"
       y="103.89375"
       id="text7386"><tspan
         sodipodi:role="line"
         id="tspan7384"
         style="stroke-width:0.264583"
         x="117.73243"
         y="103.89375">$P$</tspan></text>
  </g>
</svg>
